<svg xmlns="http://www.w3.org/2000/svg" width="68" height="68" viewBox="0 0 68 68" fill="none"><path d="M0 34C0 15.2223 15.2223 0 34 0C52.7777 0 68 15.2223 68 34C68 52.7777 52.7777 68 34 68C15.2223 68 0 52.7777 0 34Z" fill="white"></path><path fill-rule="evenodd" clip-rule="evenodd" d="M17.3494 14C15.4996 14 14 15.4996 14 17.3494V50.6506C14 52.5004 15.4996 54 17.3494 54H50.6505C52.5004 54 54 52.5004 54 50.6506V17.3494C54 15.4996 52.5004 14 50.6505 14H17.3494Z" fill="#E6EEFF"></path><path fill-rule="evenodd" clip-rule="evenodd" d="M43.8516 54V14H51.5599V54H43.8516Z" fill="#C7DBFF"></path><path fill-rule="evenodd" clip-rule="evenodd" d="M42 54V14H45.0833V54H42Z" fill="#85ADFF"></path><path fill-rule="evenodd" clip-rule="evenodd" d="M44.6715 25.4546C44.6715 25.4546 44.669 25.4576 44.6666 25.4624L39.8393 34.9295C39.3084 35.9706 37.9008 36.1372 37.1454 35.2484L33.8599 31.3822C33.8559 31.3775 33.8526 31.3752 33.8526 31.3752L33.8502 31.374C33.8502 31.374 33.8431 31.3722 33.8359 31.3733C33.8286 31.3744 33.8224 31.3783 33.8224 31.3783L33.8206 31.3801C33.8206 31.3801 33.8181 31.3834 33.8157 31.3891L28.6017 43.6598C28.0537 44.9495 26.2603 45.0027 25.6381 43.7476L21.8193 36.0441C21.816 36.0376 21.8132 36.0345 21.8132 36.0345C21.8132 36.0345 21.8052 36.0299 21.7969 36.0295C21.7885 36.0291 21.7817 36.0319 21.7817 36.0319C21.7817 36.0319 21.7771 36.0359 21.7733 36.0421L18.6764 41.1323C18.1043 42.0727 16.7953 42.1915 16.0659 41.3692L14 39.0405V36.6476L15.1982 37.9592L17.264 40.288C17.2671 40.2914 17.2702 40.2937 17.2702 40.2937L17.2733 40.2953C17.2733 40.2953 17.2801 40.2972 17.286 40.2967C17.2919 40.2962 17.2983 40.2931 17.2983 40.2931L17.301 40.2909C17.301 40.2909 17.3037 40.2881 17.3061 40.2841L20.4029 35.194C21.0735 34.0918 22.6839 34.1623 23.2573 35.3189L27.0762 43.0224C27.0803 43.0308 27.0833 43.0339 27.0833 43.0339C27.0833 43.0339 27.0902 43.0374 27.1005 43.0371C27.1107 43.0368 27.1171 43.0332 27.1171 43.0332C27.1171 43.0332 27.1202 43.0296 27.1239 43.021L32.3379 30.7503C32.8146 29.6283 34.293 29.4001 35.0806 30.3269L38.3661 34.193C38.3697 34.1972 38.3728 34.1995 38.3728 34.1995L38.3755 34.201C38.3755 34.201 38.3825 34.2029 38.3892 34.2021C38.3958 34.2013 38.4022 34.1978 38.4022 34.1978L38.4045 34.1958L38.4061 34.1937L38.4095 34.1879L43.2368 24.7207C43.7633 23.6881 45.1551 23.5137 45.9161 24.385L50.641 29.7945C50.6447 29.7988 50.6492 29.8011 50.6492 29.8011C50.6492 29.8011 50.6554 29.8034 50.6599 29.8035C50.6644 29.8036 50.6707 29.8018 50.6707 29.8018C50.6707 29.8018 50.6754 29.7997 50.6793 29.7957L52.8631 27.5932L54 26.3598L54 28.7398L51.8162 30.9424C51.1493 31.615 50.058 31.5802 49.4345 30.8665L44.7097 25.457C44.7062 25.4529 44.703 25.4506 44.703 25.4506L44.7002 25.4492C44.7002 25.4492 44.6932 25.4474 44.6867 25.4482C44.6802 25.449 44.6739 25.4525 44.6739 25.4525L44.6715 25.4546Z" fill="#2E71E5"></path><path d="M46.75 23.75C46.75 25.4069 45.4069 26.75 43.75 26.75C42.0931 26.75 40.75 25.4069 40.75 23.75C40.75 22.0931 42.0931 20.75 43.75 20.75C45.4069 20.75 46.75 22.0931 46.75 23.75Z" fill="#E6EEFF"></path><path fill-rule="evenodd" clip-rule="evenodd" d="M43.8542 26.0405C45.1543 26.0405 46.2083 25.015 46.2083 23.75C46.2083 22.485 45.1543 21.4595 43.8542 21.4595C42.554 21.4595 41.5 22.485 41.5 23.75C41.5 25.015 42.554 26.0405 43.8542 26.0405ZM43.8542 27.5C45.9828 27.5 47.7083 25.8211 47.7083 23.75C47.7083 21.6789 45.9828 20 43.8542 20C41.7256 20 40 21.6789 40 23.75C40 25.8211 41.7256 27.5 43.8542 27.5Z" fill="#2E71E5"></path><path d="M17.3496 14.5H50.6504C52.2241 14.5 53.5 15.7759 53.5 17.3496V50.6504C53.5 52.2241 52.2241 53.5 50.6504 53.5H17.3496C15.7759 53.5 14.5 52.2241 14.5 50.6504V17.3496C14.5 15.7759 15.7759 14.5 17.3496 14.5Z" stroke="#28363E"></path></svg>