<svg xmlns="http://www.w3.org/2000/svg" width="24" height="24" viewBox="0 0 24 24" fill="none"><path d="M20 10C20 5.5 16.5 2 12 2C7.5 2 4 5.5 4 10C4 12.6 5.2 14.8 7 16.3V21.1C7 21.4 7.2 21.7 7.4 21.9C7.7 22.1 8 22.1 8.3 22L12 20.8L15.7 22C15.8 22 15.9 22 16 22C16.2 22 16.4 21.9 16.6 21.8C16.9 21.6 17 21.3 17 21V16.2C18.8 14.8 20 12.6 20 10ZM6 10C6 6.6 8.6 4 12 4C15.4 4 18 6.6 18 10C18 13.4 15.4 16 12 16C8.6 16 6 13.4 6 10ZM15 19.7L12.3 18.8C12.1 18.7 11.9 18.7 11.7 18.8L9 19.7V17.4C9.9 17.8 10.9 18 12 18C13.1 18 14.1 17.8 15 17.4V19.7ZM11.3 13.7C11.5 13.9 11.7 14 12 14C12.3 14 12.5 13.9 12.7 13.7L15.7 10.7C16.1 10.3 16.1 9.7 15.7 9.3L12.7 6.3C12.5 6.1 12.3 6 12 6C11.7 6 11.5 6.1 11.3 6.3L8.3 9.4C8.1 9.6 8 9.9 8 10.1C8 10.3 8.1 10.6 8.3 10.8L11.3 13.7ZM12 8.4L13.6 10L12 11.6L10.4 10.1L12 8.4Z" fill="white"></path></svg>