<svg xmlns="http://www.w3.org/2000/svg" width="72" height="72" viewBox="0 0 72 72" fill="none"><path d="M0 36C0 16.1178 16.1178 0 36 0C55.8823 0 72 16.1178 72 36C72 55.8823 55.8823 72 36 72C16.1178 72 0 55.8823 0 36Z" fill="white"></path><rect x="18.5" y="33.5" width="31" height="21" rx="1.5" fill="#E6EEFF" stroke="#28363E"></rect><path d="M24.0986 38.7812H31.2217C31.74 38.7813 32.1601 39.2014 32.1602 39.7197V54.4482H23.1602V39.7197L23.165 39.624C23.2098 39.1822 23.5611 38.8309 24.0029 38.7861L24.0986 38.7812Z" fill="#2E71E5" stroke="#28363E"></path><path d="M36.4385 38.7812H45.2285C45.7467 38.7814 46.167 39.2015 46.167 39.7197V46.8428C46.167 47.361 45.7467 47.7811 45.2285 47.7812H36.4385C35.9202 47.7812 35.5 47.3611 35.5 46.8428V39.7197L35.5049 39.624C35.5528 39.1507 35.9525 38.7813 36.4385 38.7812Z" fill="#A8C7FF" stroke="#28363E"></path><path d="M41.1582 28.5332V20.9541C41.1582 19.6413 42.2224 18.5772 43.5352 18.5771H44.4482C45.7609 18.5774 46.8252 19.6414 46.8252 20.9541V28.5332C46.8251 29.8458 45.7608 30.9099 44.4482 30.9102H43.5352L43.292 30.8975C42.0935 30.7756 41.1582 29.7638 41.1582 28.5332Z" fill="#2E71E5" stroke="#28363E"></path><path d="M33.3994 17.7178C33.704 17.464 34.1292 17.4317 34.4639 17.6221L34.6006 17.7178L53.2715 33.2764C53.4163 33.397 53.5 33.5762 53.5 33.7646C53.4998 34.1151 53.2157 34.3993 52.8652 34.3994H15.1348C14.7843 34.3993 14.5002 34.1151 14.5 33.7646C14.5 33.5998 14.5638 33.4418 14.6768 33.3242L14.7285 33.2764L33.3994 17.7178Z" fill="#A8C7FF" stroke="#28363E"></path></svg>