<svg xmlns="http://www.w3.org/2000/svg" width="77" height="38" viewBox="0 0 77 38" fill="none"><path d="M6.86975 23.4692C6.5834 22.2582 6.47874 21.014 6.55897 19.7745L1.39985 23.1673C-0.0847943 24.1438 0.12355 25.1451 1.88483 25.4903L8.12625 26.708C7.55953 25.6871 7.13695 24.5979 6.86975 23.4692Z" fill="white"></path><path d="M16.8772 7.93285C17.9737 7.68014 19.0987 7.56002 20.2261 7.57525L16.51 1.67589C14.9516 -0.800575 13.4912 -0.462528 13.2651 2.4235L12.6984 9.65693C13.9799 8.85833 15.393 8.27534 16.8772 7.93285Z" fill="white"></path><path d="M30.5661 12.4748L33.2459 2.90983C34.0936 -0.107794 32.8133 -0.864465 30.4038 1.2277L22.7787 7.85227C25.8534 8.47551 28.6049 10.1097 30.5661 12.4748Z" fill="white"></path><path d="M6.94894 17.3433C7.59281 14.94 8.935 12.7637 10.8179 11.0697L4.30331 9.33748C1.40628 8.56698 0.584781 9.77756 2.4777 12.0266L6.94894 17.3433Z" fill="white"></path><path d="M31.6014 27.2134C30.8862 28.3743 29.9884 29.4212 28.9399 30.3169L30.428 30.7431C33.3097 31.5656 34.155 30.3712 32.3086 28.0859L31.6014 27.2134Z" fill="white"></path><path d="M10.0028 29.2774L9.07048 34.3844C8.7587 36.0889 9.65048 36.6458 11.1361 35.6717L15.498 32.811C13.3924 32.0878 11.5033 30.8739 10.0028 29.2774Z" fill="white"></path><path d="M23.1572 33.2076C22.2256 33.4227 21.2729 33.5416 20.3151 33.5624L22.264 36.1113C23.329 37.5069 24.3623 37.2675 24.6567 35.5602L25.1699 32.5783C24.5172 32.838 23.8442 33.0497 23.1572 33.2076Z" fill="white"></path><path d="M23.4675 25.1618C22.8494 25.1618 22.3432 25.1036 22.3432 24.5081V20.9736C22.3432 19.9247 21.874 19.096 20.7101 19.096C19.4729 19.096 19.023 20.0162 19.023 20.9736V24.5081C19.023 25.1036 18.5162 25.1618 17.8972 25.1618C17.2781 25.1618 16.754 25.1036 16.754 24.5081V20.9736C16.754 19.9247 16.2853 19.096 15.1209 19.096C13.8649 19.096 13.4338 20.0162 13.4338 20.9736V24.5081C13.4338 25.1036 12.9276 25.1618 12.309 25.1618C11.6904 25.1618 11.1836 25.1036 11.1836 24.5081V18.1839C11.1836 17.401 11.6147 17.3734 12.309 17.3734C12.9647 17.3734 13.4338 17.3972 13.4338 17.9932V18.4652C13.9025 17.6337 14.7651 17.1469 15.7771 17.1469C16.9767 17.1469 17.8556 17.6713 18.4 18.501C18.9804 17.688 20.0118 17.1469 21.2866 17.1469C23.5551 17.1469 24.6023 18.6278 24.6023 20.7958V24.51C24.6023 25.1055 24.0777 25.1637 23.4586 25.1637" fill="white"></path><path d="M27.4063 17.3734C26.7867 17.3734 26.2804 17.3962 26.2804 17.9932V24.5081C26.2804 25.1036 26.5704 25.1618 27.4063 25.1618C28.2421 25.1618 28.5306 25.1823 28.5306 24.4051V17.9932C28.5306 17.3967 28.0244 17.3734 27.4063 17.3734Z" fill="white"></path><path d="M28.644 15.233C28.644 14.3271 28.2906 14.123 27.4068 14.1207H27.4003C26.515 14.123 26.1631 14.3276 26.1631 15.233C26.1631 16.1389 26.516 16.3435 27.4003 16.3449H27.4068C28.2911 16.3449 28.644 16.1385 28.644 15.233Z" fill="white"></path><path d="M34.5033 18.9859C33.228 18.9859 32.4961 20.0706 32.4961 21.2807C32.4961 22.4908 33.2097 23.575 34.5033 23.575C35.797 23.575 36.5467 22.5442 36.5467 21.2807C36.5467 20.0172 35.7965 18.9859 34.5033 18.9859ZM30.2474 15.1296C30.2474 14.5326 30.7531 14.5097 31.3727 14.5097C31.9923 14.5097 32.4966 14.5321 32.4966 15.1296V18.4266C33.0598 17.5421 34.0159 17.145 34.9908 17.145C37.4652 17.145 38.7959 19.1475 38.7959 21.2807C38.7959 23.4138 37.4845 25.4178 34.9908 25.4178C33.8843 25.4178 32.9658 24.9291 32.4219 24.1343V24.5081C32.4219 25.1036 31.9908 25.1618 31.3331 25.1618C30.6755 25.1618 30.2444 25.0712 30.2444 24.4761L30.2474 15.1296Z" fill="white"></path><path d="M44.108 23.575C45.4011 23.575 46.1132 22.4908 46.1132 21.2807C46.1132 20.0706 45.3843 18.9859 44.108 18.9859C42.8129 18.9859 42.0631 20.0167 42.0631 21.2811C42.0631 22.5456 42.8129 23.575 44.108 23.575ZM48.3639 24.5253C48.3639 25.1212 47.9329 25.1618 47.2752 25.1618C46.6175 25.1618 46.1865 25.1036 46.1865 24.5076V24.1162C45.6421 24.9658 44.7251 25.4178 43.618 25.4178C41.1253 25.4178 39.8124 23.4115 39.8124 21.2811C39.8124 19.1508 41.1441 17.145 43.618 17.145C44.5944 17.145 45.5684 17.5412 46.1122 18.4266V17.9775C46.1122 17.381 46.619 17.3719 47.2371 17.3719C47.8552 17.3719 48.3624 17.381 48.3624 17.9775L48.3639 24.5253Z" fill="white"></path><path d="M54.0442 19.0955C52.7887 19.0955 52.2824 20.0167 52.2824 20.9736V24.5252C52.2824 25.1212 51.7766 25.1618 51.158 25.1618C50.5394 25.1618 50.0332 25.1212 50.0332 24.5252V17.9932C50.0332 17.3686 50.5196 17.37 51.158 17.37C51.7964 17.37 52.2824 17.37 52.2824 17.9932V18.4619C52.7337 17.6661 53.5394 17.1426 54.7014 17.1426C56.8002 17.1426 58.0003 18.6955 58.0003 20.8616V24.5252C58.0003 25.1212 57.495 25.1618 56.8759 25.1618C56.2568 25.1618 55.7505 25.1212 55.7505 24.5252V20.9736C55.7505 19.9247 55.2062 19.0955 54.0442 19.0955Z" fill="white"></path><path d="M72.1182 19.0226C70.826 19.0226 70.0397 20.0715 70.0397 21.2802C70.0397 22.4889 70.828 23.5373 72.1182 23.5373C73.4083 23.5373 74.1967 22.4884 74.1967 21.2802C74.1967 20.072 73.4098 19.0226 72.1182 19.0226ZM72.1182 25.4159C69.5883 25.4159 67.8256 23.5564 67.8256 21.2802C67.8256 19.004 69.5883 17.145 72.1182 17.145C74.648 17.145 76.4113 19.0045 76.4113 21.2802C76.4113 23.5559 74.6495 25.4159 72.1182 25.4159Z" fill="white"></path><path d="M66.5077 23.2956C65.95 22.702 65.8228 22.754 65.4601 22.9909C65.0973 23.2279 64.6554 23.5655 63.8517 23.5655C62.4096 23.5655 61.6619 22.4827 61.6619 21.2769C61.6619 20.0711 62.4096 18.9883 63.8517 18.9883C64.6574 18.9883 65.0993 19.322 65.462 19.5647C65.8248 19.8074 65.9515 19.8508 66.5087 19.2595C67.066 18.6683 66.9635 18.4614 66.7171 18.2106C66.1727 17.6337 65.1631 17.1469 63.8329 17.1469C61.1185 17.1469 59.4141 18.9678 59.4141 21.2773C59.4141 23.5869 61.1185 25.4083 63.8329 25.4083C65.1631 25.4083 66.1742 24.9215 66.7171 24.3436C67.0447 23.9579 67.0407 23.8601 66.5077 23.2956Z" fill="white"></path></svg>