<svg xmlns="http://www.w3.org/2000/svg" width="32" height="32" viewBox="0 0 32 32" fill="none"><path d="M16.67 6.68775L25.17 11.4377C25.4195 11.5623 25.6294 11.754 25.776 11.9912C25.9226 12.2284 26.0002 12.5019 26 12.7807V14.2207C26 14.9107 25.44 15.4707 24.75 15.4707H24V23.4707H25C25.2652 23.4707 25.5196 23.5761 25.7071 23.7636C25.8946 23.9512 26 24.2055 26 24.4707C26 24.736 25.8946 24.9903 25.7071 25.1779C25.5196 25.3654 25.2652 25.4707 25 25.4707H7C6.73478 25.4707 6.48043 25.3654 6.29289 25.1779C6.10536 24.9903 6 24.736 6 24.4707C6 24.2055 6.10536 23.9512 6.29289 23.7636C6.48043 23.5761 6.73478 23.4707 7 23.4707H8V15.4707H7.25C6.56 15.4707 6 14.9107 6 14.2207V12.7807C6 12.2587 6.27 11.7787 6.706 11.5067L15.329 6.68775C15.5373 6.58355 15.7671 6.5293 16 6.5293C16.2329 6.5293 16.4617 6.58355 16.67 6.68775ZM22 15.4707H10V23.4707H13V18.4707C13 17.9185 13.4477 17.4707 14 17.4707C14.5523 17.4707 15 17.9185 15 18.4707V23.4707H17V18.4707C17 17.9185 17.4477 17.4707 18 17.4707C18.5523 17.4707 19 17.9185 19 18.4707V23.4707H22V15.4707ZM16 8.58875L8 13.0887V13.4707H24V13.0887L16 8.58875ZM16 10.4707C16.2652 10.4707 16.5196 10.5761 16.7071 10.7636C16.8946 10.9512 17 11.2055 17 11.4707C17 11.736 16.8946 11.9903 16.7071 12.1779C16.5196 12.3654 16.2652 12.4707 16 12.4707C15.7348 12.4707 15.4804 12.3654 15.2929 12.1779C15.1054 11.9903 15 11.736 15 11.4707C15 11.2055 15.1054 10.9512 15.2929 10.7636C15.4804 10.5761 15.7348 10.4707 16 10.4707Z" fill="#28363E"></path></svg>