<svg xmlns="http://www.w3.org/2000/svg" width="33" height="33" viewBox="0 0 33 33" fill="none"><path fill-rule="evenodd" clip-rule="evenodd" d="M16.334 26.5C21.8568 26.5 26.334 22.0228 26.334 16.5C26.334 10.9772 21.8568 6.5 16.334 6.5C10.8111 6.5 6.33398 10.9772 6.33398 16.5C6.33398 22.0228 10.8111 26.5 16.334 26.5ZM16.334 8.5C16.1071 8.5 15.8156 8.5993 15.4664 8.93166C15.112 9.26892 14.7474 9.80422 14.4194 10.5422C14.1678 11.1083 13.9493 11.7676 13.7756 12.5H18.8923C18.7187 11.7676 18.5002 11.1083 18.2486 10.5422C17.9206 9.80422 17.556 9.26892 17.2016 8.93166C16.8523 8.5993 16.5609 8.5 16.334 8.5ZM12.5917 9.7299C12.2316 10.5402 11.9391 11.4765 11.7272 12.5H9.40424C10.1911 11.1398 11.3669 10.0328 12.7796 9.33099C12.7146 9.46122 12.652 9.59431 12.5917 9.7299ZM11.334 16.5C11.334 15.8171 11.3663 15.1479 11.4283 14.5H8.58602C8.42149 15.1392 8.33398 15.8094 8.33398 16.5C8.33398 17.1906 8.42149 17.8608 8.58602 18.5H11.4283C11.3663 17.8521 11.334 17.1829 11.334 16.5ZM12.5917 23.2701C12.2316 22.4598 11.9391 21.5235 11.7272 20.5H9.40424C10.1911 21.8602 11.3669 22.9672 12.7796 23.669C12.7146 23.5388 12.652 23.4057 12.5917 23.2701ZM18.8923 20.5C18.7187 21.2324 18.5002 21.8917 18.2486 22.4578C17.9206 23.1958 17.556 23.7311 17.2016 24.0683C16.8523 24.4007 16.5609 24.5 16.334 24.5C16.1071 24.5 15.8156 24.4007 15.4664 24.0683C15.112 23.7311 14.7474 23.1958 14.4194 22.4578C14.1678 21.8917 13.9493 21.2324 13.7756 20.5H18.8923ZM13.4384 18.5C13.3705 17.8624 13.334 17.1928 13.334 16.5C13.334 15.8072 13.3705 15.1376 13.4384 14.5H19.2295C19.2975 15.1376 19.334 15.8072 19.334 16.5C19.334 17.1928 19.2975 17.8624 19.2295 18.5H13.4384ZM20.9408 20.5C20.7288 21.5235 20.4364 22.4598 20.0762 23.2701C20.016 23.4057 19.9533 23.5388 19.8884 23.669C21.3011 22.9672 22.4769 21.8602 23.2637 20.5H20.9408ZM24.334 16.5C24.334 17.1906 24.2465 17.8608 24.0819 18.5H21.2397C21.3017 17.8521 21.334 17.1829 21.334 16.5C21.334 15.8171 21.3017 15.1479 21.2397 14.5H24.0819C24.2465 15.1392 24.334 15.8094 24.334 16.5ZM19.8884 9.33099C21.3011 10.0328 22.4769 11.1398 23.2637 12.5H20.9408C20.7288 11.4765 20.4364 10.5402 20.0762 9.7299C20.016 9.59431 19.9533 9.46122 19.8884 9.33099Z" fill="#28363E"></path></svg>