<svg xmlns="http://www.w3.org/2000/svg" width="1000" height="194" viewBox="0 0 1000 194" fill="none"><path d="M501.805 56.0097V30.2926H510.438C512.442 30.2926 514.081 30.6568 515.353 31.3851C516.634 32.105 517.582 33.0803 518.197 34.3109C518.813 35.5415 519.121 36.9144 519.121 38.4297C519.121 39.9449 518.813 41.322 518.197 42.561C517.59 43.8 516.651 44.7878 515.378 45.5245C514.106 46.2528 512.475 46.617 510.488 46.617H504.3V43.8544H510.388C511.76 43.8544 512.862 43.6158 513.694 43.1386C514.526 42.6614 515.128 42.0168 515.503 41.2048C515.885 40.3844 516.077 39.4594 516.077 38.4297C516.077 37.4 515.885 36.4791 515.503 35.6671C515.128 34.8551 514.521 34.2188 513.681 33.7584C512.841 33.2896 511.727 33.0552 510.338 33.0552H504.899V56.0097H501.805Z" fill="#1C262B"></path><path d="M531.284 56.4116C529.554 56.4116 528.036 55.9972 526.731 55.1684C525.433 54.3396 524.419 53.1802 523.687 51.6901C522.963 50.1999 522.601 48.4587 522.601 46.4663C522.601 44.4571 522.963 42.7033 523.687 41.2048C524.419 39.7063 525.433 38.5427 526.731 37.7139C528.036 36.8851 529.554 36.4707 531.284 36.4707C533.014 36.4707 534.528 36.8851 535.825 37.7139C537.131 38.5427 538.146 39.7063 538.869 41.2048C539.601 42.7033 539.967 44.4571 539.967 46.4663C539.967 48.4587 539.601 50.1999 538.869 51.6901C538.146 53.1802 537.131 54.3396 535.825 55.1684C534.528 55.9972 533.014 56.4116 531.284 56.4116ZM531.284 53.7494C532.598 53.7494 533.68 53.4104 534.528 52.7323C535.376 52.0542 536.004 51.1627 536.412 50.0576C536.819 48.9526 537.023 47.7555 537.023 46.4663C537.023 45.1771 536.819 43.9758 536.412 42.8624C536.004 41.749 535.376 40.849 534.528 40.1626C533.68 39.4761 532.598 39.1329 531.284 39.1329C529.97 39.1329 528.889 39.4761 528.041 40.1626C527.192 40.849 526.564 41.749 526.157 42.8624C525.749 43.9758 525.546 45.1771 525.546 46.4663C525.546 47.7555 525.749 48.9526 526.157 50.0576C526.564 51.1627 527.192 52.0542 528.041 52.7323C528.889 53.4104 529.97 53.7494 531.284 53.7494Z" fill="#1C262B"></path><path d="M544.461 56.0097V36.7219H547.306V39.6352H547.505C547.855 38.6808 548.487 37.9064 549.402 37.3121C550.317 36.7177 551.348 36.4205 552.496 36.4205C552.712 36.4205 552.982 36.4247 553.307 36.4331C553.631 36.4414 553.876 36.454 554.043 36.4707V39.4845C553.943 39.4594 553.714 39.4217 553.356 39.3715C553.007 39.3129 552.637 39.2836 552.246 39.2836C551.315 39.2836 550.483 39.4803 549.751 39.8737C549.027 40.2588 548.454 40.7946 548.029 41.4811C547.614 42.1592 547.406 42.9335 547.406 43.8041V56.0097H544.461Z" fill="#1C262B"></path><path d="M544.574 135.869L621.702 31.5218L697.955 142.04C697.955 142.04 624.35 156.592 544.574 135.869Z" fill="#1C262B"></path><path d="M687.352 89.2667L730.106 137.209C730.106 137.209 693.085 147.01 649.457 147.01L687.352 89.2667Z" fill="#D54028"></path><path d="M774.772 45.2836H768.547C768.301 43.9458 767.864 42.7719 767.209 41.7617C766.554 40.7515 765.762 39.8779 764.806 39.1953C763.851 38.4855 762.813 37.9667 761.639 37.5845C760.465 37.2023 759.237 37.0385 757.926 37.0385C755.579 37.0385 753.449 37.6391 751.592 38.8131C749.736 40.0144 748.262 41.7344 747.197 44.0277C746.132 46.3211 745.586 49.1059 745.586 52.4367C745.586 55.7675 746.132 58.5796 747.197 60.873C748.262 63.1663 749.736 64.8864 751.62 66.0603C753.476 67.2343 755.578 67.8077 757.899 67.8077C759.182 67.8077 760.411 67.6438 761.585 67.2889C762.759 66.934 763.796 66.4153 764.752 65.7327C765.707 65.0502 766.499 64.2038 767.154 63.1936C767.81 62.1835 768.274 61.0368 768.519 59.7263H774.744C774.417 61.7466 773.761 63.6032 772.806 65.2959C771.85 66.9886 770.622 68.4356 769.147 69.6642C767.673 70.8655 765.98 71.821 764.069 72.4763C762.158 73.1315 760.083 73.4864 757.817 73.4864C754.268 73.4864 751.128 72.6401 748.344 70.9474C745.559 69.2547 743.375 66.8521 741.791 63.7124C740.208 60.5727 739.416 56.805 739.416 52.464C739.416 48.123 740.208 44.3281 741.818 41.2157C743.429 38.1032 745.613 35.6734 748.371 33.9807C751.128 32.2879 754.295 31.4416 757.817 31.4416C760.001 31.4416 762.022 31.7419 763.906 32.3698C765.789 32.9978 767.482 33.8988 768.984 35.1C770.485 36.3013 771.741 37.7483 772.724 39.4683C773.707 41.1883 774.362 43.1268 774.717 45.3382L774.772 45.2836Z" fill="#1C262B"></path><path d="M781.699 72.8841V42.1695H787.487V47.0565H787.815C788.361 45.4184 789.371 44.1079 790.791 43.1524C792.21 42.1968 793.821 41.7327 795.623 41.7327C796.005 41.7327 796.442 41.7327 796.961 41.76C797.48 41.76 797.889 41.8146 798.162 41.8692V47.5753C797.916 47.4934 797.507 47.4388 796.879 47.3296C796.278 47.2476 795.65 47.193 795.05 47.193C793.63 47.193 792.374 47.4934 791.282 48.094C790.19 48.6946 789.316 49.5137 788.661 50.5512C788.006 51.5886 787.706 52.7899 787.706 54.1277V72.8841H781.727H781.699Z" fill="#1C262B"></path><path d="M815.419 73.515C812.388 73.515 809.795 72.8598 807.611 71.5493C805.426 70.2661 803.761 68.4096 802.56 66.0616C801.358 63.7136 800.785 60.9289 800.785 57.7345C800.785 54.5402 801.386 51.81 802.56 49.4075C803.734 47.0049 805.399 45.1484 807.529 43.7833C809.658 42.4455 812.143 41.7629 814.982 41.7629C816.702 41.7629 818.395 42.036 820.033 42.6093C821.644 43.1826 823.118 44.0836 824.401 45.3122C825.684 46.5408 826.722 48.1243 827.459 50.09C828.196 52.0557 828.578 54.4037 828.578 57.1885V59.318H804.171V54.8405H822.708C822.708 53.257 822.381 51.8646 821.753 50.6633C821.125 49.4621 820.224 48.4792 819.05 47.7694C817.903 47.0595 816.538 46.7046 815.009 46.7046C813.317 46.7046 811.87 47.1141 810.614 47.9332C809.358 48.7522 808.402 49.817 807.747 51.1275C807.092 52.438 806.737 53.8577 806.737 55.3866V58.8812C806.737 60.9289 807.092 62.6762 807.829 64.1232C808.566 65.5702 809.576 66.6622 810.887 67.3994C812.197 68.1365 813.726 68.5188 815.474 68.5188C816.593 68.5188 817.63 68.355 818.559 68.0273C819.487 67.6997 820.306 67.2083 820.988 66.553C821.671 65.8978 822.19 65.106 822.545 64.1232L828.196 65.1333C827.732 66.7987 826.94 68.2458 825.766 69.5016C824.592 70.7575 823.145 71.7131 821.398 72.3956C819.651 73.0782 817.658 73.4331 815.419 73.4331V73.515Z" fill="#1C262B"></path><path d="M846.754 73.4871C844.269 73.4871 842.058 72.8592 840.119 71.576C838.181 70.2928 836.652 68.4909 835.56 66.1156C834.468 63.7404 833.922 60.901 833.922 57.5975C833.922 54.2939 834.468 51.4545 835.587 49.0793C836.707 46.7313 838.235 44.9021 840.174 43.6462C842.112 42.3903 844.324 41.7624 846.781 41.7624C848.692 41.7624 850.221 42.09 851.395 42.718C852.569 43.3459 853.47 44.083 854.125 44.9294C854.78 45.7758 855.272 46.5129 855.627 47.1409H855.982V31.9337H861.961V72.8592H856.118V68.0814H855.627C855.272 68.7366 854.753 69.4738 854.071 70.3201C853.415 71.1665 852.487 71.9036 851.313 72.5316C850.139 73.1595 848.61 73.4598 846.754 73.4598V73.4871ZM848.064 68.3817C849.784 68.3817 851.231 67.9176 852.432 67.0166C853.634 66.1156 854.535 64.8325 855.163 63.2216C855.791 61.5835 856.091 59.6997 856.091 57.5429C856.091 55.386 855.791 53.5568 855.163 51.946C854.535 50.3352 853.661 49.1066 852.46 48.2056C851.258 47.3047 849.811 46.8678 848.064 46.8678C846.317 46.8678 844.761 47.332 843.559 48.2602C842.358 49.1885 841.457 50.4717 840.856 52.0825C840.256 53.6933 839.956 55.5225 839.956 57.5429C839.956 59.5632 840.256 61.447 840.884 63.0851C841.512 64.7232 842.413 66.0064 843.614 66.962C844.815 67.9176 846.317 68.3817 848.091 68.3817H848.064Z" fill="#1C262B"></path><path d="M873.496 37.4461C872.459 37.4461 871.558 37.0911 870.82 36.4086C870.083 35.6987 869.701 34.8797 869.701 33.8968C869.701 32.9139 870.056 32.0676 870.82 31.3577C871.558 30.6479 872.459 30.293 873.496 30.293C874.534 30.293 875.435 30.6479 876.172 31.3577C876.909 32.0676 877.291 32.8866 877.291 33.8695C877.291 34.8524 876.936 35.6987 876.172 36.4086C875.435 37.1184 874.534 37.4461 873.496 37.4461ZM870.466 72.8839V42.1693H876.445V72.8839H870.466Z" fill="#1C262B"></path><path d="M897.437 73.5107C894.461 73.5107 891.922 72.8281 889.765 71.4904C887.636 70.1526 885.97 68.2687 884.851 65.8935C883.704 63.5182 883.131 60.788 883.131 57.7029C883.131 54.6178 883.704 51.833 884.878 49.4304C886.052 47.0552 887.69 45.1714 889.847 43.8336C891.977 42.4958 894.488 41.8132 897.382 41.8132C899.703 41.8132 901.805 42.2501 903.607 43.0964C905.436 43.9428 906.911 45.1714 908.03 46.7003C909.149 48.2565 909.832 50.0584 910.05 52.106H904.235C903.908 50.659 903.17 49.4304 902.051 48.393C900.932 47.3555 899.403 46.8368 897.492 46.8368C895.826 46.8368 894.379 47.2736 893.123 48.1473C891.867 49.0209 890.912 50.2495 890.202 51.8603C889.519 53.4711 889.165 55.355 889.165 57.5391C889.165 59.7232 889.52 61.7163 890.175 63.3271C890.857 64.9379 891.813 66.2211 893.069 67.0948C894.325 67.9957 895.772 68.4325 897.464 68.4325C898.584 68.4325 899.621 68.2141 900.549 67.8046C901.478 67.3951 902.242 66.7944 902.897 66.0027C903.525 65.2109 903.962 64.2554 904.235 63.1633H910.05C909.832 65.1563 909.204 66.9309 908.112 68.4871C907.047 70.0433 905.6 71.2719 903.798 72.1729C901.996 73.0739 899.867 73.5107 897.437 73.5107Z" fill="#1C262B"></path><path d="M929.382 73.515C926.515 73.515 924.004 72.8598 921.847 71.522C919.69 70.2115 918.024 68.355 916.851 65.9797C915.677 63.6044 915.076 60.8469 915.076 57.6526C915.076 54.4583 915.677 51.6735 916.851 49.2983C918.024 46.923 919.69 45.0665 921.847 43.756C924.004 42.4455 926.515 41.7629 929.382 41.7629C932.249 41.7629 934.76 42.4182 936.917 43.756C939.074 45.0665 940.74 46.923 941.914 49.2983C943.087 51.6735 943.688 54.4583 943.688 57.6526C943.688 60.8469 943.087 63.6044 941.914 65.9797C940.74 68.355 939.074 70.2115 936.917 71.522C934.76 72.8325 932.276 73.515 929.382 73.515ZM929.382 68.4915C931.239 68.4915 932.795 68 934.023 67.0172C935.252 66.0343 936.153 64.7238 936.754 63.0857C937.354 61.4476 937.654 59.6457 937.654 57.6799C937.654 55.7142 937.354 53.9123 936.754 52.2742C936.153 50.636 935.252 49.2983 934.023 48.3154C932.795 47.3325 931.239 46.8138 929.382 46.8138C927.525 46.8138 925.942 47.3052 924.713 48.3154C923.485 49.3256 922.557 50.636 921.983 52.2742C921.41 53.9123 921.082 55.7142 921.082 57.6799C921.082 59.6457 921.383 61.4476 921.983 63.0857C922.584 64.7238 923.485 66.0343 924.713 67.0172C925.942 68 927.498 68.4915 929.382 68.4915Z" fill="#1C262B"></path><path d="M950.357 72.8841V42.1695H956.145V47.0565H956.473C957.019 45.4184 958.029 44.1079 959.449 43.1524C960.869 42.1968 962.479 41.7327 964.281 41.7327C964.664 41.7327 965.1 41.7327 965.619 41.76C966.138 41.76 966.547 41.8146 966.82 41.8692V47.5753C966.575 47.4934 966.165 47.4388 965.537 47.3296C964.937 47.2476 964.309 47.193 963.708 47.193C962.288 47.193 961.032 47.4934 959.94 48.094C958.848 48.6946 957.975 49.5137 957.319 50.5512C956.664 51.5886 956.364 52.7899 956.364 54.1277V72.8841H950.385H950.357Z" fill="#1C262B"></path><path d="M971.961 84.4062V42.1975H977.803V47.1664H978.295C978.65 46.5385 979.141 45.8013 979.797 44.955C980.452 44.1086 981.353 43.3715 982.527 42.7435C983.673 42.1156 985.23 41.788 987.113 41.788C989.598 41.788 991.809 42.4159 993.748 43.6718C995.686 44.9277 997.215 46.7296 998.334 49.1049C999.454 51.4528 1000 54.2922 1000 57.623C1000 60.9539 999.454 63.7933 998.334 66.1412C997.215 68.5165 995.713 70.3184 993.775 71.6016C991.837 72.8848 989.625 73.5127 987.168 73.5127C985.312 73.5127 983.783 73.2124 982.609 72.5845C981.435 71.9565 980.506 71.2194 979.851 70.373C979.196 69.5267 978.677 68.7895 978.322 68.1343H977.967V84.4335H971.988L971.961 84.4062ZM977.831 57.5411C977.831 59.698 978.131 61.5818 978.759 63.2199C979.387 64.858 980.288 66.1139 981.489 67.0149C982.69 67.9158 984.138 68.38 985.858 68.38C987.578 68.38 989.134 67.9158 990.335 66.9603C991.536 66.0047 992.437 64.7215 993.065 63.0834C993.693 61.4453 993.993 59.5888 993.993 57.5411C993.993 55.4935 993.693 53.6916 993.092 52.0808C992.492 50.47 991.564 49.1868 990.362 48.2585C989.161 47.3302 987.659 46.8661 985.858 46.8661C984.056 46.8661 982.663 47.3029 981.462 48.2039C980.261 49.1049 979.36 50.3334 978.759 51.9443C978.131 53.5551 977.831 55.4116 977.831 57.5411Z" fill="#1C262B"></path><path d="M774.772 107.857H768.547C768.301 106.519 767.864 105.345 767.209 104.335C766.554 103.325 765.762 102.451 764.806 101.768C763.851 101.059 762.813 100.54 761.639 100.158C760.465 99.7755 759.237 99.6116 757.926 99.6116C755.579 99.6116 753.449 100.212 751.592 101.386C749.736 102.588 748.262 104.308 747.197 106.601C746.132 108.894 745.586 111.679 745.586 115.01C745.586 118.341 746.132 121.153 747.197 123.446C748.262 125.74 749.736 127.46 751.62 128.634C753.476 129.808 755.578 130.381 757.899 130.381C759.182 130.381 760.411 130.217 761.585 129.862C762.759 129.507 763.796 128.988 764.752 128.306C765.707 127.623 766.499 126.777 767.154 125.767C767.81 124.757 768.274 123.61 768.519 122.299H774.744C774.417 124.32 773.761 126.176 772.806 127.869C771.85 129.562 770.622 131.009 769.147 132.237C767.673 133.439 765.98 134.394 764.069 135.049C762.158 135.705 760.083 136.06 757.817 136.06C754.268 136.06 751.128 135.213 748.344 133.521C745.559 131.828 743.375 129.425 741.791 126.286C740.208 123.146 739.416 119.378 739.416 115.037C739.416 110.696 740.208 106.901 741.818 103.789C743.429 100.676 745.613 98.2466 748.371 96.5538C751.128 94.8611 754.295 94.0148 757.817 94.0148C760.001 94.0148 762.022 94.3151 763.906 94.943C765.789 95.571 767.482 96.4719 768.984 97.6732C770.485 98.8745 771.741 100.321 772.724 102.042C773.707 103.762 774.362 105.7 774.717 107.911L774.772 107.857Z" fill="#1C262B"></path><path d="M790.623 136.141C788.684 136.141 786.91 135.786 785.353 135.049C783.797 134.311 782.541 133.274 781.613 131.882C780.712 130.489 780.248 128.796 780.248 126.776C780.248 125.056 780.576 123.609 781.258 122.49C781.913 121.37 782.814 120.497 783.961 119.841C785.08 119.186 786.364 118.695 787.756 118.367C789.148 118.04 790.568 117.794 792.042 117.603C793.872 117.384 795.373 117.221 796.52 117.084C797.667 116.947 798.486 116.702 799.032 116.401C799.55 116.074 799.823 115.555 799.823 114.845V114.709C799.823 112.961 799.332 111.596 798.349 110.641C797.366 109.685 795.919 109.194 793.981 109.194C792.042 109.194 790.377 109.631 789.23 110.532C788.084 111.433 787.292 112.415 786.855 113.48L781.231 112.197C781.886 110.34 782.869 108.812 784.152 107.665C785.435 106.518 786.937 105.672 788.602 105.153C790.268 104.634 792.042 104.361 793.899 104.361C795.127 104.361 796.438 104.498 797.803 104.798C799.195 105.071 800.479 105.617 801.68 106.354C802.881 107.119 803.864 108.184 804.656 109.603C805.448 111.023 805.83 112.825 805.83 115.064V135.458H799.987V131.254H799.741C799.359 132.018 798.786 132.783 797.994 133.52C797.23 134.257 796.22 134.885 795.018 135.376C793.817 135.868 792.37 136.113 790.65 136.113L790.623 136.141ZM791.933 131.336C793.571 131.336 794.991 131.008 796.192 130.353C797.366 129.697 798.267 128.851 798.895 127.786C799.523 126.722 799.823 125.602 799.823 124.374V120.415C799.605 120.633 799.195 120.824 798.595 120.988C797.994 121.179 797.312 121.316 796.52 121.452C795.755 121.561 794.991 121.698 794.254 121.78C793.517 121.862 792.916 121.971 792.425 122.026C791.278 122.162 790.213 122.408 789.258 122.763C788.302 123.118 787.538 123.609 786.992 124.264C786.418 124.92 786.145 125.766 786.145 126.831C786.145 128.305 786.691 129.424 787.783 130.189C788.875 130.953 790.268 131.308 791.961 131.308L791.933 131.336Z" fill="#1C262B"></path><path d="M813.727 146.982V104.773H819.569V109.742H820.061C820.415 109.114 820.907 108.377 821.562 107.531C822.217 106.684 823.118 105.947 824.292 105.319C825.439 104.691 826.995 104.364 828.879 104.364C831.363 104.364 833.575 104.992 835.513 106.248C837.452 107.503 838.981 109.305 840.1 111.681C841.219 114.029 841.765 116.868 841.765 120.199C841.765 123.53 841.219 126.369 840.1 128.717C838.981 131.092 837.479 132.894 835.541 134.177C833.602 135.461 831.391 136.089 828.934 136.089C827.077 136.089 825.548 135.788 824.374 135.16C823.2 134.532 822.272 133.795 821.617 132.949C820.961 132.102 820.443 131.365 820.088 130.71H819.733V147.009H813.754L813.727 146.982ZM819.596 120.117C819.596 122.274 819.897 124.158 820.525 125.796C821.153 127.434 822.054 128.69 823.255 129.591C824.456 130.492 825.903 130.956 827.623 130.956C829.343 130.956 830.899 130.492 832.101 129.536C833.302 128.581 834.203 127.297 834.831 125.659C835.459 124.021 835.759 122.165 835.759 120.117C835.759 118.069 835.459 116.267 834.858 114.657C834.257 113.046 833.329 111.763 832.128 110.834C830.927 109.906 829.425 109.442 827.623 109.442C825.821 109.442 824.429 109.879 823.228 110.78C822.026 111.681 821.125 112.909 820.525 114.52C819.897 116.131 819.596 117.987 819.596 120.117Z" fill="#1C262B"></path><path d="M851.488 100.024C850.451 100.024 849.55 99.6695 848.813 98.987C848.076 98.2771 847.693 97.458 847.693 96.4752C847.693 95.4923 848.048 94.646 848.813 93.9361C849.55 93.2263 850.451 92.8713 851.488 92.8713C852.526 92.8713 853.427 93.2263 854.164 93.9361C854.901 94.646 855.283 95.465 855.283 96.4479C855.283 97.4308 854.928 98.2771 854.164 98.987C853.427 99.6968 852.526 100.024 851.488 100.024ZM848.458 135.462V104.748H854.437V135.462H848.458Z" fill="#1C262B"></path><path d="M876.812 104.774V109.579H860.049V104.774H876.812ZM864.554 97.4298H870.533V126.479C870.533 127.653 870.697 128.499 871.052 129.1C871.406 129.673 871.843 130.083 872.389 130.274C872.935 130.492 873.536 130.574 874.191 130.574C874.683 130.574 875.092 130.547 875.447 130.465C875.802 130.383 876.075 130.356 876.293 130.301L877.358 135.243C877.003 135.379 876.512 135.516 875.884 135.652C875.256 135.789 874.437 135.871 873.481 135.898C871.898 135.898 870.451 135.652 869.086 135.052C867.721 134.451 866.629 133.55 865.782 132.322C864.936 131.093 864.526 129.564 864.526 127.708V97.4298H864.554Z" fill="#1C262B"></path><path d="M892.355 136.141C890.417 136.141 888.642 135.786 887.086 135.049C885.53 134.311 884.274 133.274 883.346 131.882C882.445 130.489 881.98 128.796 881.98 126.776C881.98 125.056 882.308 123.609 882.991 122.49C883.646 121.37 884.547 120.497 885.693 119.841C886.813 119.186 888.096 118.695 889.488 118.367C890.881 118.04 892.3 117.794 893.775 117.603C895.604 117.384 897.106 117.221 898.252 117.084C899.399 116.947 900.218 116.702 900.764 116.401C901.283 116.074 901.556 115.555 901.556 114.845V114.709C901.556 112.961 901.064 111.596 900.081 110.641C899.099 109.685 897.652 109.194 895.713 109.194C893.775 109.194 892.109 109.631 890.963 110.532C889.816 111.433 889.024 112.415 888.587 113.48L882.963 112.197C883.619 110.34 884.601 108.812 885.885 107.665C887.168 106.518 888.669 105.672 890.335 105.153C892 104.634 893.775 104.361 895.631 104.361C896.86 104.361 898.17 104.498 899.535 104.798C900.928 105.071 902.211 105.617 903.412 106.354C904.614 107.119 905.596 108.184 906.388 109.603C907.18 111.023 907.562 112.825 907.562 115.064V135.458H901.72V131.254H901.474C901.092 132.018 900.518 132.783 899.727 133.52C898.962 134.257 897.952 134.885 896.751 135.376C895.549 135.868 894.102 136.113 892.382 136.113L892.355 136.141ZM893.666 131.336C895.304 131.336 896.723 131.008 897.925 130.353C899.099 129.697 900 128.851 900.628 127.786C901.255 126.722 901.556 125.602 901.556 124.374V120.415C901.337 120.633 900.928 120.824 900.327 120.988C899.727 121.179 899.044 121.316 898.252 121.452C897.488 121.561 896.723 121.698 895.986 121.78C895.249 121.862 894.648 121.971 894.157 122.026C893.01 122.162 891.946 122.408 890.99 122.763C890.034 123.118 889.27 123.609 888.724 124.264C888.151 124.92 887.878 125.766 887.878 126.831C887.878 128.305 888.424 129.424 889.516 130.189C890.608 130.953 892 131.308 893.693 131.308L893.666 131.336Z" fill="#1C262B"></path><path d="M921.44 94.5374V135.463H915.461V94.5374H921.44Z" fill="#1C262B"></path><path fill-rule="evenodd" clip-rule="evenodd" d="M33.8678 31.9862H33.8465H32.8417H31.8299V0.0065918H55.3515V10.2389H55.3728V31.9862L87.1797 31.9862V55.5647H55.3711V54.56V53.5553V33.9956V32.9909V31.9862L54.361 31.9862H53.3563H33.8678ZM31.8513 33.9957V53.5554V54.5601V55.5648H0V31.9862H31.83V32.991L31.8513 33.9957ZM87.1241 124.455C80.0341 125.46 73.7636 125.681 68.4907 125.125H68.448C63.3532 124.569 59.769 122.36 57.4888 118.391C56.2703 116.261 55.6148 113.631 55.5293 110.56C55.4224 107.325 55.3725 103.52 55.3725 103.385V55.5721H54.3678H53.3631H33.8747H32.8699H31.8652V104.411C31.8652 106.107 31.9507 111.494 32.1289 116.211C32.307 121.12 33.6395 125.973 36.0765 130.626C38.8198 135.913 42.9883 139.861 48.4465 142.34C53.755 144.763 59.9186 146.103 66.7663 146.331C67.6214 146.352 68.4764 146.366 69.3386 146.366C75.3241 146.366 81.4165 145.761 87.4733 144.563L88.2856 144.407V124.291L87.1241 124.455Z" fill="#1C262B"></path><path d="M314.452 57.9024L312.535 53.7839V54.1686C308.537 47.0146 303.2 41.1502 296.631 36.7038C288.842 31.4594 279.864 28.9085 269.183 28.9085C258.587 28.9085 249.516 31.5378 242.22 36.7181C241.471 37.2454 240.745 37.8297 240.061 38.4069V0H216.539V144.585H237.617V135.721C239.213 137.267 240.78 138.592 242.362 139.725C249.559 144.913 258.965 147.649 269.575 147.649C280.042 147.649 289.213 145.006 296.83 139.782C304.447 134.574 310.39 127.391 314.494 118.434C318.663 109.406 320.687 99.5087 320.687 88.1648C320.687 76.9705 318.584 66.7809 314.452 57.9024ZM292.676 107.646C290.538 113.325 287.268 117.914 282.957 121.277C278.631 124.655 273.287 126.294 266.625 126.294C259.834 126.294 254.248 124.676 250.022 121.484C245.754 118.263 242.59 113.767 240.631 108.124C238.628 102.373 237.609 95.6609 237.609 88.1719C237.609 80.6402 238.635 73.935 240.666 68.2274C242.683 62.5555 245.811 58.0948 249.958 54.9667C254.084 51.8386 259.442 50.2496 265.884 50.2496C272.724 50.2496 278.418 51.9383 282.793 55.2731C287.203 58.6364 290.524 63.2039 292.654 68.8545C294.821 74.5906 295.925 81.0891 295.925 88.1719L295.939 88.97C295.868 95.8248 294.764 102.102 292.676 107.646Z" fill="#1C262B"></path><path d="M429.045 74.4693C429.017 70.137 428.81 66.0682 428.433 62.3701C428.005 58.2087 426.865 54.2327 425.055 50.563C421.578 43.0669 415.984 37.5089 408.438 34.0388C400.985 30.6042 392.142 28.8656 382.159 28.8656C369.255 28.8656 358.73 31.7586 350.892 37.4662C343.047 43.1738 337.667 50.9763 334.895 60.6386L334.624 61.5863L356.514 68.3128L356.806 67.3437C358.63 61.3369 361.794 57.1542 366.462 54.5533C371.129 51.9454 376.33 50.6271 381.938 50.6271C390.831 50.6271 397.144 52.6365 400.707 56.5912C403.621 59.8334 405.31 64.7358 405.738 71.1702L394.151 72.809C387.282 73.7639 380.677 74.8042 374.506 75.8873C368.321 76.9704 362.664 78.253 357.683 79.7137C351.982 81.5521 347.059 84.0318 343.047 87.0816C339.057 90.1313 335.993 93.8936 333.947 98.2616C331.917 102.587 330.891 107.696 330.891 113.439C330.891 119.596 332.366 125.332 335.273 130.469C338.187 135.642 342.541 139.846 348.213 142.953C353.892 146.053 360.982 147.628 369.29 147.628C379.772 147.628 388.722 145.497 395.876 141.3C400.458 138.628 404.569 135.008 408.132 130.533V144.571H429.102V74.4479H429.045V74.4693ZM405.688 91.1432C405.659 92.3545 405.609 93.6656 405.552 95.0978L405.51 96.1097C405.346 100.057 404.69 103.684 403.529 106.99C402.738 110.446 401.049 113.824 398.491 117.023C395.947 120.237 392.513 122.923 388.287 125.004C384.104 127.07 378.981 128.125 373.067 128.125C368.67 128.125 365.036 127.434 362.243 126.073C359.514 124.74 357.448 122.916 356.108 120.664C354.754 118.384 354.092 115.962 354.092 113.247C354.092 110.532 354.711 108.202 355.937 106.321C357.177 104.404 358.901 102.751 361.046 101.397C363.319 99.9931 365.891 98.7818 368.656 97.8198C372.069 96.751 376.045 95.8175 380.47 95.0409C384.468 94.3354 389.092 93.6015 395.455 92.6466L397.465 92.3545C400.08 91.9768 402.83 91.5707 405.688 91.1432Z" fill="#1C262B"></path><path d="M182.877 32.0079L152.344 113.311L120.606 32.6279L120.357 31.9866H95.8378L141.007 143.138L133.518 163.304C131.622 168.527 128.722 172.011 124.882 173.65C118.967 176.18 112.711 173.472 112.654 173.444L111.6 172.98L106.248 191.201L107.082 191.55C111.899 193.552 118.013 193.873 121.369 193.873C122.815 193.873 123.749 193.816 123.848 193.808C144.962 193.808 153.063 172.275 153.135 172.075L206.755 32.0079H182.877Z" fill="#1C262B"></path></svg>