<svg xmlns="http://www.w3.org/2000/svg" width="117" height="37" viewBox="0 0 117 37" fill="none"><path d="M58.8122 8.43483H57.324C57.2667 8.11635 57.1596 7.8375 57.004 7.59534C56.8484 7.35318 56.6576 7.14771 56.4316 6.9804C56.2071 6.81162 55.9561 6.6854 55.6772 6.59881C55.3999 6.51369 55.1049 6.46966 54.7937 6.46966C54.2301 6.46966 53.7267 6.61055 53.2835 6.89381C52.8388 7.17706 52.4895 7.5924 52.2341 8.13837C51.9788 8.68433 51.8511 9.35357 51.8511 10.1417C51.8511 10.9298 51.9788 11.6079 52.2341 12.1538C52.491 12.7013 52.8403 13.1137 53.2864 13.394C53.7311 13.6743 54.2331 13.8137 54.7893 13.8137C55.0961 13.8137 55.3911 13.7712 55.6684 13.6875C55.9458 13.6039 56.1983 13.4791 56.4243 13.3133C56.6503 13.1474 56.8426 12.9464 56.9996 12.7057C57.1581 12.4664 57.2652 12.1905 57.3269 11.8779L58.8151 11.8823C58.7358 12.3622 58.5817 12.804 58.3557 13.2061C58.1268 13.6083 57.8376 13.9546 57.4825 14.2467C57.1288 14.5373 56.7237 14.7633 56.2687 14.9218C55.8137 15.0818 55.3177 15.161 54.7805 15.161C53.9351 15.161 53.1822 14.96 52.5203 14.5578C51.8584 14.1557 51.3389 13.5789 50.9573 12.8289C50.5771 12.079 50.3878 11.1837 50.3878 10.1446C50.3878 9.10554 50.5786 8.20588 50.9602 7.45738C51.3418 6.70888 51.8643 6.13357 52.5247 5.73144C53.1866 5.3293 53.9381 5.12823 54.7805 5.12823C55.2986 5.12823 55.7829 5.20308 56.232 5.34985C56.6826 5.49808 57.0862 5.71382 57.4458 5.99855C57.8053 6.28327 58.1018 6.62963 58.3381 7.0391C58.5729 7.44711 58.7314 7.91382 58.8151 8.43923L58.8122 8.43483Z" fill="#E9ECEE"></path><path d="M60.462 15.0264V7.70144H61.8402V8.86528H61.9165C62.05 8.47049 62.2863 8.16081 62.6239 7.93333C62.9615 7.70585 63.3474 7.59137 63.776 7.59137C63.8641 7.59137 63.9712 7.59577 64.093 7.60164C64.2148 7.60898 64.3117 7.61632 64.3821 7.62513V8.99003C64.3249 8.97389 64.2222 8.95628 64.0769 8.93573C63.9301 8.91518 63.7833 8.90491 63.638 8.90491C63.3005 8.90491 63.0011 8.97535 62.7398 9.11772C62.4771 9.25861 62.2702 9.45381 62.1161 9.7033C61.9634 9.9528 61.8886 10.2375 61.8886 10.5545V15.0279H60.462V15.0264Z" fill="#E9ECEE"></path><path d="M68.7778 15.1747C68.0557 15.1747 67.4349 15.0206 66.9168 14.7095C66.3973 14.3998 65.9966 13.9624 65.7148 13.3974C65.433 12.8324 65.2921 12.1704 65.2921 11.4117C65.2921 10.6529 65.433 9.9998 65.7148 9.42742C65.9951 8.85504 66.3914 8.40888 66.8963 8.08747C67.4041 7.76605 67.9985 7.60608 68.678 7.60608C69.0919 7.60608 69.4925 7.67359 69.88 7.81155C70.2689 7.94804 70.6168 8.16378 70.925 8.45584C71.2332 8.7479 71.4768 9.12802 71.6559 9.59327C71.832 10.06 71.923 10.625 71.923 11.2884V11.7933H66.0979V10.7248H70.5243C70.5243 10.3491 70.448 10.0174 70.2953 9.72535C70.1427 9.43476 69.9284 9.20581 69.654 9.03703C69.3795 8.86825 69.0581 8.78459 68.6897 8.78459C68.2876 8.78459 67.9398 8.88293 67.6433 9.07812C67.3454 9.27332 67.1179 9.52722 66.9564 9.8413C66.7965 10.1539 66.7157 10.4944 66.7157 10.8598V11.6949C66.7157 12.1851 66.8023 12.6005 66.9755 12.9439C67.1502 13.2873 67.3909 13.5486 67.702 13.7291C68.0146 13.9081 68.3786 13.9991 68.7939 13.9991C69.064 13.9991 69.3105 13.961 69.5336 13.8817C69.7567 13.8039 69.949 13.6865 70.1104 13.5309C70.2719 13.3754 70.3966 13.1831 70.4817 12.9542L71.8305 13.1978C71.7234 13.5955 71.5311 13.9434 71.2523 14.2398C70.9749 14.5363 70.6256 14.7682 70.2073 14.9311C69.789 15.094 69.315 15.1762 68.7793 15.1762L68.7778 15.1747Z" fill="#E9ECEE"></path><path d="M76.2544 15.169C75.6629 15.169 75.136 15.0179 74.6737 14.7141C74.2114 14.4103 73.8489 13.9773 73.5877 13.4123C73.325 12.8487 73.1943 12.1692 73.1943 11.3781C73.1943 10.5871 73.3264 9.90901 73.5921 9.3469C73.8562 8.78333 74.2232 8.35331 74.6869 8.05391C75.1507 7.75451 75.6776 7.60628 76.2647 7.60628C76.7196 7.60628 77.0866 7.68113 77.3639 7.8323C77.6428 7.98346 77.8571 8.15958 78.0126 8.35918C78.1667 8.55878 78.2871 8.73636 78.3722 8.889H78.4588V5.25952H79.8839V15.0267H78.4911V13.8878H78.3722C78.2856 14.0434 78.1638 14.2209 78.0024 14.422C77.8424 14.6231 77.6222 14.7963 77.3419 14.946C77.0616 15.0957 76.6991 15.1705 76.2544 15.1705V15.169ZM76.5699 13.9524C76.9794 13.9524 77.3273 13.8438 77.612 13.6265C77.8967 13.4079 78.1124 13.1055 78.2607 12.7181C78.4089 12.3306 78.4808 11.8786 78.4808 11.3634C78.4808 10.8483 78.4089 10.4095 78.2621 10.0279C78.1168 9.6463 77.9011 9.34984 77.6178 9.13556C77.3346 8.92275 76.9853 8.81562 76.5685 8.81562C76.1517 8.81562 75.7818 8.92716 75.4941 9.15024C75.2094 9.37185 74.9937 9.67565 74.8498 10.0616C74.7046 10.4462 74.6326 10.8806 74.6326 11.3634C74.6326 11.8463 74.7046 12.2925 74.8528 12.6843C74.9981 13.0762 75.2153 13.3844 75.503 13.6119C75.7906 13.8394 76.1458 13.9524 76.5685 13.9524H76.5699Z" fill="#E9ECEE"></path><path d="M82.6366 6.57167C82.3886 6.57167 82.1758 6.48801 81.9997 6.3207C81.8235 6.15339 81.7355 5.95379 81.7355 5.7219C81.7355 5.49002 81.8235 5.28601 81.9997 5.1187C82.1758 4.95139 82.3886 4.86774 82.6366 4.86774C82.8846 4.86774 83.0975 4.95139 83.2721 5.1187C83.4482 5.28601 83.5363 5.48708 83.5363 5.7219C83.5363 5.95673 83.4482 6.15339 83.2721 6.3207C83.0975 6.48801 82.8846 6.57167 82.6366 6.57167ZM81.916 15.0267V7.70175H83.3426V15.0267H81.916Z" fill="#E9ECEE"></path><path d="M88.3455 15.1749C87.6367 15.1749 87.0261 15.0135 86.5154 14.6906C86.0061 14.3677 85.6128 13.9215 85.3398 13.3521C85.0653 12.7841 84.9288 12.131 84.9288 11.3972C84.9288 10.6634 85.0697 9.99558 85.3486 9.42467C85.6274 8.85376 86.0222 8.4076 86.5315 8.08618C87.0408 7.76477 87.6396 7.6048 88.3309 7.6048C88.8871 7.6048 89.3817 7.70753 89.8191 7.913C90.2535 8.11847 90.6072 8.40466 90.8743 8.77304C91.1429 9.14142 91.3029 9.5729 91.3528 10.066H89.9658C89.888 9.7226 89.7149 9.42614 89.4433 9.17958C89.1718 8.93155 88.8078 8.8068 88.3529 8.8068C87.9551 8.8068 87.6073 8.911 87.3108 9.1194C87.0129 9.32781 86.781 9.62427 86.6181 10.0059C86.4523 10.3889 86.3701 10.8424 86.3701 11.3634C86.3701 11.8844 86.4523 12.3585 86.6137 12.7459C86.7766 13.1349 87.0056 13.4357 87.302 13.6471C87.5985 13.8599 87.9493 13.967 88.3543 13.967C88.6259 13.967 88.8709 13.9171 89.0911 13.8159C89.3112 13.7161 89.4976 13.5722 89.6488 13.3844C89.8 13.1965 89.9057 12.9705 89.9673 12.7063H91.3542C91.3029 13.1804 91.1502 13.603 90.8919 13.9744C90.6336 14.3471 90.2902 14.6392 89.8587 14.852C89.4287 15.0663 88.9238 15.172 88.3455 15.172V15.1749Z" fill="#E9ECEE"></path><path d="M95.9671 15.1749C95.2802 15.1749 94.6814 15.0179 94.1692 14.7038C93.657 14.3897 93.2593 13.9479 92.9775 13.3829C92.6928 12.8164 92.5519 12.1545 92.5519 11.3987C92.5519 10.6428 92.6928 9.97357 92.9775 9.40413C93.2593 8.83468 93.657 8.39292 94.1692 8.07738C94.6814 7.76183 95.2802 7.6048 95.9671 7.6048C96.654 7.6048 97.2528 7.76183 97.765 8.07738C98.2772 8.39145 98.6749 8.83468 98.9582 9.40413C99.2414 9.97357 99.3823 10.6369 99.3823 11.3987C99.3823 12.1604 99.2414 12.8164 98.9582 13.3829C98.6749 13.9479 98.2772 14.3882 97.765 14.7038C97.2528 15.0179 96.654 15.1749 95.9671 15.1749ZM95.97 13.9788C96.4162 13.9788 96.7846 13.8614 97.0767 13.6265C97.3687 13.3917 97.5859 13.0776 97.7283 12.6872C97.8707 12.2954 97.9411 11.8654 97.9411 11.3957C97.9411 10.9261 97.8721 10.4975 97.7283 10.1057C97.5859 9.71233 97.3702 9.39825 97.0767 9.15903C96.7846 8.9198 96.4162 8.80093 95.97 8.80093C95.5239 8.80093 95.1511 8.9198 94.8561 9.15903C94.5611 9.39679 94.3454 9.71233 94.203 10.1057C94.0606 10.499 93.9902 10.929 93.9902 11.3957C93.9902 11.8624 94.0621 12.2968 94.203 12.6872C94.3439 13.0791 94.5611 13.3917 94.8561 13.6265C95.1496 13.8628 95.5224 13.9788 95.97 13.9788Z" fill="#E9ECEE"></path><path d="M100.97 15.0265V7.7015H102.348V8.86534H102.424C102.558 8.47055 102.794 8.16088 103.131 7.93339C103.47 7.70591 103.854 7.59143 104.284 7.59143C104.373 7.59143 104.479 7.59583 104.601 7.6017C104.722 7.60904 104.818 7.61638 104.89 7.62519V8.99009C104.832 8.97395 104.73 8.95634 104.584 8.93579C104.439 8.91524 104.292 8.90497 104.147 8.90497C103.81 8.90497 103.51 8.97542 103.247 9.11778C102.986 9.25867 102.778 9.45387 102.627 9.70337C102.472 9.95286 102.398 10.2376 102.398 10.5546V15.028H100.971L100.97 15.0265Z" fill="#E9ECEE"></path><path d="M106.13 17.7738V7.70141H107.523V8.88874H107.642C107.724 8.7361 107.843 8.55998 108 8.35892C108.155 8.15785 108.373 7.9832 108.649 7.83203C108.926 7.68087 109.291 7.60602 109.745 7.60602C110.336 7.60602 110.865 7.75572 111.328 8.05365C111.792 8.35158 112.158 8.78307 112.423 9.34664C112.689 9.90875 112.823 10.5868 112.823 11.3779C112.823 12.1689 112.69 12.8484 112.426 13.412C112.162 13.977 111.8 14.41 111.339 14.7138C110.878 15.0176 110.351 15.1688 109.76 15.1688C109.315 15.1688 108.952 15.0939 108.671 14.9442C108.389 14.7945 108.169 14.6199 108.009 14.4203C107.85 14.2192 107.728 14.0416 107.642 13.8861H107.557V17.7738H106.13ZM107.527 11.3632C107.527 11.8783 107.604 12.3289 107.752 12.7178C107.903 13.1053 108.117 13.4091 108.399 13.6263C108.684 13.8435 109.03 13.9521 109.44 13.9521C109.849 13.9521 110.222 13.8391 110.507 13.6116C110.793 13.3841 111.01 13.0744 111.158 12.6841C111.306 12.2922 111.381 11.8519 111.381 11.3632C111.381 10.8745 111.308 10.4459 111.164 10.0614C111.019 9.67686 110.803 9.37306 110.515 9.14998C110.228 8.9269 109.87 8.81535 109.44 8.81535C109.01 8.81535 108.676 8.92249 108.393 9.1353C108.108 9.34811 107.893 9.64604 107.746 10.0276C107.601 10.4092 107.526 10.8539 107.526 11.3632H107.527Z" fill="#E9ECEE"></path><path d="M58.8122 23.1804H57.324C57.2667 22.862 57.1596 22.5831 57.004 22.3409C56.8484 22.0988 56.6576 21.8948 56.4316 21.7245C56.2071 21.5572 55.9561 21.4295 55.6772 21.343C55.3999 21.2564 55.1049 21.2138 54.7937 21.2138C54.2301 21.2138 53.7267 21.3547 53.2835 21.6379C52.8388 21.9212 52.4895 22.3351 52.2341 22.8825C51.9788 23.4299 51.8511 24.0977 51.8511 24.8858C51.8511 25.674 51.9788 26.3505 52.2341 26.898C52.491 27.4439 52.8403 27.8578 53.2864 28.1381C53.7311 28.417 54.2331 28.5579 54.7893 28.5579C55.0961 28.5579 55.3911 28.5153 55.6684 28.4317C55.9458 28.348 56.1983 28.2218 56.4243 28.0574C56.6503 27.8916 56.8426 27.689 56.9996 27.4498C57.1581 27.2106 57.2652 26.9332 57.3269 26.6235L58.8151 26.6279C58.7358 27.1078 58.5817 27.5496 58.3557 27.9517C58.1268 28.3539 57.8376 28.7002 57.4825 28.9908C57.1288 29.2814 56.7237 29.5074 56.2687 29.6659C55.8137 29.8245 55.3177 29.9052 54.7805 29.9052C53.9351 29.9052 53.1822 29.7041 52.5203 29.302C51.8584 28.8998 51.3389 28.3231 50.9573 27.5731C50.5771 26.8231 50.3878 25.9279 50.3878 24.8888C50.3878 23.8497 50.5786 22.95 50.9602 22.2015C51.3418 21.453 51.8643 20.8777 52.5247 20.4756C53.1866 20.0734 53.9381 19.8724 54.7805 19.8724C55.2986 19.8724 55.7829 19.9458 56.232 20.094C56.6826 20.2422 57.0862 20.458 57.4458 20.7427C57.8053 21.0274 58.1018 21.3738 58.3381 21.7818C58.5729 22.1912 58.7314 22.6565 58.8151 23.1819L58.8122 23.1804Z" fill="#E9ECEE"></path><path d="M62.5928 29.9332C62.129 29.9332 61.7092 29.8466 61.3335 29.6734C60.9578 29.5003 60.6613 29.2478 60.4441 28.9176C60.2269 28.5874 60.1183 28.1809 60.1183 27.7009C60.1183 27.2885 60.1975 26.948 60.356 26.6809C60.516 26.4138 60.7303 26.2025 61.0003 26.0469C61.2704 25.8913 61.5727 25.7739 61.9074 25.6947C62.2405 25.6139 62.581 25.5552 62.9288 25.5141C63.3677 25.4628 63.7228 25.4202 63.9973 25.3879C64.2703 25.3542 64.4684 25.2999 64.5932 25.2236C64.7164 25.1472 64.7796 25.024 64.7796 24.8508V24.817C64.7796 24.4002 64.6636 24.0788 64.4303 23.8484C64.1969 23.6194 63.8491 23.5049 63.3882 23.5049C62.9274 23.5049 62.5296 23.6106 62.2552 23.822C61.9807 24.0333 61.7914 24.2681 61.6857 24.525L60.3458 24.2197C60.5057 23.775 60.7376 23.4154 61.0444 23.141C61.3511 22.8651 61.7048 22.6655 62.1055 22.5392C62.5062 22.413 62.9274 22.3499 63.3691 22.3499C63.6612 22.3499 63.9723 22.3851 64.3011 22.4526C64.6299 22.5216 64.9381 22.6464 65.2257 22.8269C65.5134 23.0089 65.7497 23.2657 65.9331 23.6018C66.1166 23.9379 66.2105 24.3723 66.2105 24.9065V29.7703H64.8177V28.7694H64.7605C64.6695 28.9528 64.5286 29.1348 64.3451 29.3124C64.1602 29.49 63.9239 29.6382 63.6348 29.7556C63.3471 29.873 62.9993 29.9317 62.5957 29.9317L62.5928 29.9332ZM62.9024 28.7885C63.2958 28.7885 63.6348 28.7107 63.9151 28.5551C64.1969 28.3995 64.4112 28.1941 64.5594 27.9416C64.7076 27.6877 64.781 27.4177 64.781 27.1286V26.1849C64.7311 26.2348 64.6313 26.2817 64.4875 26.3258C64.3422 26.3683 64.1793 26.405 63.9944 26.4358C63.8094 26.4666 63.6304 26.4931 63.4543 26.5165C63.2811 26.54 63.1343 26.5606 63.0169 26.5767C62.7395 26.6119 62.4871 26.6706 62.2611 26.7528C62.0336 26.835 61.8531 26.9539 61.7166 27.108C61.583 27.2621 61.514 27.4661 61.514 27.7215C61.514 28.0737 61.6446 28.3408 61.9044 28.5199C62.1657 28.6989 62.4974 28.7899 62.901 28.7899L62.9024 28.7885Z" fill="#E9ECEE"></path><path d="M68.108 32.5182V22.4458H69.5008V23.6331H69.6197C69.7034 23.4805 69.8223 23.3044 69.9778 23.1048C70.1334 22.9037 70.3506 22.7291 70.6265 22.5779C70.9039 22.4267 71.2694 22.3519 71.7243 22.3519C72.3158 22.3519 72.8427 22.5016 73.3079 22.801C73.7702 23.1004 74.1372 23.5304 74.4013 24.0925C74.667 24.6561 74.7991 25.3326 74.7991 26.1237C74.7991 26.9148 74.6684 27.5928 74.4043 28.1579C74.1401 28.7229 73.7776 29.1559 73.3167 29.4597C72.8559 29.7635 72.329 29.9146 71.7375 29.9146C71.2928 29.9146 70.9303 29.8398 70.6471 29.6915C70.3653 29.5418 70.1466 29.3672 69.9866 29.1661C69.8281 28.9651 69.7048 28.7875 69.6182 28.6319H69.5331V32.5182H68.1066H68.108ZM69.5052 26.109C69.5052 26.6242 69.5801 27.0747 69.7298 27.4637C69.878 27.8526 70.0952 28.1549 70.3785 28.3721C70.6618 28.5893 71.0081 28.6994 71.4161 28.6994C71.8241 28.6994 72.1999 28.5849 72.486 28.3589C72.7722 28.1314 72.9895 27.8218 73.1377 27.4314C73.2859 27.041 73.3593 26.5992 73.3593 26.1105C73.3593 25.6218 73.2874 25.1932 73.1421 24.8087C72.9968 24.4242 72.781 24.1204 72.4934 23.8973C72.2057 23.6742 71.8461 23.5627 71.4161 23.5627C70.9861 23.5627 70.6544 23.6698 70.3697 23.8826C70.085 24.0954 69.8692 24.3934 69.7239 24.7749C69.5772 25.1565 69.5052 25.6012 69.5052 26.1105V26.109Z" fill="#E9ECEE"></path><path d="M77.1171 21.3153C76.869 21.3153 76.6562 21.2317 76.4801 21.0658C76.304 20.8985 76.2159 20.6989 76.2159 20.467C76.2159 20.2351 76.304 20.0311 76.4801 19.8638C76.6562 19.698 76.869 19.6143 77.1171 19.6143C77.3651 19.6143 77.5765 19.698 77.7526 19.8638C77.9287 20.0311 78.0167 20.2322 78.0167 20.467C78.0167 20.7018 77.9287 20.8985 77.7526 21.0658C77.5765 21.2317 77.3636 21.3153 77.1171 21.3153ZM76.3965 29.7704V22.4454H77.823V29.7704H76.3965Z" fill="#E9ECEE"></path><path d="M83.1601 22.4455V23.5903H79.1593V22.4455H83.1601ZM80.2307 20.6902H81.6573V27.6204C81.6573 27.8964 81.6983 28.1048 81.7805 28.2427C81.8642 28.3807 81.9713 28.4746 82.1034 28.5245C82.2355 28.5744 82.3779 28.5979 82.5349 28.5979C82.6494 28.5979 82.7492 28.5906 82.8358 28.5744C82.9224 28.5583 82.9884 28.5451 83.0368 28.5363L83.2937 29.7148C83.2115 29.7456 83.0926 29.7793 82.9414 29.8131C82.7873 29.8469 82.598 29.8645 82.3676 29.8674C81.9933 29.8733 81.644 29.8072 81.3197 29.6663C80.9939 29.5269 80.7326 29.3112 80.5316 29.0176C80.332 28.7241 80.2307 28.3572 80.2307 27.9154V20.6902Z" fill="#E9ECEE"></path><path d="M86.864 29.9333C86.4002 29.9333 85.9805 29.8467 85.6047 29.6736C85.2305 29.5004 84.934 29.2479 84.7153 28.9177C84.4981 28.5875 84.3881 28.181 84.3881 27.7011C84.3881 27.2886 84.4688 26.9482 84.6273 26.681C84.7858 26.4139 85.0001 26.2026 85.2701 26.047C85.5402 25.8915 85.8425 25.774 86.1771 25.6948C86.5103 25.6141 86.8508 25.5554 87.1972 25.5143C87.6374 25.4629 87.9926 25.4203 88.2656 25.3881C88.5401 25.3543 88.7367 25.3 88.8629 25.2237C88.9862 25.1474 89.0493 25.0241 89.0493 24.8509V24.8171C89.0493 24.4003 88.9319 24.0789 88.6971 23.8485C88.4637 23.6195 88.1159 23.5051 87.6551 23.5051C87.1942 23.5051 86.7965 23.6107 86.522 23.8221C86.2476 24.0334 86.0582 24.2682 85.9526 24.5251L84.6111 24.2198C84.7711 23.7751 85.003 23.4155 85.3097 23.1411C85.6165 22.8652 85.9702 22.6656 86.3709 22.5394C86.7715 22.4131 87.1927 22.35 87.6345 22.35C87.9266 22.35 88.2377 22.3853 88.5679 22.4528C88.8967 22.5218 89.2034 22.6465 89.4926 22.827C89.7802 23.009 90.0165 23.2658 90.2 23.6019C90.3849 23.938 90.4759 24.3724 90.4759 24.9067V29.7704H89.0831V28.7695H89.0273C88.9349 28.953 88.7969 29.1349 88.612 29.3125C88.4285 29.4901 88.1908 29.6383 87.9016 29.7558C87.6125 29.8732 87.2647 29.9319 86.8625 29.9319L86.864 29.9333ZM87.1737 28.7886C87.5685 28.7886 87.906 28.7108 88.1878 28.5552C88.4681 28.3997 88.6839 28.1942 88.8307 27.9417C88.9789 27.6878 89.0523 27.4178 89.0523 27.1287V26.185C89.0009 26.2349 88.904 26.2818 88.7587 26.3259C88.6134 26.3684 88.4505 26.4051 88.2656 26.436C88.0807 26.4668 87.9002 26.4932 87.727 26.5167C87.5523 26.5402 87.4056 26.5607 87.2881 26.5768C87.0122 26.6121 86.7583 26.6708 86.5323 26.753C86.3048 26.8351 86.1243 26.954 85.9878 27.1081C85.8528 27.2622 85.7853 27.4662 85.7853 27.7216C85.7853 28.0738 85.9159 28.3409 86.1771 28.52C86.4384 28.6991 86.7701 28.79 87.1737 28.79V28.7886Z" fill="#E9ECEE"></path><path d="M93.8046 20.0047V29.7719H92.3781V20.0047H93.8046Z" fill="#E9ECEE"></path><path d="M49.5696 29.7833L38.9791 17.7193L28.3077 32.2401C35.6034 32.1521 42.7157 31.3097 49.5696 29.7833Z" fill="#E9ECEE"></path><path d="M28.3089 32.2389L35.6985 22.1841L22.7098 4.51813L4.19824 29.7131C11.5424 31.373 19.1874 32.2565 27.0408 32.2565L28.3089 32.2389Z" fill="url(#paint0_linear_4457_16968)"></path><defs><linearGradient id="paint0_linear_4457_16968" x1="14.4631" y1="18.3389" x2="29.3603" y2="39.0076" gradientUnits="userSpaceOnUse"><stop stop-color="#E9ECEE"></stop><stop offset="0.26" stop-color="#E6E9EB"></stop><stop offset="0.39" stop-color="#DFE2E4"></stop><stop offset="0.49" stop-color="#D2D5D6"></stop><stop offset="0.58" stop-color="#C0C2C4"></stop><stop offset="0.65" stop-color="#A8AAAB"></stop><stop offset="0.72" stop-color="#8B8C8E"></stop><stop offset="0.79" stop-color="#68696A"></stop><stop offset="0.85" stop-color="#3F4041"></stop><stop offset="0.9" stop-color="#131313"></stop><stop offset="0.92"></stop></linearGradient></defs></svg>