<svg width="49" height="49" viewBox="0 0 49 49" fill="none" xmlns="http://www.w3.org/2000/svg">
<rect x="9" y="22" width="31" height="21" rx="1.5" fill="#E6EEFF" stroke="#28363E"/>
<path d="M13.6602 28.2198C13.6602 27.7014 14.0803 27.2812 14.5987 27.2812H21.7216C22.24 27.2812 22.6602 27.7014 22.6602 28.2198V42.9479H13.6602V28.2198Z" fill="#2E71E5" stroke="#28363E"/>
<path d="M26 28.2198C26 27.7014 26.4202 27.2812 26.9385 27.2812H35.7281C36.2465 27.2812 36.6667 27.7014 36.6667 28.2198V35.3427C36.6667 35.8611 36.2465 36.2812 35.7281 36.2812H26.9385C26.4202 36.2812 26 35.8611 26 35.3427V28.2198Z" fill="#A8C7FF" stroke="#28363E"/>
<path d="M34.0333 19.4102C32.7205 19.4102 31.6562 18.3459 31.6562 17.0331V9.45387C31.6562 8.14107 32.7205 7.07683 34.0333 7.07683H34.9459C36.2587 7.07683 37.3229 8.14106 37.3229 9.45387V17.0331C37.3229 18.3459 36.2587 19.4102 34.9459 19.4102H34.0333Z" fill="#2E71E5" stroke="#28363E"/>
<path d="M5 22.2643C5 22.0758 5.08371 21.8971 5.2285 21.7764L23.8992 6.21753L23.5791 5.83342L23.8992 6.21753C24.2472 5.92749 24.7528 5.92749 25.1008 6.21753L25.4205 5.83396L25.1008 6.21753L43.7715 21.7764C43.9163 21.8971 44 22.0758 44 22.2643C44 22.615 43.7157 22.8993 43.365 22.8993H5.63504C5.28432 22.8993 5 22.615 5 22.2643Z" fill="#A8C7FF" stroke="#28363E"/>
</svg>
