<svg xmlns="http://www.w3.org/2000/svg" width="64" height="64" viewBox="0 0 64 64" fill="none"><rect x="8.08538" y="16.6186" width="48.0071" height="31.4738" rx="1.87022" stroke="#C7DBFF" stroke-width="0.526222" stroke-dasharray="1.07 1.07"></rect><path d="M32.0889 11.6892C43.5026 11.6892 52.7557 20.9415 52.7559 32.3552C52.7559 43.7691 43.5028 53.0222 32.0889 53.0222C20.6751 53.022 11.4229 43.769 11.4229 32.3552C11.423 20.9416 20.6752 11.6894 32.0889 11.6892Z" fill="#A8C7FF" stroke="#28363E" stroke-width="1.33333"></path><circle cx="32" cy="32.3555" r="15.3333" fill="#E6EEFF" stroke="#28363E" stroke-width="1.33333"></circle><circle cx="32.0009" cy="32.3554" r="11.0667" fill="#F9FAFB" stroke="#28363E" stroke-width="1.33333"></circle><path d="M32.6427 36.8535C32.6427 36.8535 32.6427 36.9186 32.6427 36.8535V37.5705C32.6427 37.9616 32.3867 38.2223 32.0027 38.2223C31.6187 38.2223 31.3627 37.9616 31.3627 37.5705V36.9186C31.3627 36.9186 31.3627 36.9186 31.3627 36.8535C29.7627 36.6579 28.8027 35.7453 28.8027 34.3112C28.8027 33.9201 29.0587 33.6594 29.4427 33.6594C29.8267 33.6594 30.0827 33.9201 30.0827 34.3112C30.0827 34.6372 30.0827 35.6149 32.0027 35.6149C33.2187 35.6149 33.9227 34.9631 33.9227 34.3112C33.9227 33.9853 33.9227 33.3335 31.8747 33.0075C30.4667 32.6164 28.8027 32.2253 28.8027 30.4001C28.8027 28.9661 29.7627 28.0535 31.3627 27.8579C31.3627 27.8579 31.3627 27.8579 31.3627 27.7927V27.1409C31.3627 26.7498 31.6187 26.489 32.0027 26.489C32.3867 26.489 32.6427 26.7498 32.6427 27.1409V27.7927C32.6427 27.7927 32.6427 27.7927 32.6427 27.8579C34.6267 28.1186 34.8827 29.4875 34.8827 30.0742C34.8827 30.4653 34.6267 30.7261 34.2427 30.7261C33.8587 30.7261 33.6027 30.4653 33.6027 30.0742C33.6027 29.8135 33.6027 29.0964 32.0027 29.0964C30.0827 29.0964 30.0827 30.0742 30.0827 30.4001C30.0827 31.1172 30.7227 31.3779 32.1307 31.7038C33.4107 31.8994 35.2027 32.4209 35.2027 34.3112C35.2027 35.4194 34.2427 36.5927 32.6427 36.8535Z" fill="#2E71E5"></path><path fill-rule="evenodd" clip-rule="evenodd" d="M53.5195 41.9556L53.9312 42.7081L54.6837 43.1198L53.9312 43.5313L53.5195 44.2838L53.108 43.5313L52.3555 43.1198L53.108 42.7081L53.5195 41.9556Z" fill="#F65D46"></path><path fill-rule="evenodd" clip-rule="evenodd" d="M50.3203 32.3555L50.732 33.108L51.4845 33.5197L50.732 33.9312L50.3203 34.6837L49.9088 33.9312L49.1562 33.5197L49.9088 33.108L50.3203 32.3555Z" fill="#2E71E5"></path><path fill-rule="evenodd" clip-rule="evenodd" d="M17.2539 51.2888L17.6655 52.0414L18.418 52.4531L17.6655 52.8646L17.2539 53.6171L16.8424 52.8646L16.0898 52.4531L16.8424 52.0414L17.2539 51.2888Z" fill="#2E71E5"></path><path fill-rule="evenodd" clip-rule="evenodd" d="M15.9549 23.0222L16.4735 23.9702L17.4216 24.4891L16.4735 25.0072L15.9549 25.9556L15.4364 25.0072L14.4883 24.4891L15.4364 23.9702L15.9549 23.0222Z" fill="#2E71E5"></path><path fill-rule="evenodd" clip-rule="evenodd" d="M11.2893 44.3555L11.6664 45.0449L12.356 45.4223L11.6664 45.7991L11.2893 46.4888L10.9122 45.7991L10.2227 45.4223L10.9122 45.0449L11.2893 44.3555Z" fill="#F65D46"></path><path fill-rule="evenodd" clip-rule="evenodd" d="M46.7553 50.4888L47.4153 51.6953L48.622 52.3557L47.4153 53.0151L46.7553 54.2221L46.0954 53.0151L44.8887 52.3557L46.0954 51.6953L46.7553 50.4888Z" fill="#F65D46"></path><path fill-rule="evenodd" clip-rule="evenodd" d="M49.2889 12.3555L49.8074 13.3035L50.7556 13.8222L49.8074 14.3405L49.2889 15.2888L48.7704 14.3405L47.8223 13.8222L48.7704 13.3035L49.2889 12.3555Z" fill="#A8C7FF"></path><path fill-rule="evenodd" clip-rule="evenodd" d="M16.1856 9.95557L16.5971 10.7081L17.3497 11.1196L16.5971 11.5312L16.1856 12.2839L15.774 11.5312L15.0215 11.1196L15.774 10.7081L16.1856 9.95557Z" fill="#F65D46"></path></svg>