<svg xmlns="http://www.w3.org/2000/svg" width="27" height="322" viewBox="0 0 27 322" fill="none"><path d="M12.3977 211.252C12.3977 212.827 11.2949 214.088 9.87713 214.088L9.87713 213.143C11.2949 213.143 11.61 212.04 11.61 210.622C11.61 209.519 10.9799 208.259 9.87713 208.259C8.93192 208.259 8.61686 209.047 8.30179 209.834C7.82918 211.41 7.35658 213.773 5.30863 213.773C3.73329 213.773 2.78809 212.197 2.78809 210.622C2.78809 209.362 3.26069 207.629 4.99357 207.471V208.417C3.89083 208.417 3.57576 209.519 3.57576 210.464C3.57576 211.41 4.04836 212.67 5.1511 212.67C7.67165 212.67 6.56891 207.156 9.71959 207.156C11.7675 207.471 12.3977 209.362 12.3977 211.252Z" fill="white"></path><path d="M3.10352 204.481H8.93229C10.5076 204.481 11.6104 203.378 11.6104 201.803C11.6104 200.228 10.6652 199.125 8.93229 199.125H3.10352L3.10352 198.18H8.93229C10.8227 198.18 12.398 199.44 12.398 201.803C12.398 204.166 10.9802 205.269 8.93229 205.426H3.10352V204.481Z" fill="white"></path><path d="M12.2405 195.658H3.10352L3.10352 193.138C3.10352 191.247 3.57612 189.199 5.62407 189.199C7.82955 189.199 8.30215 191.247 8.14461 193.138L8.14461 194.713H12.083V195.658H12.2405ZM7.51448 194.713L7.51448 192.507C7.51448 191.247 7.19941 189.987 5.62407 189.987C4.20626 189.987 3.73365 191.09 3.73365 192.507L3.73365 194.713H7.51448Z" fill="white"></path><path d="M12.2405 187.308H3.10352L3.10352 181.479H3.89119L3.89119 186.363H7.19941L7.19941 181.637H7.98708L7.98708 186.363H11.6104L11.6104 181.164H12.398L12.398 187.308H12.2405Z" fill="white"></path><path d="M12.2405 178.171V179.116H3.10352L3.10352 175.966C3.10352 175.178 3.10352 174.39 3.57612 173.603C3.89119 172.973 4.67886 172.658 5.46653 172.658C6.41174 172.658 7.19941 173.445 7.35694 174.548C7.51448 173.288 8.30215 172.973 9.40489 172.973C10.8227 172.815 11.6104 172.815 12.083 172.5V173.445C11.4528 173.603 10.8227 173.76 10.1926 173.76C8.14461 173.918 7.67201 174.075 7.67201 175.808L7.67201 178.171H12.2405ZM7.19941 176.281C7.19941 175.021 7.19941 173.445 5.62407 173.445C3.89119 173.445 4.04872 175.178 4.04872 176.123L4.04872 178.171H7.19941L7.19941 176.281Z" fill="white"></path><path d="M12.2405 169.98H3.10352L3.10352 169.035H12.2405V169.98Z" fill="white"></path><path d="M3.10352 166.356V165.411L11.1378 160.055H3.10352L3.10352 159.109H12.2405V160.212L4.36379 165.411H12.2405V166.356H3.10352Z" fill="white"></path><path d="M3.89119 154.54L3.89119 157.691H3.10352L3.10352 150.602H3.89119L3.89119 153.752H12.2405V154.697L3.89119 154.54Z" fill="white"></path><path d="M12.2405 149.027H3.10352L3.10352 143.198H3.89119L3.89119 148.081H7.19941L7.19941 143.355H7.98708L7.98708 148.081H11.6104L11.6104 142.883H12.398L12.398 149.027H12.2405Z" fill="white"></path><path d="M3.10352 140.836V139.891L11.1378 134.535H3.10352L3.10352 133.59H12.2405V134.693L4.36379 139.891H12.2405V140.836H3.10352Z" fill="white"></path><path d="M3.10352 128.549C3.10352 125.398 4.67886 123.508 7.67201 123.508C10.6652 123.508 12.2405 125.398 12.2405 128.549V131.227H3.10352L3.10352 128.549ZM11.4528 128.234C11.4528 125.556 9.87749 124.295 7.67201 124.295C4.99393 124.295 3.73365 126.028 3.89119 128.706L3.89119 130.124H11.4528V128.234Z" fill="white"></path><path d="M12.2405 121.144H3.10352L3.10352 115.315H3.89119L3.89119 120.199H7.19941L7.19941 115.473H7.98708L7.98708 120.199H11.6104L11.6104 115H12.398L12.398 121.144H12.2405Z" fill="white"></path><path d="M3.10352 113.11V112.165L11.1378 106.808H3.10352L3.10352 105.863H12.2405V106.966L4.36379 112.165H12.2405V113.11H3.10352Z" fill="white"></path><path d="M5.3093 97.1991C4.20656 97.3567 3.73396 98.4594 3.73396 99.5621C3.73396 102.083 5.78191 102.87 7.67232 102.87C9.56273 102.87 11.6107 102.083 11.6107 99.5621C11.6107 98.4594 11.1381 97.3567 10.0353 97.1991V96.2539C11.6107 96.569 12.3983 97.9868 12.3983 99.5621C12.3983 102.555 10.1929 103.816 7.67232 103.816C5.15177 103.816 2.94629 102.555 2.94629 99.5621C2.94629 97.9868 3.57643 96.4114 5.3093 96.2539V97.1991Z" fill="white"></path><path d="M12.2405 94.0468H3.10352L3.10352 93.1016H12.2405V94.0468Z" fill="white"></path><path d="M12.2405 91.6865L3.10352 87.7481L3.10352 86.6454L12.2405 82.707V83.6522L9.71996 84.755L9.71996 89.6385L12.2405 90.7413L12.2405 91.6865ZM9.08982 85.2276L3.89119 87.2755L9.08982 89.481L9.08982 85.2276Z" fill="white"></path><path d="M12.2405 77.666H3.10352L3.10352 72.1523H3.89119L3.89119 76.7208H7.04187L7.04187 72.3099H7.82954L7.82954 76.7208H12.2405V77.666Z" fill="white"></path><path d="M12.2405 70.1015H3.10352L3.10352 69.1562H12.2405V70.1015Z" fill="white"></path><path d="M3.10352 66.481V65.5357L11.1378 60.1796H3.10352L3.10352 59.2344H12.2405V60.3371L4.36379 65.5357H12.2405V66.481H3.10352Z" fill="white"></path><path d="M12.2405 57.8141L3.10352 53.8758L3.10352 52.9305L12.2405 48.9922V49.9374L9.71996 51.0401L9.71996 55.9237L12.2405 56.8689L12.2405 57.8141ZM9.08982 51.3552L3.89119 53.4032L9.08982 55.6086L9.08982 51.3552Z" fill="white"></path><path d="M3.10352 47.7349V46.7897L11.1378 41.4335H3.10352L3.10352 40.4883H12.2405V41.591L4.36379 46.7897H12.2405V47.7349H3.10352Z" fill="white"></path><path d="M5.3093 31.8202C4.20656 31.9777 3.73396 33.0805 3.73396 34.1832C3.73396 36.7038 5.78191 37.4914 7.67232 37.4914C9.56273 37.4914 11.6107 36.7038 11.6107 34.1832C11.6107 33.0805 11.1381 31.9777 10.0353 31.8202V30.875C11.6107 31.1901 12.3983 32.6079 12.3983 34.1832C12.3983 37.1764 10.1929 38.4367 7.67232 38.4367C5.15177 38.4367 2.94629 37.1764 2.94629 34.1832C2.94629 32.6079 3.57643 31.0325 5.3093 30.875V31.8202Z" fill="white"></path><path d="M12.2405 28.6718L3.10352 28.6718L3.10352 27.7266L12.2405 27.7266V28.6718Z" fill="white"></path><path d="M12.2405 25.0462L3.10352 25.0462L3.10352 19.2174H3.89119L3.89119 24.101H7.19941L7.19941 19.375H7.98708L7.98708 24.101L11.6104 24.101L11.6104 18.9023H12.398L12.398 25.0462H12.2405Z" fill="white"></path><path d="M12.2405 15.9095V16.8547L3.10352 16.8547L3.10352 13.704C3.10352 12.9164 3.10352 12.1287 3.57612 11.341C3.89119 10.7109 4.67886 10.3958 5.46653 10.3958C6.41174 10.3958 7.19941 11.1835 7.35694 12.2862C7.51448 11.026 8.30215 10.7109 9.40489 10.7109C10.8227 10.5534 11.6104 10.5533 12.083 10.2383V11.1835C11.4528 11.341 10.8227 11.4986 10.1926 11.4986C8.14461 11.6561 7.67201 11.8136 7.67201 13.5465L7.67201 15.9095L12.2405 15.9095ZM7.19941 14.0191C7.19941 12.7588 7.19941 11.1835 5.62407 11.1835C3.89119 11.1835 4.04872 12.9164 4.04872 13.8616L4.04872 15.9095H7.19941L7.19941 14.0191Z" fill="white"></path><path d="M12.2405 8.97946L3.10352 5.0411L3.10352 3.93836L12.2405 0V0.94521L9.71996 2.04795L9.71996 6.93151L12.2405 8.03425L12.2405 8.97946ZM9.08982 2.52055L3.89119 4.5685L9.08982 6.77398L9.08982 2.52055Z" fill="white"></path><path d="M15.7051 150.604C15.7051 147.453 17.2804 145.562 20.2736 145.562C23.2667 145.562 24.8421 147.453 24.8421 150.604V153.282H15.7051V150.604ZM24.0544 150.446C24.0544 147.768 22.4791 146.508 20.2736 146.508C17.5955 146.508 16.3352 148.241 16.4927 150.919L16.4927 152.336H24.0544V150.446Z" fill="white"></path><path d="M24.8421 143.355H15.7051L15.7051 137.526H16.4927V142.41H19.801V137.684H20.5886V142.41H24.2119V137.211H24.9996V143.355H24.8421Z" fill="white"></path><path d="M17.9109 125.396C16.8081 125.553 16.3355 126.656 16.3355 127.759C16.3355 130.279 18.3835 131.067 20.2739 131.067C22.1643 131.067 24.2122 130.279 24.2122 127.759C24.2122 126.656 23.7396 125.553 22.6369 125.396V124.293C24.2122 124.608 24.9999 126.026 24.9999 127.601C24.9999 130.594 22.7944 131.855 20.2739 131.855C17.7533 131.855 15.5479 130.594 15.5479 127.601C15.5479 126.026 16.178 124.451 17.9109 124.293V125.396Z" fill="white"></path><path d="M24.9999 118.466C24.9999 121.301 23.1095 122.877 20.2739 122.877C17.4383 122.877 15.5479 121.301 15.5479 118.466C15.5479 115.63 17.4383 114.055 20.2739 114.055C23.1095 114.055 24.9999 115.63 24.9999 118.466ZM24.2122 118.466C24.2122 116.103 22.1643 115 20.2739 115C18.2259 115 16.3355 115.945 16.3355 118.466C16.3355 120.829 18.3835 121.931 20.2739 121.931C22.3218 121.931 24.2122 120.829 24.2122 118.466Z" fill="white"></path><path d="M24.8421 111.848H15.7051V110.903H24.0544V106.02H24.8421V111.848Z" fill="white"></path><path d="M24.9999 100.505C24.9999 103.34 23.1095 104.916 20.2739 104.916C17.4383 104.916 15.5479 103.34 15.5479 100.505C15.5479 97.6691 17.4383 96.0938 20.2739 96.0938C23.1095 96.0938 24.9999 97.6691 24.9999 100.505ZM24.2122 100.505C24.2122 98.1417 22.1643 97.039 20.2739 97.039C18.2259 97.039 16.3355 97.9842 16.3355 100.505C16.3355 102.868 18.3835 103.97 20.2739 103.97C22.3218 103.813 24.2122 102.868 24.2122 100.505Z" fill="white"></path><path d="M24.8421 93.8882H15.7051V92.4704L23.5818 88.8471L15.7051 85.0662V83.6484H24.8421V84.5937H16.4927L24.8421 88.3745V89.3197L16.4927 93.1005H24.8421V93.8882Z" fill="white"></path><path d="M24.8421 81.1308H15.7051V77.665C15.7051 76.2472 16.4927 74.9869 17.9106 74.9869C18.8558 74.9869 19.801 75.7746 19.9585 76.8774C20.116 75.6171 20.9037 74.6719 22.3215 74.6719C23.5818 74.6719 24.6845 75.4596 24.6845 77.5075V81.1308H24.8421ZM19.801 78.1376C19.801 77.0349 19.3284 75.9322 18.2256 75.9322C16.9654 75.9322 16.6503 77.0349 16.6503 78.2952V80.1856H19.801V78.1376ZM24.0544 80.1856V77.9801C24.0544 76.2472 23.5818 75.302 22.3215 75.302C20.7462 75.302 20.5886 76.5623 20.5886 78.4527V80.028H24.0544V80.1856Z" fill="white"></path><path d="M24.8421 71.9921H15.7051V71.0469H24.8421V71.9921Z" fill="white"></path><path d="M24.8421 69.4716L15.7051 65.5333V64.4305L24.8421 60.4922V61.4374L22.3215 62.5401L22.3215 67.5812L24.8421 68.684L24.8421 69.4716ZM21.6914 63.0127L16.4927 65.0607L21.6914 67.2662V63.0127Z" fill="white"></path><path d="M22.0068 222.125H23.8972L23.8972 322.002H22.0068L22.0068 222.125Z" fill="white"></path><path d="M2 222.125H3.89041L3.89041 322.002H2L2 222.125Z" fill="white"></path><path d="M19.9591 316.485L6.41113 321.368L6.41113 318.375L16.4933 314.909L6.41113 311.601L6.41113 308.766L19.9591 313.649V316.485Z" fill="white"></path><path d="M19.9591 306.244H6.41113L6.41113 303.566H19.9591V306.244Z" fill="white"></path><path d="M14.9176 293.485H12.7121L12.7121 287.656H18.0683C18.6984 288.286 19.1711 289.074 19.4861 290.177C19.8012 291.28 20.1163 292.382 20.1163 293.485C20.1163 294.903 19.8012 296.163 19.1711 297.108C18.5409 298.054 17.7532 298.999 16.6505 299.471C15.5478 299.944 14.2875 300.259 13.0272 300.259C11.6094 300.259 10.3491 299.944 9.24639 299.314C8.14365 298.684 7.35598 297.896 6.72584 296.793C6.25324 295.848 6.0957 294.903 6.0957 293.485C6.0957 291.752 6.41077 290.492 7.19844 289.547C7.98612 288.601 8.93132 287.971 10.1916 287.656L10.6642 290.334C10.0341 290.492 9.40393 290.807 9.08886 291.437C8.77379 292.067 8.45872 292.697 8.45872 293.485C8.45872 294.745 8.77379 295.69 9.56146 296.321C10.3491 296.951 11.4519 297.423 12.8697 297.423C14.445 297.423 15.7053 297.108 16.493 296.321C17.2806 295.533 17.7532 294.745 17.7532 293.485C17.7532 292.855 17.5957 292.382 17.4382 291.752C17.2806 291.122 16.9656 290.649 16.6505 290.334H14.9176L14.9176 293.485Z" fill="white"></path><path d="M19.9591 284.034H6.41113L6.41113 281.355H19.9591V284.034Z" fill="white"></path><path d="M19.9588 277.573H6.56836L6.56836 274.895H17.7533V268.121H19.9588L19.9588 277.573Z" fill="white"></path><path d="M19.9591 252.684V255.677L16.8084 256.937L16.8084 262.293L19.9591 263.396V266.232L6.41113 261.033L6.41113 258.197L19.9591 252.684ZM14.6029 257.725L9.56182 259.615L14.6029 261.506L14.6029 257.725Z" fill="white"></path><path d="M6.41113 250.163L6.41113 245.122C6.41113 244.019 6.56867 243.074 6.7262 242.601C6.88374 241.813 7.35634 241.183 7.98648 240.553C8.61661 239.923 9.24675 239.608 10.192 239.293C11.1372 238.978 12.0824 238.82 13.3426 238.82C14.4454 238.82 15.3906 238.978 16.1783 239.293C17.1235 239.608 17.9111 240.081 18.5413 240.711C19.0139 241.183 19.3289 241.813 19.644 242.601C19.8015 243.231 19.9591 244.019 19.9591 244.964L19.9591 250.163H6.41113ZM8.77415 247.485H17.7536L17.7536 245.437C17.7536 244.649 17.7536 244.176 17.5961 243.861C17.4385 243.389 17.281 243.074 16.9659 242.759C16.6509 242.444 16.3358 242.286 15.7057 241.971C15.0755 241.656 14.2878 241.656 13.1851 241.656C12.0824 241.656 11.2947 241.813 10.8221 241.971C10.3495 242.129 9.87689 242.444 9.56182 242.759C9.24675 243.074 9.08922 243.546 8.93168 244.019C8.77415 244.334 8.77415 245.122 8.77415 246.224L8.77415 247.485Z" fill="white"></path><path d="M13.1847 235.985C11.7669 235.985 10.6642 235.828 9.71899 235.355C9.08886 235.04 8.45872 234.568 7.82858 234.095C7.19844 233.622 6.88338 232.992 6.56831 232.362C6.25324 231.575 6.0957 230.472 6.0957 229.369C6.0957 227.321 6.72584 225.746 7.98612 224.643C9.24639 223.54 10.9793 222.91 13.1847 222.91C15.3902 222.91 17.1231 223.54 18.3834 224.643C19.6437 225.746 20.2738 227.479 20.2738 229.369C20.2738 231.417 19.6437 232.992 18.3834 234.095C17.1231 235.198 15.3902 235.985 13.1847 235.985ZM13.1847 233.15C14.7601 233.15 15.8628 232.835 16.6505 232.047C17.4382 231.259 17.9108 230.472 17.9108 229.369C17.9108 228.266 17.5957 227.321 16.808 226.691C16.0204 226.061 14.9176 225.588 13.3423 225.588C11.7669 225.588 10.6642 225.903 9.87653 226.533C9.08886 227.164 8.77379 228.109 8.77379 229.212C8.77379 230.314 9.08886 231.259 9.87653 231.89C10.6642 232.52 11.6094 233.15 13.1847 233.15Z" fill="white"></path></svg>