<svg width="16" height="16" viewBox="0 0 16 16" fill="none" xmlns="http://www.w3.org/2000/svg">
<path d="M12.6339 4.03385V8.76719C12.6339 9.16719 12.3672 9.43385 11.9672 9.43385C11.5672 9.43385 11.3005 9.16719 11.3005 8.76719V5.63385L4.50052 12.4339C4.36719 12.5672 4.16719 12.6339 4.03385 12.6339C3.90052 12.6339 3.70052 12.5672 3.56719 12.4339C3.30052 12.1672 3.30052 11.7672 3.56719 11.5005L10.3672 4.70052H7.23385C6.83385 4.70052 6.56719 4.43385 6.56719 4.03385C6.56719 3.63385 6.83385 3.36719 7.23385 3.36719H11.9672C12.0339 3.36719 12.1672 3.36719 12.2339 3.43385C12.3005 3.43385 12.3672 3.50052 12.4339 3.56719C12.5005 3.63385 12.5672 3.70052 12.5672 3.76719C12.6339 3.90052 12.6339 3.96719 12.6339 4.03385Z" fill="white"/>
</svg>
