<svg xmlns="http://www.w3.org/2000/svg" width="64" height="64" viewBox="0 0 64 64" fill="none"><circle cx="31.6659" cy="32.737" r="21.0526" fill="#E6EEFF" stroke="#28363E" stroke-width="1.33333"></circle><path fill-rule="evenodd" clip-rule="evenodd" d="M16.3008 47.1263C16.8914 46.2856 17.5477 45.4928 18.2645 44.7562C20.0239 42.9479 22.1126 41.5135 24.4114 40.5348C26.7102 39.5562 29.1741 39.0525 31.6623 39.0525C34.1505 39.0525 36.6143 39.5562 38.9131 40.5348C41.2119 41.5135 43.3007 42.9479 45.0601 44.7562C45.7788 45.4949 46.4368 46.2901 47.0287 47.1334C43.1877 51.2299 37.7268 53.7893 31.6681 53.7893C25.6059 53.7893 20.1421 51.227 16.3008 47.1263Z" fill="#A8C7FF"></path><path d="M18.2645 44.7562L18.7423 45.2211L18.2645 44.7562ZM16.3008 47.1263L15.7553 46.7431L15.4437 47.1866L15.8142 47.5821L16.3008 47.1263ZM24.4114 40.5348L24.6726 41.1482L24.4114 40.5348ZM38.9131 40.5348L38.652 41.1482V41.1482L38.9131 40.5348ZM45.0601 44.7562L44.5823 45.2211L45.0601 44.7562ZM47.0287 47.1334L47.5151 47.5894L47.8858 47.194L47.5744 46.7504L47.0287 47.1334ZM18.2645 44.7562L17.7866 44.2913C17.0451 45.0535 16.3661 45.8736 15.7553 46.7431L16.3008 47.1263L16.8463 47.5095C17.4167 46.6977 18.0504 45.9322 18.7423 45.2211L18.2645 44.7562ZM24.4114 40.5348L24.1503 39.9214C21.7693 40.9351 19.6071 42.4203 17.7866 44.2913L18.2645 44.7562L18.7423 45.2211C20.4407 43.4755 22.4559 42.0919 24.6726 41.1482L24.4114 40.5348ZM31.6623 39.0525V38.3858C29.084 38.3858 26.5313 38.9078 24.1503 39.9214L24.4114 40.5348L24.6726 41.1482C26.8891 40.2046 29.2642 39.7192 31.6623 39.7192V39.0525ZM38.9131 40.5348L39.1743 39.9214C36.7932 38.9078 34.2406 38.3858 31.6623 38.3858V39.0525V39.7192C34.0604 39.7192 36.4354 40.2046 38.652 41.1482L38.9131 40.5348ZM45.0601 44.7562L45.5379 44.2913C43.7174 42.4203 41.5552 40.9351 39.1743 39.9214L38.9131 40.5348L38.652 41.1482C40.8686 42.0919 42.8839 43.4755 44.5823 45.2211L45.0601 44.7562ZM47.0287 47.1334L47.5744 46.7504C46.9623 45.8782 46.2816 45.0556 45.5379 44.2913L45.0601 44.7562L44.5823 45.2211C45.2761 45.9342 45.9114 46.7019 46.4831 47.5164L47.0287 47.1334ZM47.0287 47.1334L46.5424 46.6774C42.8222 50.6451 37.535 53.1226 31.6681 53.1226V53.7893V54.4559C37.9186 54.4559 43.5533 51.8147 47.5151 47.5894L47.0287 47.1334ZM31.6681 53.7893V53.1226C25.7978 53.1226 20.5079 50.6423 16.7873 46.6705L16.3008 47.1263L15.8142 47.5821C19.7764 51.8117 25.4139 54.4559 31.6681 54.4559V53.7893Z" fill="#28363E"></path><circle cx="31.7338" cy="28.456" r="8.2807" fill="white" stroke="#28363E" stroke-width="1.33333"></circle><path fill-rule="evenodd" clip-rule="evenodd" d="M57.3947 12.2461C57.9115 12.2461 58.3304 12.6511 58.3304 13.1506V23.1C58.3304 23.5996 57.9115 24.0045 57.3947 24.0045L50.3769 24.0044L47.4331 26.8505C47.3629 26.9183 47.2727 26.9624 47.1759 26.9773L47.1023 26.9829C46.8638 26.9829 46.667 26.8104 46.6381 26.5874L46.6345 26.5307L46.6343 24.0044L42.424 24.0045C41.9072 24.0045 41.4883 23.5996 41.4883 23.1V13.1506C41.4883 12.6511 41.9072 12.2461 42.424 12.2461H57.3947Z" fill="white" stroke="#28363E" stroke-width="1.33333"></path><path fill-rule="evenodd" clip-rule="evenodd" d="M45.7684 16.4758C46.5833 16.4758 47.2438 17.128 47.2438 17.9325C47.2438 18.737 46.5833 19.3892 45.7684 19.3892C44.9535 19.3892 44.293 18.737 44.293 17.9325C44.293 17.128 44.9535 16.4758 45.7684 16.4758ZM49.9012 16.4761C50.7161 16.4761 51.3766 17.1283 51.3766 17.9328C51.3766 18.7373 50.7161 19.3894 49.9012 19.3894C49.0864 19.3894 48.4258 18.7373 48.4258 17.9328C48.4258 17.1283 49.0864 16.4761 49.9012 16.4761ZM54.0291 16.4758C54.844 16.4758 55.5046 17.128 55.5046 17.9325C55.5046 18.737 54.844 19.3892 54.0291 19.3892C53.2143 19.3892 52.5537 18.737 52.5537 17.9325C52.5537 17.128 53.2143 16.4758 54.0291 16.4758Z" fill="#85ADFF"></path></svg>