<svg xmlns="http://www.w3.org/2000/svg" width="24" height="24" viewBox="0 0 24 24" fill="none"><path d="M12.67 2.68775L21.17 7.43775C21.4195 7.56231 21.6294 7.75398 21.776 7.99121C21.9226 8.22845 22.0002 8.50186 22 8.78075V10.2207C22 10.9107 21.44 11.4707 20.75 11.4707H20V19.4707H21C21.2652 19.4707 21.5196 19.5761 21.7071 19.7636C21.8946 19.9512 22 20.2055 22 20.4707C22 20.736 21.8946 20.9903 21.7071 21.1779C21.5196 21.3654 21.2652 21.4707 21 21.4707H3C2.73478 21.4707 2.48043 21.3654 2.29289 21.1779C2.10536 20.9903 2 20.736 2 20.4707C2 20.2055 2.10536 19.9512 2.29289 19.7636C2.48043 19.5761 2.73478 19.4707 3 19.4707H4V11.4707H3.25C2.56 11.4707 2 10.9107 2 10.2207V8.78075C2 8.25875 2.27 7.77875 2.706 7.50675L11.329 2.68775C11.5373 2.58355 11.7671 2.5293 12 2.5293C12.2329 2.5293 12.4617 2.58355 12.67 2.68775ZM18 11.4707H6V19.4707H9V14.4707C9 13.9185 9.44772 13.4707 10 13.4707C10.5523 13.4707 11 13.9185 11 14.4707V19.4707H13V14.4707C13 13.9185 13.4477 13.4707 14 13.4707C14.5523 13.4707 15 13.9185 15 14.4707V19.4707H18V11.4707ZM12 4.58875L4 9.08875V9.47075H20V9.08875L12 4.58875ZM12 6.47075C12.2652 6.47075 12.5196 6.5761 12.7071 6.76364C12.8946 6.95118 13 7.20553 13 7.47075C13 7.73596 12.8946 7.99032 12.7071 8.17785C12.5196 8.36539 12.2652 8.47075 12 8.47075C11.7348 8.47075 11.4804 8.36539 11.2929 8.17785C11.1054 7.99032 11 7.73596 11 7.47075C11 7.20553 11.1054 6.95118 11.2929 6.76364C11.4804 6.5761 11.7348 6.47075 12 6.47075Z" fill="white"></path></svg>