<svg xmlns="http://www.w3.org/2000/svg" width="68" height="68" viewBox="0 0 68 68" fill="none"><path d="M0 34C0 15.2223 15.2223 0 34 0C52.7777 0 68 15.2223 68 34C68 52.7777 52.7777 68 34 68C15.2223 68 0 52.7777 0 34Z" fill="white"></path><path d="M53.5 29.6797V49.5068C53.4998 50.9222 52.3519 52.0693 50.9365 52.0693H17.0635C15.6481 52.0693 14.5002 50.9222 14.5 49.5068V29.6797H53.5Z" fill="#E6EEFF" stroke="#253138"></path><path d="M21.4297 33.748H26.2324C26.5022 33.7481 26.7205 33.9666 26.7207 34.2363V39.0391C26.7207 39.3089 26.5023 39.5273 26.2324 39.5273H21.4297C21.16 39.5271 20.9414 39.3088 20.9414 39.0391V34.2363C20.9416 33.9668 21.1601 33.7483 21.4297 33.748Z" fill="#85ADFF" stroke="#2E71E5"></path><path d="M21.4297 43.0684H26.2324C26.5022 43.0684 26.7205 43.2869 26.7207 43.5566V48.3594C26.7207 48.6292 26.5023 48.8476 26.2324 48.8477H21.4297C21.16 48.8474 20.9414 48.6291 20.9414 48.3594V43.5566C20.9416 43.2871 21.1601 43.0686 21.4297 43.0684Z" fill="white" stroke="#2E71E5"></path><path d="M31.5996 33.748H36.4023C36.6721 33.7481 36.8904 33.9666 36.8906 34.2363V39.0391C36.8906 39.3089 36.6722 39.5273 36.4023 39.5273H31.5996C31.3299 39.5271 31.1114 39.3088 31.1113 39.0391V34.2363C31.1115 33.9668 31.33 33.7483 31.5996 33.748Z" fill="white" stroke="#2E71E5"></path><path d="M41.7676 33.748H46.5703C46.84 33.7481 47.0584 33.9666 47.0586 34.2363V39.0391C47.0586 39.3089 46.8402 39.5273 46.5703 39.5273H41.7676C41.4979 39.5271 41.2793 39.3088 41.2793 39.0391V34.2363C41.2795 33.9668 41.498 33.7483 41.7676 33.748Z" fill="#85ADFF" stroke="#2E71E5"></path><path d="M31.5996 43.0684H36.4023C36.6721 43.0684 36.8904 43.2869 36.8906 43.5566V48.3594C36.8906 48.6292 36.6722 48.8476 36.4023 48.8477H31.5996C31.3299 48.8474 31.1114 48.6291 31.1113 48.3594V43.5566C31.1115 43.2871 31.33 43.0686 31.5996 43.0684Z" fill="white" stroke="#2E71E5"></path><path d="M41.7676 43.0684H46.5703C46.84 43.0684 47.0584 43.2869 47.0586 43.5566V48.3594C47.0586 48.6292 46.8402 48.8476 46.5703 48.8477H41.7676C41.4979 48.8474 41.2793 48.6291 41.2793 48.3594V43.5566C41.2795 43.2871 41.498 43.0686 41.7676 43.0684Z" fill="#85ADFF" stroke="#2E71E5"></path><path d="M53.5 30.7715V23.8262C53.5 22.4106 52.3521 21.2627 50.9365 21.2627H17.0635C15.6479 21.2627 14.5 22.4106 14.5 23.8262V30.7715H53.5Z" fill="#A8C7FF" stroke="#253138"></path><path d="M25.7031 22.627V17.2031C25.7031 16.2625 24.9406 15.5001 24 15.5C23.0592 15.5 22.2959 16.2624 22.2959 17.2031V22.627C22.296 23.5676 23.0593 24.3301 24 24.3301C24.9405 24.3299 25.703 23.5675 25.7031 22.627Z" fill="#E6EEFF" stroke="#253138"></path><path d="M46.0449 22.627V17.2031C46.0449 16.2625 45.2824 15.5001 44.3418 15.5C43.401 15.5 42.6377 16.2624 42.6377 17.2031V22.627C42.6378 23.5676 43.4011 24.3301 44.3418 24.3301C45.2823 24.3299 46.0448 23.5675 46.0449 22.627Z" fill="#E6EEFF" stroke="#253138"></path></svg>