<svg xmlns="http://www.w3.org/2000/svg" width="32" height="32" viewBox="0 0 32 32" fill="none"><path fill-rule="evenodd" clip-rule="evenodd" d="M17.0004 11C17.0004 10.4477 16.5527 10 16.0004 10C15.4481 10 15.0004 10.4477 15.0004 11V11.1157C13.4518 11.2022 12.2227 12.4853 12.2227 14.0556C12.2227 15.6258 13.4518 16.9089 15.0004 16.9954V18.8889H13.2227C12.6704 18.8889 12.2227 19.3366 12.2227 19.8889C12.2227 20.4412 12.6704 20.8889 13.2227 20.8889H15.0004V21C15.0004 21.5523 15.4481 22 16.0004 22C16.5527 22 17.0004 21.5523 17.0004 21V20.8843C18.5491 20.7978 19.7782 19.5147 19.7782 17.9444C19.7782 16.3742 18.5491 15.0911 17.0004 15.0046V13.1111H18.7782C19.3305 13.1111 19.7782 12.6634 19.7782 12.1111C19.7782 11.5588 19.3305 11.1111 18.7782 11.1111H17.0004V11ZM14.2227 14.0556C14.2227 13.5908 14.5583 13.2045 15.0004 13.1258V14.9853C14.5583 14.9066 14.2227 14.5203 14.2227 14.0556ZM17.7782 17.9444C17.7782 18.4092 17.4425 18.7955 17.0004 18.8742V17.0147C17.4425 17.0934 17.7782 17.4797 17.7782 17.9444Z" fill="#28363E"></path><path fill-rule="evenodd" clip-rule="evenodd" d="M26 16C26 21.5228 21.5228 26 16 26C10.4772 26 6 21.5228 6 16C6 10.4772 10.4772 6 16 6C21.5228 6 26 10.4772 26 16ZM24 16C24 20.4183 20.4183 24 16 24C11.5817 24 8 20.4183 8 16C8 11.5817 11.5817 8 16 8C20.4183 8 24 11.5817 24 16Z" fill="#28363E"></path></svg>