<svg xmlns="http://www.w3.org/2000/svg" width="64" height="64" viewBox="0 0 64 64" fill="none"><circle cx="17.3922" cy="44.4484" r="11.7256" fill="#E6EEFF" stroke="#28363E" stroke-width="1.33333"></circle><path d="M20.6271 35.7367C25.4389 37.5242 27.8904 42.874 26.1028 47.6857C24.3153 52.4974 18.9655 54.949 14.1538 53.1614C9.34205 51.3739 6.8905 46.0241 8.67807 41.2124C10.4656 36.4006 15.8154 33.9491 20.6271 35.7367Z" fill="#E6EEFF"></path><path d="M20.6269 35.7361C25.4386 37.5237 27.8902 42.8735 26.1026 47.6852L8.67784 41.2118C10.4654 36.4001 15.8152 33.9485 20.6269 35.7361Z" fill="#C7DBFF"></path><ellipse cx="17.39" cy="44.4486" rx="8.14" ry="8.14002" stroke="#28363E" stroke-width="1.33333"></ellipse><path d="M17.3613 43.4463V43.4473H17.3623V46.6016C17.3623 46.6177 17.3665 46.9274 17.375 47.1875C17.3854 47.5319 17.4646 47.8632 17.6367 48.1543C17.9566 48.6945 18.4768 48.9789 19.084 49.0439L19.1543 48.3896V48.4092L19.0889 49.0439C19.3763 49.0737 19.6851 49.0757 20.0137 49.0586V49.1709C19.6872 49.2082 19.3659 49.2248 19.0498 49.2158H19.0508C18.5813 49.201 18.1858 49.1145 17.8545 48.9678H17.8535C17.5608 48.8386 17.3547 48.6469 17.2129 48.3818V48.3809L17.1162 48.1758C17.0332 47.9725 16.9909 47.7739 16.9834 47.5771C16.9695 47.2143 16.9629 46.8018 16.9629 46.6816V43.4463H17.3613ZM15.6279 41.7627V42.1162H14.835V41.7627H15.6279ZM19.4883 41.7607V42.1143H18.6963L18.6953 42.1123V41.7607H19.4883ZM17.3604 39.6992V40.4287H16.9609V39.6992H17.3604Z" fill="#536E79" stroke="#28363E" stroke-width="1.33333"></path><path d="M20.6709 8.66699C28.3545 8.66699 34.583 14.8955 34.583 22.5791C34.583 30.2627 28.3545 36.4912 20.6709 36.4912C12.9873 36.4912 6.75879 30.2627 6.75879 22.5791C6.7588 14.8955 12.9873 8.66699 20.6709 8.66699Z" fill="#E6EEFF" stroke="#28363E" stroke-width="1.33333"></path><path d="M17.8395 33.1414C12.0064 31.5784 8.54474 25.5827 10.1077 19.7496C11.6707 13.9165 17.6664 10.4549 23.4995 12.0179C29.3326 13.5808 32.7942 19.5765 31.2312 25.4096C29.6682 31.2427 23.6725 34.7044 17.8395 33.1414Z" fill="#E6EEFF"></path><path d="M17.8395 33.1413C12.0064 31.5783 8.54474 25.5826 10.1077 19.7495L31.2312 25.4095C29.6682 31.2426 23.6725 34.7043 17.8395 33.1413Z" fill="#C7DBFF"></path><path d="M20.6729 12.3125C26.3434 12.3126 30.9404 16.9095 30.9404 22.5801C30.9403 28.2506 26.3433 32.8475 20.6729 32.8477C15.0023 32.8477 10.4054 28.2506 10.4053 22.5801C10.4053 16.9094 15.0022 12.3125 20.6729 12.3125Z" stroke="#28363E" stroke-width="1.33333"></path><path d="M20.6475 21.0132V21.0151H20.6494V25.1597L20.665 25.8921C20.6774 26.3032 20.7716 26.6913 20.9707 27.0278C21.3415 27.6539 21.9432 27.9858 22.6621 28.063L22.7324 27.4097V27.438L22.668 28.064C23.0719 28.1057 23.5124 28.1044 23.9873 28.0708V28.5503C23.516 28.6123 23.0522 28.6384 22.5967 28.6255C21.9872 28.6062 21.4665 28.4928 21.0254 28.2974H21.0244C20.6215 28.1196 20.3331 27.8526 20.1357 27.4839V27.4829L20.0654 27.3442C19.914 27.0237 19.8372 26.7088 19.8252 26.395C19.8076 25.9364 19.7998 25.4154 19.7998 25.2612V21.0132H20.6475ZM18.4639 18.8931V19.6831H17.1201V18.8931H18.4639ZM23.3252 18.8901V19.6812H21.9824L21.9814 19.6792V18.8901H23.3252ZM20.6465 16.2944V17.5591H19.7979V16.2944H20.6465Z" fill="#536E79" stroke="#28363E" stroke-width="1.33333"></path><path d="M40.1104 17.8975C49.8068 17.8975 57.6678 25.7576 57.668 35.4541C57.668 45.1507 49.8069 53.0117 40.1104 53.0117C30.4139 53.0116 22.5537 45.1506 22.5537 35.4541C22.5539 25.7577 30.414 17.8976 40.1104 17.8975Z" fill="#E6EEFF" stroke="#28363E" stroke-width="1.33333"></path><path d="M49.774 45.1197C44.4363 50.4574 35.7823 50.4574 30.4446 45.1197C25.107 39.7821 25.107 31.128 30.4446 25.7904C35.7823 20.4527 44.4363 20.4527 49.774 25.7904C55.1116 31.128 55.1116 39.7821 49.774 45.1197Z" fill="#E6EEFF"></path><path d="M49.7747 45.1194C44.437 50.4571 35.783 50.4571 30.4453 45.1194L49.7747 25.79C55.1123 31.1277 55.1123 39.7817 49.7747 45.1194Z" fill="#C7DBFF"></path><path d="M40.1094 22.4541C47.2897 22.4541 53.1104 28.2747 53.1104 35.4551C53.1103 42.6354 47.2897 48.456 40.1094 48.4561C32.929 48.4561 27.1084 42.6355 27.1084 35.4551C27.1084 28.2747 32.929 22.4541 40.1094 22.4541Z" stroke="#28363E" stroke-width="1.33333"></path><path d="M40.2617 33.4067V33.4087H40.2627V38.7563L40.2832 39.6665C40.2979 40.1586 40.4098 40.6145 40.6416 41.0063C41.0743 41.7371 41.7759 42.1285 42.6309 42.2202L42.7012 41.5669V41.605L42.6377 42.2212C43.181 42.2774 43.7814 42.2738 44.4355 42.2183V43.1421C43.7876 43.2355 43.15 43.2732 42.5244 43.2554H42.5254C41.7462 43.2307 41.0734 43.086 40.499 42.8315H40.498C39.9614 42.5947 39.5724 42.2345 39.3076 41.7397V41.7388L39.2168 41.5591C39.0183 41.1393 38.9164 40.7235 38.9004 40.3071V40.3062C38.8783 39.7309 38.8682 39.0781 38.8682 38.8833V33.4067H40.2617ZM37.5322 30.7563V32.0776H35.5186V30.7563H37.5322ZM43.6094 30.7534V32.0757H41.5967V32.0728H41.5947V30.7534H43.6094ZM40.2607 27.5083V29.4224H38.8652V27.5083H40.2607Z" fill="#536E79" stroke="#28363E" stroke-width="1.33333"></path></svg>