<svg xmlns="http://www.w3.org/2000/svg" width="24" height="24" viewBox="0 0 24 24" fill="none"><path d="M21.9999 2.8C21.8999 2.4 21.4999 2 20.9999 2C20.3999 2 15.3999 2.1 13.6999 4.4C11.8999 6.8 13.3999 11.3 13.5999 11.8C13.0999 13 12.5999 14.6 12.2999 16.5C11.7999 15.7 11.1999 14.9 10.6999 14.3C11.1999 13 11.1999 10.9 9.09993 9.2C6.19993 6.9 2.79993 8 2.69993 8.1C2.29993 8.2 1.99993 8.6 1.99993 9C1.99993 9.4 1.89993 13.4 3.79993 15.2C4.69993 16.1 5.69993 16.4 6.69993 16.4C7.69993 16.4 8.59993 16.1 9.29993 15.8C10.3999 17.1 11.5999 19 12.0999 21.2C12.1999 21.7 12.5999 22 13.0999 22H13.1999C13.6999 21.9 14.0999 21.5 14.0999 21C14.0999 17 14.7999 14.3 15.5999 12.4C17.1999 12.1 20.1999 11.4 21.3999 9.6C22.6999 7.5 22.0999 3.3 21.9999 2.8ZM5.19993 13.8C4.39993 12.9 4.09993 11 3.99993 9.8C4.89993 9.7 6.49993 9.7 7.89993 10.8C8.69993 11.4 8.89993 12.1 8.99993 12.7C8.29993 12.2 7.79993 11.8 7.49993 11.7C6.99993 11.5 6.39993 11.7 6.19993 12.1C5.99993 12.6 6.19993 13.2 6.59993 13.4C6.79993 13.5 7.19993 13.8 7.79993 14.2C6.89993 14.5 5.89993 14.5 5.19993 13.8ZM19.6999 8.5C19.1999 9.2 17.9999 9.7 16.7999 10C16.9999 9.7 17.1999 9.4 17.3999 9.2C17.5999 8.9 17.7999 8.6 17.8999 8.4C18.0999 7.9 17.8999 7.3 17.4999 7.1C16.9999 6.9 16.3999 7.1 16.1999 7.5C16.1999 7.6 15.9999 7.8 15.7999 8C15.5999 8.3 15.2999 8.7 14.9999 9.1C14.7999 7.7 14.7999 6.3 15.2999 5.5C15.9999 4.5 18.3999 4.1 20.0999 3.9C20.2999 5.5 20.1999 7.6 19.6999 8.5Z" fill="#28363E"></path></svg>