<svg xmlns="http://www.w3.org/2000/svg" width="72" height="72" viewBox="0 0 72 72" fill="none"><path d="M0 36C0 16.1178 16.1178 0 36 0C55.8823 0 72 16.1178 72 36C72 55.8823 55.8823 72 36 72C16.1178 72 0 55.8823 0 36Z" fill="white"></path><path fill-rule="evenodd" clip-rule="evenodd" d="M20 39.5341C20 30.8718 27.0224 23.8496 35.6849 23.8496C44.3474 23.8496 51.3698 30.8718 51.3698 39.5341C51.3698 43.4225 51.3698 47.3129 51.3698 51.2224C51.3698 53.4305 49.5798 55.2205 47.3717 55.2205H23.998C21.79 55.2205 20 53.4305 20 51.2224C20 47.3129 20 43.4225 20 39.5341Z" fill="#E6EEFF" stroke="#28363E"></path><path d="M41.1148 16C42.1311 16 42.834 17.0159 42.4756 17.967L40.0684 24.3546C39.8549 24.921 39.3129 25.296 38.7076 25.296H33.3011C32.6958 25.296 32.1538 24.921 31.9404 24.3546L29.5332 17.967C29.1748 17.0159 29.8777 16 30.894 16L41.1148 16Z" fill="#E6EEFF" stroke="#28363E"></path><path d="M27.832 24.656C27.832 23.4167 28.8366 22.4121 30.0759 22.4121H41.9363C43.1756 22.4121 44.1802 23.4167 44.1802 24.656C44.1802 25.8952 43.1756 26.8998 41.9363 26.8998H30.0759C28.8366 26.8998 27.832 25.8952 27.832 24.656Z" fill="#A8C7FF" stroke="#28363E"></path><path d="M34.596 32.9102C32.5513 33.2112 30.7054 34.2998 29.4526 35.9434C28.1997 37.5871 27.6393 39.6555 27.891 41.7067C28.1427 43.758 29.1865 45.6296 30.7995 46.9216C32.4126 48.2136 34.4669 48.8237 36.5237 48.6215L36.1047 44.359C35.1606 44.4518 34.2177 44.1718 33.4773 43.5788C32.7369 42.9857 32.2578 42.1267 32.1423 41.1851C32.0267 40.2436 32.284 39.2942 32.859 38.5398C33.4341 37.7854 34.2813 37.2857 35.2198 37.1475L34.596 32.9102Z" fill="#2E71E5"></path><path d="M42.3663 36.3945C43.0687 37.4632 43.5017 38.6861 43.6283 39.9587C43.755 41.2312 43.5714 42.5155 43.0934 43.7016C42.6155 44.8878 41.8572 45.9405 40.8837 46.7697C39.9101 47.5989 38.7501 48.1799 37.503 48.463L36.5547 44.2863C37.1271 44.1563 37.6595 43.8897 38.1064 43.5091C38.5533 43.1285 38.9013 42.6453 39.1207 42.1008C39.3401 41.5564 39.4243 40.9669 39.3662 40.3828C39.3081 39.7987 39.1093 39.2374 38.7869 38.7469L42.3663 36.3945Z" fill="#A8C7FF"></path><path d="M35.75 32.8242C36.8589 32.8242 37.9554 33.0572 38.9686 33.508C39.9817 33.9587 40.8888 34.6173 41.6312 35.4411L38.4495 38.3084C38.1087 37.9303 37.6923 37.628 37.2273 37.4211C36.7623 37.2142 36.259 37.1073 35.75 37.1073V32.8242Z" fill="#5F90F1"></path></svg>