<svg xmlns="http://www.w3.org/2000/svg" width="32" height="32" viewBox="0 0 32 32" fill="none"><path d="M13.7071 11.1366C13.3166 10.7461 12.6834 10.7461 12.2929 11.1366L10.7071 12.7224C10.3166 13.113 9.68342 13.113 9.29289 12.7224C8.90237 12.3319 8.90237 11.6987 9.29289 11.3082L10.8787 9.72243C12.0503 8.55086 13.9497 8.55086 15.1213 9.72243L15.5398 10.1409C16.1454 9.65094 17.067 9.2545 18.1899 9.30129C19.4994 9.35586 20.953 10.005 22.4177 11.5439C22.4299 11.5567 22.4416 11.5639 22.4492 11.5674C22.4523 11.5688 22.4553 11.5696 22.4553 11.5696H24.1046C24.2685 11.241 24.6079 11.0153 25 11.0153C25.5523 11.0153 26 11.463 26 12.0153V20.0153C26 20.5676 25.5523 21.0153 25 21.0153C24.4477 21.0153 24 20.5676 24 20.0153V13.5696H22.4538C21.868 13.5696 21.3396 13.3122 20.969 12.9228C19.7686 11.6616 18.7769 11.3275 18.1067 11.2996C17.4155 11.2708 16.9247 11.5591 16.7071 11.7768L13.9142 14.5696L14.4729 15.1282L16.2929 13.3082C16.6834 12.9177 17.3166 12.9177 17.7071 13.3082C18.0358 13.6369 18.0878 14.1373 17.8633 14.5204C17.8805 14.5365 17.8975 14.5529 17.9142 14.5696L21.5742 18.2296C22.2948 18.9502 22.3584 20.0974 21.7217 20.8932L20.7471 22.1116C20.1927 22.8045 19.2106 22.93 18.5061 22.449C17.8384 22.9373 16.8961 22.8799 16.2929 22.2767L16 21.9838L15.4142 22.5696C14.6332 23.3506 13.3668 23.3507 12.5858 22.5696L10.0858 20.0696H8V20.016C7.99962 20.568 7.55205 21.0153 7 21.0153C6.44772 21.0153 6 20.5676 6 20.0153V12.0153C6 11.463 6.44772 11.0153 7 11.0153C7.55228 11.0153 8 11.463 8 12.0153V18.0696H10.0858C10.6162 18.0696 11.1249 18.2803 11.5 18.6554L14 21.1554L14.5858 20.5696C15.3668 19.7886 16.6332 19.7886 17.4142 20.5696L17.5136 20.669C18.0678 20.2615 18.8168 20.24 19.3917 20.6042L20.16 19.6438L16.5 15.9838L15.9142 16.5696C15.1332 17.3507 13.8668 17.3507 13.0858 16.5696L12.5 15.9838C11.719 15.2028 11.719 13.9364 12.5 13.1554L14.1129 11.5425L13.7071 11.1366Z" fill="#28363E"></path></svg>