<svg xmlns="http://www.w3.org/2000/svg" width="112" height="31" viewBox="0 0 112 31" fill="none"><g clip-path="url(#clip0_4457_17859)"><path d="M8.41151 22.143C8.02085 21.7715 5.94766 22.0691 5.26623 21.9616C3.63331 21.7041 4.81455 19.0113 4.22681 18.0718C3.71908 17.2601 1.12098 18.1356 0.341356 17.4043C-0.0713384 17.0172 -0.0360808 14.8353 0.0677709 14.2461C0.317738 12.8275 2.61672 13.4668 3.63704 13.3288C5.16781 13.1217 3.72157 9.97815 4.79127 9.28062C5.61463 8.74375 7.90626 9.37393 8.41151 8.89355C9.07394 8.2636 8.44405 6.13361 8.78725 5.36278C9.29091 4.23141 11.976 5.28217 12.7249 4.54301C13.5684 3.71043 12.4571 0.990293 13.5928 0.616943C14.0588 0.463829 16.6478 0.471262 16.9876 0.766855C17.683 1.37188 16.8218 3.77813 17.5967 4.54301C18.3684 5.30469 21.3331 4.13204 21.6009 5.56998C21.7658 6.45493 21.2513 8.27652 22.0008 8.87148C22.8472 9.54339 25.6837 8.31848 25.9371 9.96717C26.0542 10.7286 25.7169 12.5295 26.1532 13.0429C26.8452 13.8573 29.7515 12.57 30.2253 14.1384C30.3466 14.5398 30.3481 16.2307 30.2783 16.6772C30.0225 18.3154 27.6306 17.5103 26.5584 17.7173C25.3295 17.9546 26.4194 20.865 25.6797 21.6324C25.0529 22.2827 23.2093 21.81 22.3537 21.973C20.9755 22.2359 22.0225 25.0354 21.4113 25.8236C20.6852 26.7597 18.2069 25.7189 17.5307 26.5639C16.8155 27.4576 17.8332 30.0566 16.7288 30.4196C16.2628 30.5727 13.6738 30.5653 13.334 30.2697C12.6386 29.6646 13.4998 27.2584 12.7249 26.4935C11.976 25.7544 9.29091 26.805 8.78725 25.6737C8.44405 24.9028 9.07383 22.7729 8.41151 22.143ZM17.5693 8.89355C16.6713 8.03947 18.1196 5.09932 16.3741 4.81928C15.9228 4.7469 14.1326 4.7485 13.7293 4.8728C12.2896 5.31647 13.7269 8.26074 12.5925 8.93849C11.7437 9.44551 9.44392 8.52751 8.86861 9.56283C8.40326 10.4003 9.10898 12.6775 8.38834 13.1948C7.76082 13.6452 5.41066 12.9293 4.64979 13.6671C4.2484 14.0563 4.25529 16.8601 4.5864 17.2964C5.22408 18.1369 7.75178 17.3847 8.38834 17.8417C9.10898 18.359 8.40326 20.6361 8.86861 21.4737C9.44392 22.5091 11.7437 21.591 12.5925 22.098C13.7527 22.7911 12.2211 25.8307 13.8329 26.1962C14.2673 26.2947 15.773 26.2847 16.2492 26.2282C18.2549 25.9899 16.5431 23.0519 17.66 22.1652C18.4733 21.5194 21.2554 22.6447 21.5751 21.1853C21.7497 20.3881 21.308 18.2908 21.9335 17.8417C22.544 17.4034 24.92 18.0796 25.6394 17.4043C26.0304 17.0374 26.0261 14.9263 25.9375 14.3593C25.6865 12.7519 23.2647 13.5214 22.2176 13.3192C20.9585 13.0761 22.1404 10.0511 21.2692 9.33722C20.4854 8.69481 18.0972 9.39565 17.5693 8.89355Z" fill="white"></path><path d="M81.8339 12.7729H80.4774V7.21366C80.4774 6.82899 79.9968 5.83495 79.6676 5.56234C78.3865 4.50118 76.6456 5.38144 76.1997 6.86581C76.1668 6.97512 76.0009 7.84326 76.0009 7.89998V12.7729H74.6444V3.98786L75.8461 4.00684C76.0735 4.15081 75.8425 5.10368 76.2026 4.94748C77.5597 3.23945 80.2444 3.54785 81.3593 5.358C82.8568 3.11755 86.6456 3.2646 87.4397 6.07096C87.4876 6.24043 87.6671 7.108 87.6671 7.21354V12.5669L87.4424 12.7508C87.2707 12.7896 87.0955 12.7813 86.921 12.7813C86.643 12.7813 86.347 12.8272 86.1749 12.5669V6.80177C86.1749 6.66203 85.7172 5.77297 85.5672 5.63221C84.5055 4.63645 82.715 5.15377 82.1398 6.42487C82.0875 6.54037 81.8339 7.30193 81.8339 7.35076V12.7729Z" fill="white"></path><path d="M49.9562 4.67413L48.4579 4.61123C47.9349 2.83402 46.4415 1.78475 44.5987 1.9302C39.3279 2.3462 39.5142 12.2181 45.671 11.3885C47.1514 11.1891 47.9272 10.0543 48.5495 8.81037L49.956 8.79265C49.5183 12.2952 45.6156 13.5578 42.6326 12.4275C38.7422 10.9533 38.2946 4.53691 41.2033 1.92597C44.0479 -0.627566 49.5887 0.409469 49.9562 4.67413Z" fill="white"></path><path d="M90.7869 0.693481V5.2232C94.415 1.68169 99.2416 5.32383 97.668 10.0585C96.6822 13.0245 92.8764 13.7609 90.7884 11.5376L90.6518 12.7736L89.4304 12.7728V0.693481H90.7869ZM95.6236 10.8033C97.3055 9.21662 96.5757 5.35242 93.9584 5.09982C89.9456 4.7124 89.7583 11.1937 93.296 11.5377C94.0619 11.6121 95.0543 11.3402 95.6234 10.8033H95.6236Z" fill="white"></path><path d="M108.557 7.55673C109.039 4.73733 104.936 4.17039 104.132 6.60409L102.724 6.5946C103.055 3.04634 109.441 2.83605 109.902 6.2647C110.074 7.54427 109.638 9.98414 109.941 11.0294C110.074 11.4893 110.637 11.4128 111 11.3996L110.94 12.6444C109.88 12.9985 108.829 12.6743 108.489 11.5403C106.666 14.0108 101.4 12.8072 102.657 9.20519C102.914 8.47004 104.081 7.55685 104.827 7.55685H108.557L108.557 7.55673ZM108.354 8.65494C107.989 8.53945 106.2 8.65494 105.641 8.65494C105.595 8.65494 104.832 8.82521 104.753 8.8546C103.687 9.24681 103.68 10.7458 104.629 11.3263C105.774 12.0266 107.874 11.4632 108.352 10.1625C108.469 9.84257 108.758 8.78278 108.354 8.65494Z" fill="white"></path><path d="M74.6443 26.2249H67.9974C67.7477 29.4129 71.9002 30.3901 73.1471 27.5238L74.5083 27.461C73.6371 31.9152 67.0339 31.2694 66.5197 26.8278C65.7071 19.8082 75.2297 19.6789 74.6443 26.2249ZM73.1521 25.1267C73.0739 22.0206 68.7088 21.9495 68.0508 24.8424L68.2008 25.1267H73.1521Z" fill="white"></path><path d="M86.9887 18.2635V22.9305C87.2386 22.7564 87.3243 22.4801 87.6027 22.2478C89.1388 20.9657 92.0169 21.2493 92.9207 23.1735C92.9961 23.334 93.3642 24.424 93.3642 24.5091V30.3429H92.0077V25.0581C92.0077 24.9313 91.7597 24.1896 91.6775 24.0196C90.9662 22.5486 88.8594 22.3479 87.799 23.5445C87.5411 23.8355 86.9887 24.8527 86.9887 25.1953V30.3428H85.6322V18.2634L86.9887 18.2635Z" fill="white"></path><path d="M47.1068 18.2635V19.6361H41.2739V23.7541H46.1574V25.1267H41.2739V30.3429H39.7816V18.2635H47.1068Z" fill="white"></path><path d="M71.883 11.6258C69.8197 13.743 65.6241 13.011 64.7013 10C63.5122 6.12027 66.4602 2.78527 70.3766 4.11995C73.3193 5.1228 73.921 9.53462 71.883 11.6258ZM68.2327 5.11925C64.8309 5.69763 65.1395 12.0958 69.2747 11.525C72.8096 11.0371 72.2799 4.43121 68.2327 5.11925Z" fill="white"></path><path d="M54.8064 3.88601C61.1013 3.01364 61.3975 12.0662 56.4997 12.7373C49.9698 13.6321 49.693 4.59463 54.8064 3.88601ZM53.8005 5.68267C52.032 7.20626 52.4117 10.9526 54.8314 11.4767C58.4244 12.2552 59.6528 7.31649 57.1366 5.57529C56.1751 4.91001 54.7033 4.90498 53.8007 5.68267H53.8005Z" fill="white"></path><path d="M59.5869 30.3429H58.2304V24.9209C58.2304 24.7646 57.8348 23.8407 57.7144 23.6586C56.8906 22.4132 54.7719 22.5501 53.8902 23.6862C53.6492 23.9968 53.2114 25.1177 53.2114 25.47V30.3429H51.8549V21.5579L53.0692 21.565L53.2127 22.656C54.8885 20.985 58.1909 20.9556 59.2484 23.3419C59.3054 23.4704 59.587 24.3176 59.587 24.3719V30.343L59.5869 30.3429Z" fill="white"></path><path d="M84.0045 24.577L82.5271 24.5618C82.2647 22.5678 79.6398 22.2442 78.3688 23.4737C77.3098 24.498 77.165 26.7985 77.9765 28.0006C78.8791 29.3377 80.9371 29.7242 82.0415 28.4254C82.7574 27.5835 82.3334 27.074 84.0046 27.3238C83.7323 30.8105 78.9156 31.4764 76.9536 29.0357C75.2707 26.9421 75.7943 22.9266 78.3929 21.8509C80.7147 20.8897 83.6945 21.8209 84.0046 24.5773L84.0045 24.577Z" fill="white"></path><path d="M63.3852 19.0872V21.5579H65.6913V22.9305H63.3852V28.3525C63.3852 29.2174 65.2524 29.166 65.8277 29.1068L65.827 30.3429H63.4531C63.2603 30.3429 62.5862 29.9275 62.4328 29.7282C61.5694 28.6063 62.2812 23.185 62.0295 22.9297L60.6235 22.9113C60.2309 22.7813 60.4516 21.8967 60.4003 21.5571L62.0288 21.5578V19.087H63.3853L63.3852 19.0872Z" fill="white"></path><path d="M62.8426 0.693481H61.4861V12.7729H62.8426V0.693481Z" fill="white"></path><path d="M100.961 3.98792V12.7729C100.476 12.7111 99.8264 12.9577 99.4688 12.567V3.98792H100.961Z" fill="white"></path><path d="M49.9556 21.5579H48.5991V30.3429H49.9556V21.5579Z" fill="white"></path><path d="M48.9684 18.2869C50.4251 17.86 50.7351 20.6077 48.8283 20.0206C48.086 19.792 48.289 18.486 48.9684 18.2869Z" fill="white"></path><path d="M100.929 0.863316C101.731 1.67508 100.38 3.17958 99.5416 2.1988C98.7072 1.22226 100.207 0.133425 100.929 0.863316Z" fill="white"></path></g><defs><clipPath id="clip0_4457_17859"><rect width="111" height="30" fill="white" transform="translate(0 0.518188)"></rect></clipPath></defs></svg>