<svg xmlns="http://www.w3.org/2000/svg" width="24" height="24" viewBox="0 0 24 24" fill="none"><path d="M9.70711 7.13664C9.31658 6.74612 8.68342 6.74612 8.29289 7.13664L6.70711 8.72243C6.31658 9.11295 5.68342 9.11295 5.29289 8.72243C4.90237 8.3319 4.90237 7.69874 5.29289 7.30822L6.87868 5.72243C8.05025 4.55086 9.94975 4.55086 11.1213 5.72243L11.5398 6.14088C12.1454 5.65094 13.067 5.2545 14.1899 5.30129C15.4994 5.35586 16.953 6.00497 18.4177 7.54391C18.4299 7.55668 18.4416 7.56394 18.4492 7.56739C18.4523 7.56876 18.4553 7.5696 18.4553 7.5696H20.1046C20.2685 7.24102 20.6079 7.01532 21 7.01532C21.5523 7.01532 22 7.46304 22 8.01532V16.0153C22 16.5676 21.5523 17.0153 21 17.0153C20.4477 17.0153 20 16.5676 20 16.0153V9.5696H18.4538C17.868 9.5696 17.3396 9.31218 16.969 8.92277C15.7686 7.66158 14.7769 7.32749 14.1067 7.29956C13.4155 7.27076 12.9247 7.55913 12.7071 7.77677L9.91422 10.5696L10.4729 11.1282L12.2929 9.30822C12.6834 8.91769 13.3166 8.91769 13.7071 9.30822C14.0358 9.63686 14.0878 10.1373 13.8633 10.5204C13.8805 10.5365 13.8975 10.5529 13.9142 10.5696L17.5742 14.2296C18.2948 14.9502 18.3584 16.0974 17.7217 16.8932L16.7471 18.1116C16.1927 18.8045 15.2106 18.93 14.5061 18.449C13.8384 18.9373 12.8961 18.8799 12.2929 18.2767L12 17.9838L11.4142 18.5696C10.6332 19.3506 9.36684 19.3507 8.58579 18.5696L6.08579 16.0696H4V16.016C3.99962 16.568 3.55205 17.0153 3 17.0153C2.44772 17.0153 2 16.5676 2 16.0153V8.01532C2 7.46304 2.44772 7.01532 3 7.01532C3.55228 7.01532 4 7.46304 4 8.01532V14.0696H6.08579C6.61622 14.0696 7.12493 14.2803 7.5 14.6554L10 17.1554L10.5858 16.5696C11.3668 15.7886 12.6332 15.7886 13.4142 16.5696L13.5136 16.669C14.0678 16.2615 14.8168 16.24 15.3917 16.6042L16.16 15.6438L12.5 11.9838L11.9142 12.5696C11.1332 13.3507 9.86683 13.3507 9.08579 12.5696L8.50001 11.9838C7.71895 11.2028 7.71896 9.93643 8.50002 9.15538L10.1129 7.54248L9.70711 7.13664Z" fill="white"></path></svg>