<svg xmlns="http://www.w3.org/2000/svg" width="33" height="33" viewBox="0 0 33 33" fill="none"><path d="M9.1507 8.75272C8.96767 8.58996 8.73126 8.50003 8.48633 8.5C8.22111 8.5 7.96676 8.60536 7.77922 8.79289C7.59168 8.98043 7.48633 9.23478 7.48633 9.5V23.5L7.49333 23.617C7.52199 23.8603 7.63892 24.0845 7.82196 24.2473C8.00499 24.41 8.24139 24.5 8.48633 24.5H24.4863L24.6033 24.493C24.8564 24.4629 25.0885 24.3373 25.2521 24.1418C25.4157 23.9464 25.4984 23.6958 25.4835 23.4414C25.4686 23.187 25.357 22.9478 25.1717 22.7728C24.9864 22.5979 24.7412 22.5003 24.4863 22.5H9.48633V9.5L9.47933 9.383C9.45067 9.13975 9.33373 8.91547 9.1507 8.75272Z" fill="#28363E"></path><path d="M24.8883 11.3383C24.8221 11.325 24.7527 11.318 24.6803 11.318H21.8753C21.8088 11.318 21.7429 11.3246 21.6786 11.3375L21.4844 11.3375C20.9321 11.3375 20.4844 11.7853 20.4844 12.3375C20.4844 12.8898 20.9321 13.3375 21.4844 13.3375L22.2698 13.3375L19.0473 16.561L16.2893 13.803C16.1872 13.7008 16.0659 13.6197 15.9324 13.5644C15.7989 13.5091 15.6558 13.4806 15.5113 13.4806C15.3668 13.4806 15.2237 13.5091 15.0903 13.5644C14.9568 13.6197 14.8355 13.7008 14.7333 13.803L10.5613 17.975C10.3738 18.1626 10.2685 18.4171 10.2686 18.6824C10.2687 18.9476 10.3742 19.202 10.5618 19.3895C10.7495 19.577 11.0039 19.6823 11.2692 19.6822C11.5345 19.6821 11.7888 19.5766 11.9763 19.389L15.5113 15.854L18.2693 18.612C18.4756 18.8181 18.7552 18.9339 19.0468 18.9339C19.3384 18.9339 19.6181 18.8181 19.8243 18.612L23.8458 14.5905V15.506C23.8458 16.0583 24.2935 16.506 24.8458 16.506C25.3981 16.506 25.8458 16.0583 25.8458 15.506V12.3374C25.8458 11.7994 25.4209 11.3606 24.8883 11.3383Z" fill="#28363E"></path></svg>