<svg xmlns="http://www.w3.org/2000/svg" width="32" height="33" viewBox="0 0 32 33" fill="none"><path fill-rule="evenodd" clip-rule="evenodd" d="M23.99 21.1076C23.99 20.9273 23.99 20.7469 23.9699 20.5666C23.8096 18.5428 22.7176 16.7293 21.8259 14.946C21.2749 13.8439 20.7339 12.7418 20.1728 11.6497C20.0025 11.3191 19.742 11.0386 19.4114 10.8382L19.7821 8.84444C19.8322 8.5539 19.8222 8.25333 19.752 7.96278C19.6819 7.67223 19.5316 7.41174 19.3413 7.1813C19.1509 6.95087 18.9105 6.77053 18.6399 6.6503C18.3795 6.54009 18.0889 6.47998 17.7984 6.47998H14.2016C13.9111 6.47998 13.6205 6.54009 13.35 6.66032C13.0795 6.78055 12.8391 6.96089 12.6487 7.19132C12.4584 7.42176 12.3181 7.68225 12.2379 7.9728C12.1578 8.26335 12.1478 8.56392 12.2079 8.85446C12.2079 8.85446 12.5786 10.8482 12.5585 10.8482C12.2379 11.0386 11.9775 11.3191 11.8172 11.6598L10.114 15.0762C9.19224 16.8896 8.03006 18.7331 8 20.8371C8 21.0074 8 21.1677 8.01002 21.338C8.15028 23.412 9.4928 25.2755 11.5266 25.9067C12.2981 26.1271 13.0895 26.2874 13.891 26.3976C14.6725 26.5078 15.2035 26.5278 16.005 26.5178C16.7965 26.5178 17.3275 26.5178 18.109 26.3876C18.9105 26.2874 19.7019 26.1271 20.4934 25.8966C21.5153 25.576 22.407 24.9448 23.0382 24.0832C23.6694 23.2216 23.98 22.1596 24 21.1076H23.99ZM17.7984 8.48376L17.4377 10.4875H14.5523L14.1916 8.48376H17.7984ZM21.4252 22.901C21.0445 23.412 20.5135 23.7927 19.9023 23.983C19.3112 24.1534 18.7101 24.2836 18.109 24.3638C18.109 24.3638 18.109 24.3638 18.0989 24.3638C18.109 24.3638 17.8084 24.3938 17.8084 24.3938L16.025 24.514C16.025 24.514 16.025 24.514 16.015 24.514H15.995C15.995 24.514 15.995 24.514 15.985 24.514L14.2016 24.3938C14.2016 24.3938 13.9011 24.3638 13.9111 24.3638C13.9111 24.3638 13.9111 24.3638 13.9011 24.3638C13.2899 24.2736 12.6888 24.1534 12.1077 23.983C11.4966 23.7927 10.9656 23.412 10.5848 22.901C10.2041 22.39 10.0038 21.7588 10.0038 21.1276C10.0038 20.236 10.2242 19.3643 10.6149 18.5628L13.6205 12.5514H18.3895L21.3951 18.5628C21.7959 19.3643 22.0063 20.236 22.0063 21.1276C22.0063 21.7689 21.7959 22.39 21.4252 22.901Z" fill="#28363E"></path><path fill-rule="evenodd" clip-rule="evenodd" d="M16.7499 15.2103C16.745 14.8004 16.4111 14.4696 16 14.4696C15.5858 14.4696 15.2501 14.8053 15.25 15.2194C14.2111 15.3174 13.3981 16.1921 13.3981 17.2566C13.3981 18.3212 14.2111 19.1959 15.25 19.2938V20.3955H14.1481C13.7339 20.3955 13.3981 20.7313 13.3981 21.1455C13.3981 21.5597 13.7339 21.8955 14.1481 21.8955H15.2501C15.255 22.3054 15.5889 22.6362 16 22.6362C16.4142 22.6362 16.7499 22.3005 16.75 21.8864C17.7889 21.7885 18.6019 20.9138 18.6019 19.8492C18.6019 18.7846 17.7889 17.91 16.75 17.812V16.7103H17.8519C18.2661 16.7103 18.6019 16.3745 18.6019 15.9603C18.6019 15.5461 18.2661 15.2103 17.8519 15.2103H16.7499ZM16.75 19.3385V20.3599C16.9557 20.2815 17.1019 20.0824 17.1019 19.8492C17.1019 19.616 16.9557 19.4169 16.75 19.3385ZM15.25 17.7673V16.7459C15.0443 16.8243 14.8981 17.0234 14.8981 17.2566C14.8981 17.4898 15.0443 17.6889 15.25 17.7673Z" fill="#28363E"></path></svg>