<svg xmlns="http://www.w3.org/2000/svg" width="150" height="32" viewBox="0 0 150 32" fill="none"><path d="M75.2623 10.0893V6.37512H76.5092C76.7987 6.37512 77.0353 6.42772 77.2191 6.5329C77.4041 6.63688 77.541 6.77774 77.6299 6.95547C77.7188 7.1332 77.7632 7.33149 77.7632 7.55033C77.7632 7.76917 77.7188 7.96806 77.6299 8.147C77.5422 8.32594 77.4065 8.46861 77.2227 8.575C77.0389 8.68019 76.8035 8.73278 76.5164 8.73278H75.6227V8.3338H76.502C76.7002 8.3338 76.8593 8.29934 76.9794 8.23042C77.0995 8.16151 77.1866 8.06841 77.2407 7.95113C77.2959 7.83264 77.3236 7.69904 77.3236 7.55033C77.3236 7.40161 77.2959 7.26862 77.2407 7.15134C77.1866 7.03406 77.0989 6.94217 76.9776 6.87567C76.8563 6.80796 76.6953 6.77411 76.4947 6.77411H75.7092V10.0893H75.2623Z" fill="white"></path><path d="M79.5199 10.1474C79.2701 10.1474 79.0509 10.0875 78.8623 9.96784C78.6749 9.84814 78.5284 9.68069 78.4227 9.46547C78.3182 9.25026 78.2659 8.99878 78.2659 8.71102C78.2659 8.42085 78.3182 8.16755 78.4227 7.95113C78.5284 7.73471 78.6749 7.56665 78.8623 7.44695C79.0509 7.32726 79.2701 7.26741 79.5199 7.26741C79.7698 7.26741 79.9884 7.32726 80.1758 7.44695C80.3644 7.56665 80.5109 7.73471 80.6154 7.95113C80.7211 8.16755 80.774 8.42085 80.774 8.71102C80.774 8.99878 80.7211 9.25026 80.6154 9.46547C80.5109 9.68069 80.3644 9.84814 80.1758 9.96784C79.9884 10.0875 79.7698 10.1474 79.5199 10.1474ZM79.5199 9.7629C79.7097 9.7629 79.8659 9.71394 79.9884 9.616C80.1109 9.51807 80.2016 9.3893 80.2605 9.22971C80.3193 9.07011 80.3488 8.89722 80.3488 8.71102C80.3488 8.52483 80.3193 8.35133 80.2605 8.19052C80.2016 8.02972 80.1109 7.89974 79.9884 7.8006C79.8659 7.70146 79.7097 7.65189 79.5199 7.65189C79.3302 7.65189 79.174 7.70146 79.0515 7.8006C78.929 7.89974 78.8383 8.02972 78.7794 8.19052C78.7206 8.35133 78.6911 8.52483 78.6911 8.71102C78.6911 8.89722 78.7206 9.07011 78.7794 9.22971C78.8383 9.3893 78.929 9.51807 79.0515 9.616C79.174 9.71394 79.3302 9.7629 79.5199 9.7629Z" fill="white"></path><path d="M81.4231 10.0893V7.30368H81.8339V7.72443H81.8627C81.9132 7.5866 82.0045 7.47476 82.1366 7.38892C82.2687 7.30307 82.4177 7.26015 82.5834 7.26015C82.6147 7.26015 82.6537 7.26076 82.7005 7.26197C82.7474 7.26318 82.7828 7.26499 82.8069 7.26741V7.70267C82.7924 7.69904 82.7594 7.6936 82.7078 7.68635C82.6573 7.67788 82.6039 7.67365 82.5474 7.67365C82.4129 7.67365 82.2927 7.70206 82.187 7.75889C82.0825 7.81451 81.9997 7.89189 81.9384 7.99103C81.8783 8.08896 81.8483 8.2008 81.8483 8.32654V10.0893H81.4231Z" fill="white"></path><path d="M81.4401 21.6234L92.5793 6.55286L103.592 22.5145C103.592 22.5145 92.9618 24.6162 81.4401 21.6234Z" fill="url(#paint0_linear_4122_4428)"></path><path d="M102.062 14.8927L108.236 21.8168C108.236 21.8168 102.89 23.2324 96.5885 23.2324L102.062 14.8927Z" fill="#E9ECEE"></path><path d="M114.685 8.54029H113.786C113.751 8.34708 113.687 8.17752 113.593 8.03163C113.498 7.88573 113.384 7.75956 113.246 7.66098C113.108 7.55846 112.958 7.48354 112.788 7.42834C112.619 7.37313 112.441 7.34947 112.252 7.34947C111.913 7.34947 111.605 7.43622 111.337 7.60577C111.069 7.77927 110.856 8.02769 110.703 8.35891C110.549 8.69013 110.47 9.09232 110.47 9.57338C110.47 10.0544 110.549 10.4606 110.703 10.7918C110.856 11.123 111.069 11.3714 111.341 11.541C111.609 11.7105 111.913 11.7933 112.248 11.7933C112.434 11.7933 112.611 11.7697 112.781 11.7184C112.95 11.6672 113.1 11.5922 113.238 11.4937C113.376 11.3951 113.49 11.2729 113.585 11.127C113.68 10.9811 113.747 10.8155 113.782 10.6262H114.681C114.634 10.918 114.539 11.1861 114.401 11.4306C114.263 11.6751 114.086 11.884 113.873 12.0615C113.66 12.235 113.415 12.373 113.139 12.4676C112.863 12.5623 112.564 12.6135 112.236 12.6135C111.724 12.6135 111.27 12.4913 110.868 12.2468C110.466 12.0023 110.15 11.6553 109.922 11.2019C109.693 10.7484 109.579 10.2043 109.579 9.57732C109.579 8.95037 109.693 8.40228 109.926 7.95277C110.158 7.50325 110.474 7.15232 110.872 6.90785C111.27 6.66337 111.728 6.54114 112.236 6.54114C112.552 6.54114 112.844 6.58451 113.116 6.6752C113.388 6.76589 113.632 6.89602 113.849 7.06951C114.066 7.24301 114.247 7.45199 114.389 7.70041C114.531 7.94882 114.626 8.22878 114.677 8.54818L114.685 8.54029Z" fill="#E9ECEE"></path><path d="M115.684 12.5265V8.09056H116.52V8.79637H116.567C116.646 8.55978 116.792 8.37052 116.997 8.23251C117.202 8.0945 117.435 8.02747 117.695 8.02747C117.75 8.02747 117.813 8.02747 117.888 8.03141C117.963 8.03141 118.022 8.0393 118.062 8.04718V8.87129C118.026 8.85946 117.967 8.85157 117.877 8.8358C117.79 8.82397 117.699 8.81609 117.612 8.81609C117.407 8.81609 117.226 8.85946 117.068 8.94621C116.911 9.03296 116.784 9.15125 116.69 9.30109C116.595 9.45093 116.552 9.62442 116.552 9.81763V12.5265H115.688H115.684Z" fill="#E9ECEE"></path><path d="M120.557 12.6172C120.12 12.6172 119.745 12.5226 119.43 12.3333C119.114 12.148 118.874 11.8798 118.7 11.5407C118.527 11.2016 118.444 10.7994 118.444 10.3381C118.444 9.87674 118.531 9.48243 118.7 9.13544C118.87 8.78845 119.11 8.52032 119.418 8.32316C119.725 8.12995 120.084 8.03137 120.494 8.03137C120.743 8.03137 120.987 8.0708 121.224 8.15361C121.456 8.23641 121.669 8.36654 121.855 8.54398C122.04 8.72142 122.19 8.95012 122.296 9.23402C122.403 9.51792 122.458 9.85703 122.458 10.2592V10.5668H118.933V9.92012H121.61C121.61 9.69142 121.563 9.49032 121.472 9.31682C121.382 9.14333 121.251 9.00138 121.082 8.89885C120.916 8.79633 120.719 8.74507 120.498 8.74507C120.254 8.74507 120.045 8.80422 119.863 8.92251C119.682 9.04081 119.544 9.19459 119.449 9.38386C119.355 9.57313 119.304 9.77817 119.304 9.99898V10.5037C119.304 10.7994 119.355 11.0518 119.461 11.2608C119.568 11.4698 119.714 11.6275 119.903 11.7339C120.092 11.8404 120.313 11.8956 120.565 11.8956C120.727 11.8956 120.877 11.872 121.011 11.8246C121.145 11.7773 121.263 11.7063 121.362 11.6117C121.46 11.5171 121.535 11.4027 121.587 11.2608L122.403 11.4067C122.336 11.6472 122.221 11.8562 122.052 12.0376C121.882 12.2189 121.673 12.357 121.421 12.4555C121.169 12.5541 120.881 12.6054 120.557 12.6054V12.6172Z" fill="#E9ECEE"></path><path d="M125.082 12.6138C124.724 12.6138 124.404 12.5231 124.124 12.3378C123.844 12.1525 123.623 11.8922 123.466 11.5492C123.308 11.2061 123.229 10.7961 123.229 10.3189C123.229 9.84183 123.308 9.43174 123.47 9.08869C123.631 8.74959 123.852 8.4854 124.132 8.30402C124.412 8.12263 124.731 8.03194 125.086 8.03194C125.362 8.03194 125.583 8.07926 125.753 8.16995C125.922 8.26064 126.052 8.36711 126.147 8.48934C126.242 8.61158 126.313 8.71804 126.364 8.80873H126.415V6.61243H127.279V12.5231H126.435V11.8331H126.364C126.313 11.9277 126.238 12.0342 126.139 12.1564C126.044 12.2787 125.91 12.3851 125.741 12.4758C125.571 12.5665 125.35 12.6099 125.082 12.6099V12.6138ZM125.272 11.8765C125.52 11.8765 125.729 11.8094 125.903 11.6793C126.076 11.5492 126.206 11.3639 126.297 11.1312C126.388 10.8946 126.431 10.6226 126.431 10.3111C126.431 9.99955 126.388 9.73536 126.297 9.50272C126.206 9.27008 126.08 9.09264 125.906 8.96252C125.733 8.83239 125.524 8.7693 125.272 8.7693C125.019 8.7693 124.795 8.83634 124.621 8.9704C124.448 9.10447 124.317 9.28979 124.231 9.52244C124.144 9.75508 124.101 10.0193 124.101 10.3111C124.101 10.6028 124.144 10.8749 124.235 11.1115C124.325 11.3481 124.455 11.5334 124.629 11.6714C124.802 11.8094 125.019 11.8765 125.276 11.8765H125.272Z" fill="#E9ECEE"></path><path d="M128.945 7.40821C128.795 7.40821 128.665 7.35695 128.559 7.25838C128.452 7.15586 128.397 7.03756 128.397 6.89561C128.397 6.75366 128.448 6.63142 128.559 6.5289C128.665 6.42638 128.795 6.37512 128.945 6.37512C129.095 6.37512 129.225 6.42638 129.332 6.5289C129.438 6.63142 129.493 6.74972 129.493 6.89167C129.493 7.03362 129.442 7.15586 129.332 7.25838C129.225 7.3609 129.095 7.40821 128.945 7.40821ZM128.508 12.5264V8.09037H129.371V12.5264H128.508Z" fill="#E9ECEE"></path><path d="M132.401 12.6171C131.971 12.6171 131.604 12.5185 131.293 12.3253C130.985 12.1321 130.745 11.86 130.583 11.517C130.417 11.174 130.335 10.7796 130.335 10.3341C130.335 9.8885 130.417 9.4863 130.587 9.13931C130.757 8.79626 130.993 8.52419 131.305 8.33097C131.612 8.13776 131.975 8.03918 132.393 8.03918C132.728 8.03918 133.032 8.10227 133.292 8.22451C133.556 8.34675 133.769 8.52419 133.931 8.745C134.092 8.96976 134.191 9.23 134.222 9.52573H133.383C133.335 9.31675 133.229 9.13931 133.067 8.98947C132.905 8.83963 132.685 8.76472 132.409 8.76472C132.168 8.76472 131.959 8.8278 131.778 8.95398C131.596 9.08016 131.458 9.2576 131.356 9.49025C131.257 9.72289 131.206 9.99496 131.206 10.3104C131.206 10.6259 131.257 10.9137 131.352 11.1463C131.45 11.379 131.589 11.5643 131.77 11.6905C131.951 11.8206 132.16 11.8837 132.405 11.8837C132.566 11.8837 132.716 11.8522 132.85 11.793C132.984 11.7339 133.095 11.6471 133.189 11.5328C133.28 11.4184 133.343 11.2804 133.383 11.1227H134.222C134.191 11.4105 134.1 11.6668 133.943 11.8916C133.789 12.1164 133.58 12.2938 133.32 12.4239C133.059 12.554 132.752 12.6171 132.401 12.6171Z" fill="#E9ECEE"></path><path d="M137.014 12.6172C136.6 12.6172 136.237 12.5226 135.926 12.3294C135.614 12.1401 135.374 11.872 135.204 11.5289C135.035 11.1859 134.948 10.7876 134.948 10.3263C134.948 9.86491 135.035 9.46272 135.204 9.11967C135.374 8.77662 135.614 8.50849 135.926 8.31922C136.237 8.12995 136.6 8.03137 137.014 8.03137C137.428 8.03137 137.791 8.12601 138.102 8.31922C138.414 8.50849 138.654 8.77662 138.824 9.11967C138.993 9.46272 139.08 9.86491 139.08 10.3263C139.08 10.7876 138.993 11.1859 138.824 11.5289C138.654 11.872 138.414 12.1401 138.102 12.3294C137.791 12.5186 137.432 12.6172 137.014 12.6172ZM137.014 11.8917C137.282 11.8917 137.507 11.8207 137.684 11.6787C137.862 11.5368 137.992 11.3475 138.079 11.1109C138.165 10.8743 138.209 10.6141 138.209 10.3302C138.209 10.0463 138.165 9.78605 138.079 9.54947C137.992 9.31288 137.862 9.11967 137.684 8.97772C137.507 8.83576 137.282 8.76085 137.014 8.76085C136.746 8.76085 136.517 8.83182 136.34 8.97772C136.162 9.12361 136.028 9.31288 135.945 9.54947C135.863 9.78605 135.815 10.0463 135.815 10.3302C135.815 10.6141 135.859 10.8743 135.945 11.1109C136.032 11.3475 136.162 11.5368 136.34 11.6787C136.517 11.8207 136.742 11.8917 137.014 11.8917Z" fill="#E9ECEE"></path><path d="M140.046 12.5265V8.09056H140.881V8.79637H140.929C141.008 8.55978 141.154 8.37052 141.359 8.23251C141.564 8.0945 141.796 8.02747 142.057 8.02747C142.112 8.02747 142.175 8.02747 142.25 8.03141C142.325 8.03141 142.384 8.0393 142.423 8.04718V8.87129C142.388 8.85946 142.329 8.85157 142.238 8.8358C142.151 8.82397 142.06 8.81609 141.974 8.81609C141.769 8.81609 141.587 8.85946 141.43 8.94621C141.272 9.03296 141.146 9.15125 141.051 9.30109C140.956 9.45093 140.913 9.62442 140.913 9.81763V12.5265H140.049H140.046Z" fill="#E9ECEE"></path><path d="M143.165 14.19V8.09394H144.008V8.81158H144.079C144.131 8.72089 144.202 8.61443 144.296 8.49219C144.391 8.36995 144.521 8.26349 144.691 8.1728C144.856 8.08211 145.081 8.03479 145.353 8.03479C145.712 8.03479 146.031 8.12548 146.311 8.30686C146.591 8.48825 146.812 8.74849 146.974 9.09154C147.135 9.43065 147.214 9.84073 147.214 10.3218C147.214 10.8028 147.135 11.2129 146.974 11.552C146.812 11.8951 146.595 12.1553 146.315 12.3407C146.035 12.526 145.716 12.6167 145.361 12.6167C145.093 12.6167 144.872 12.5733 144.702 12.4826C144.533 12.3919 144.399 12.2855 144.304 12.1632C144.21 12.041 144.135 11.9345 144.083 11.8399H144.032V14.1939H143.169L143.165 14.19ZM144.012 10.31C144.012 10.6215 144.056 10.8935 144.146 11.1301C144.237 11.3667 144.367 11.5481 144.541 11.6782C144.714 11.8083 144.923 11.8754 145.172 11.8754C145.42 11.8754 145.645 11.8083 145.818 11.6703C145.992 11.5323 146.122 11.347 146.213 11.1104C146.303 10.8738 146.347 10.6057 146.347 10.31C146.347 10.0142 146.303 9.75398 146.217 9.52134C146.13 9.2887 145.996 9.10337 145.822 8.96931C145.649 8.83524 145.432 8.76821 145.172 8.76821C144.911 8.76821 144.71 8.8313 144.537 8.96142C144.363 9.09154 144.233 9.26898 144.146 9.50162C144.056 9.73427 144.012 10.0024 144.012 10.31Z" fill="#E9ECEE"></path><path d="M114.685 17.5782H113.786C113.751 17.385 113.687 17.2154 113.593 17.0695C113.498 16.9236 113.384 16.7975 113.246 16.6989C113.108 16.5964 112.958 16.5214 112.788 16.4662C112.619 16.411 112.441 16.3874 112.252 16.3874C111.913 16.3874 111.605 16.4741 111.337 16.6437C111.069 16.8172 110.856 17.0656 110.703 17.3968C110.549 17.728 110.47 18.1302 110.47 18.6113C110.47 19.0923 110.549 19.4985 110.703 19.8297C110.856 20.1609 111.069 20.4093 111.341 20.5789C111.609 20.7484 111.913 20.8313 112.248 20.8313C112.434 20.8313 112.611 20.8076 112.781 20.7563C112.95 20.7051 113.1 20.6302 113.238 20.5316C113.376 20.433 113.49 20.3108 113.585 20.1649C113.68 20.019 113.747 19.8534 113.782 19.6641H114.681C114.634 19.9559 114.539 20.224 114.401 20.4685C114.263 20.713 114.086 20.9219 113.873 21.0994C113.66 21.2729 113.415 21.4109 113.139 21.5055C112.863 21.6002 112.564 21.6514 112.236 21.6514C111.724 21.6514 111.27 21.5292 110.868 21.2847C110.466 21.0402 110.15 20.6932 109.922 20.2398C109.693 19.7863 109.579 19.2422 109.579 18.6152C109.579 17.9883 109.693 17.4402 109.926 16.9907C110.158 16.5412 110.474 16.1902 110.872 15.9457C111.27 15.7013 111.728 15.579 112.236 15.579C112.552 15.579 112.844 15.6224 113.116 15.7131C113.388 15.8038 113.632 15.9339 113.849 16.1074C114.066 16.2809 114.247 16.4899 114.389 16.7383C114.531 16.9867 114.626 17.2667 114.677 17.5861L114.685 17.5782Z" fill="#E9ECEE"></path><path d="M116.976 21.6631C116.696 21.6631 116.439 21.6119 116.215 21.5054C115.99 21.3989 115.808 21.2491 115.674 21.048C115.544 20.8469 115.477 20.6024 115.477 20.3107C115.477 20.0622 115.524 19.8533 115.623 19.6916C115.718 19.5299 115.848 19.4037 116.013 19.3091C116.175 19.2145 116.36 19.1435 116.562 19.0962C116.763 19.0489 116.968 19.0134 117.181 18.9858C117.445 18.9542 117.662 18.9306 117.827 18.9108C117.993 18.8911 118.111 18.8556 118.19 18.8123C118.265 18.765 118.304 18.69 118.304 18.5875V18.5678C118.304 18.3154 118.233 18.1183 118.091 17.9803C117.949 17.8423 117.741 17.7713 117.461 17.7713C117.181 17.7713 116.94 17.8344 116.774 17.9645C116.609 18.0946 116.494 18.2366 116.431 18.3904L115.619 18.205C115.714 17.9369 115.856 17.7161 116.041 17.5505C116.226 17.3849 116.443 17.2626 116.684 17.1877C116.924 17.1128 117.181 17.0734 117.449 17.0734C117.626 17.0734 117.815 17.0931 118.013 17.1365C118.214 17.1759 118.399 17.2547 118.572 17.3612C118.746 17.4716 118.888 17.6254 119.002 17.8304C119.117 18.0355 119.172 18.2957 119.172 18.6191V21.5646H118.328V20.9573H118.293C118.237 21.0677 118.155 21.1781 118.04 21.2846C117.93 21.3911 117.784 21.4818 117.61 21.5527C117.437 21.6237 117.228 21.6592 116.979 21.6592L116.976 21.6631ZM117.165 20.9691C117.401 20.9691 117.606 20.9218 117.78 20.8272C117.949 20.7326 118.08 20.6103 118.17 20.4565C118.261 20.3028 118.304 20.1411 118.304 19.9637V19.3919C118.273 19.4235 118.214 19.4511 118.127 19.4747C118.04 19.5023 117.942 19.522 117.827 19.5417C117.717 19.5575 117.606 19.5772 117.5 19.5891C117.394 19.6009 117.307 19.6167 117.236 19.6245C117.07 19.6443 116.916 19.6798 116.778 19.731C116.64 19.7823 116.53 19.8532 116.451 19.9479C116.368 20.0425 116.329 20.1648 116.329 20.3185C116.329 20.5315 116.408 20.6931 116.565 20.8035C116.723 20.9139 116.924 20.9652 117.169 20.9652L117.165 20.9691Z" fill="#E9ECEE"></path><path d="M120.311 23.2287V17.1327H121.155V17.8503H121.226C121.277 17.7596 121.348 17.6532 121.443 17.5309C121.537 17.4087 121.668 17.3022 121.837 17.2116C122.003 17.1209 122.227 17.0735 122.5 17.0735C122.858 17.0735 123.178 17.1642 123.458 17.3456C123.738 17.527 123.958 17.7872 124.12 18.1303C124.282 18.4694 124.361 18.8795 124.361 19.3605C124.361 19.8416 124.282 20.2517 124.12 20.5908C123.958 20.9338 123.742 21.1941 123.462 21.3794C123.182 21.5647 122.862 21.6554 122.507 21.6554C122.239 21.6554 122.019 21.6121 121.849 21.5214C121.679 21.4307 121.545 21.3242 121.451 21.202C121.356 21.0797 121.281 20.9733 121.23 20.8786H121.179V23.2327H120.315L120.311 23.2287ZM121.159 19.3487C121.159 19.6602 121.202 19.9323 121.293 20.1689C121.384 20.4055 121.514 20.5869 121.687 20.717C121.861 20.8471 122.07 20.9141 122.318 20.9141C122.567 20.9141 122.791 20.8471 122.965 20.7091C123.138 20.5711 123.268 20.3858 123.359 20.1492C123.45 19.9126 123.493 19.6444 123.493 19.3487C123.493 19.053 123.45 18.7927 123.363 18.5601C123.276 18.3275 123.142 18.1421 122.969 18.0081C122.795 17.874 122.578 17.807 122.318 17.807C122.058 17.807 121.857 17.8701 121.683 18.0002C121.51 18.1303 121.38 18.3077 121.293 18.5404C121.202 18.773 121.159 19.0412 121.159 19.3487Z" fill="#E9ECEE"></path><path d="M125.766 16.4468C125.616 16.4468 125.486 16.3955 125.379 16.297C125.273 16.1944 125.217 16.0761 125.217 15.9342C125.217 15.7922 125.269 15.67 125.379 15.5675C125.486 15.465 125.616 15.4137 125.766 15.4137C125.915 15.4137 126.045 15.465 126.152 15.5675C126.258 15.67 126.314 15.7883 126.314 15.9302C126.314 16.0722 126.262 16.1944 126.152 16.297C126.045 16.3995 125.915 16.4468 125.766 16.4468ZM125.328 21.5649V17.1289H126.191V21.5649H125.328Z" fill="#E9ECEE"></path><path d="M129.424 17.1326V17.8266H127.003V17.1326H129.424ZM127.653 16.0719H128.517V20.2674C128.517 20.4369 128.54 20.5591 128.592 20.6459C128.643 20.7287 128.706 20.7878 128.785 20.8155C128.864 20.847 128.95 20.8588 129.045 20.8588C129.116 20.8588 129.175 20.8549 129.226 20.8431C129.278 20.8312 129.317 20.8273 129.349 20.8194L129.502 21.5331C129.451 21.5528 129.38 21.5725 129.29 21.5922C129.199 21.612 129.081 21.6238 128.943 21.6277C128.714 21.6277 128.505 21.5922 128.308 21.5055C128.111 21.4187 127.953 21.2886 127.831 21.1112C127.708 20.9337 127.649 20.7129 127.649 20.4448V16.0719H127.653Z" fill="#E9ECEE"></path><path d="M131.667 21.6631C131.387 21.6631 131.131 21.6119 130.906 21.5054C130.681 21.3989 130.5 21.2491 130.366 21.048C130.236 20.8469 130.169 20.6024 130.169 20.3107C130.169 20.0622 130.216 19.8533 130.314 19.6916C130.409 19.5299 130.539 19.4037 130.705 19.3091C130.866 19.2145 131.052 19.1435 131.253 19.0962C131.454 19.0489 131.659 19.0134 131.872 18.9858C132.136 18.9542 132.353 18.9306 132.519 18.9108C132.684 18.8911 132.803 18.8556 132.881 18.8123C132.956 18.765 132.996 18.69 132.996 18.5875V18.5678C132.996 18.3154 132.925 18.1183 132.783 17.9803C132.641 17.8423 132.432 17.7713 132.152 17.7713C131.872 17.7713 131.631 17.8344 131.466 17.9645C131.3 18.0946 131.186 18.2366 131.123 18.3904L130.311 18.205C130.405 17.9369 130.547 17.7161 130.732 17.5505C130.918 17.3849 131.135 17.2626 131.375 17.1877C131.616 17.1128 131.872 17.0734 132.14 17.0734C132.318 17.0734 132.507 17.0931 132.704 17.1365C132.905 17.1759 133.09 17.2547 133.264 17.3612C133.437 17.4716 133.579 17.6254 133.694 17.8304C133.808 18.0355 133.863 18.2957 133.863 18.6191V21.5646H133.019V20.9573H132.984C132.929 21.0677 132.846 21.1781 132.732 21.2846C132.621 21.3911 132.475 21.4818 132.302 21.5527C132.128 21.6237 131.919 21.6592 131.671 21.6592L131.667 21.6631ZM131.856 20.9691C132.093 20.9691 132.298 20.9218 132.471 20.8272C132.641 20.7326 132.771 20.6103 132.862 20.4565C132.952 20.3028 132.996 20.1411 132.996 19.9637V19.3919C132.964 19.4235 132.905 19.4511 132.818 19.4747C132.732 19.5023 132.633 19.522 132.519 19.5417C132.408 19.5575 132.298 19.5772 132.191 19.5891C132.085 19.6009 131.998 19.6167 131.927 19.6245C131.762 19.6443 131.608 19.6798 131.47 19.731C131.332 19.7823 131.221 19.8532 131.143 19.9479C131.06 20.0425 131.02 20.1648 131.02 20.3185C131.02 20.5315 131.099 20.6931 131.257 20.8035C131.415 20.9139 131.616 20.9652 131.86 20.9652L131.856 20.9691Z" fill="#E9ECEE"></path><path d="M135.866 15.6544V21.5651H135.003V15.6544H135.866Z" fill="#E9ECEE"></path><path fill-rule="evenodd" clip-rule="evenodd" d="M7.6758 6.62009H7.67271H7.5276H7.38284V6.76467L7.38593 6.90978V9.73471V9.87982V10.0249H2.78577V6.61957H7.38147V2.0014H10.7786V3.47922H10.7817V6.62009H10.6355H10.4904H7.6758ZM10.7838 9.73471V6.90978V6.76467V6.61957H15.3778V10.0249H10.7838V9.87982V9.73471ZM15.3682 19.9748C14.3442 20.1199 13.4386 20.1518 12.677 20.0715H12.6708C11.935 19.9913 11.4174 19.6722 11.088 19.099C10.9121 18.7913 10.8174 18.4116 10.805 17.968C10.7896 17.5008 10.7824 16.9513 10.7824 16.9317V10.0263H10.6373H10.4922H7.67754H7.53244H7.38733V17.0799C7.38733 17.3248 7.39968 18.1028 7.42541 18.7841C7.45113 19.4932 7.64358 20.194 7.99554 20.866C8.39175 21.6296 8.99378 22.1998 9.78209 22.5579C10.5488 22.9078 11.439 23.1013 12.428 23.1342C12.5515 23.1373 12.6749 23.1394 12.7995 23.1394C13.6639 23.1394 14.5438 23.0519 15.4186 22.879L15.5359 22.8563V19.9511L15.3682 19.9748Z" fill="white"></path><path d="M48.2003 10.3627L47.9235 9.76792V9.82349C47.3462 8.79025 46.5754 7.94329 45.6265 7.30112C44.5017 6.54368 43.205 6.17526 41.6623 6.17526C40.132 6.17526 38.822 6.55501 37.7682 7.30318C37.6601 7.37933 37.5551 7.46372 37.4563 7.54708V2.00012H34.0592V22.882H37.1033V21.6018C37.3339 21.8251 37.5603 22.0165 37.7887 22.1801C38.8281 22.9293 40.1866 23.3245 41.7189 23.3245C43.2307 23.3245 44.5552 22.9427 45.6553 22.1884C46.7555 21.4361 47.6137 20.3987 48.2065 19.1051C48.8085 17.8012 49.1008 16.3718 49.1008 14.7334C49.1008 13.1167 48.7972 11.645 48.2003 10.3627ZM45.0553 17.547C44.7466 18.3672 44.2742 19.03 43.6516 19.5157C43.027 20.0035 42.2551 20.2402 41.2929 20.2402C40.3121 20.2402 39.5053 20.0066 38.895 19.5456C38.2786 19.0804 37.8217 18.431 37.5387 17.616C37.2495 16.7855 37.1023 15.8161 37.1023 14.7344C37.1023 13.6467 37.2505 12.6783 37.5438 11.8539C37.835 11.0348 38.2868 10.3905 38.8858 9.93875C39.4816 9.48697 40.2555 9.25747 41.1859 9.25747C42.1738 9.25747 42.9961 9.50137 43.628 9.983C44.265 10.4687 44.7446 11.1284 45.0523 11.9445C45.3651 12.7729 45.5246 13.7115 45.5246 14.7344L45.5267 14.8497C45.5164 15.8397 45.3569 16.7464 45.0553 17.547Z" fill="white"></path><path d="M64.751 12.7549C64.7468 12.1292 64.717 11.5416 64.6624 11.0075C64.6007 10.4065 64.436 9.83224 64.1746 9.30225C63.6724 8.21961 62.8646 7.4169 61.7747 6.91572C60.6983 6.41968 59.4211 6.16858 57.9793 6.16858C56.1156 6.16858 54.5956 6.5864 53.4636 7.41073C52.3305 8.23505 51.5535 9.36194 51.1532 10.7574L51.1141 10.8943L54.2755 11.8658L54.3177 11.7258C54.5812 10.8583 55.0381 10.2542 55.7122 9.87856C56.3863 9.5019 57.1375 9.31151 57.9474 9.31151C59.2318 9.31151 60.1436 9.60172 60.6581 10.1729C61.0791 10.6411 61.323 11.3492 61.3847 12.2785L59.7113 12.5152C58.7193 12.6531 57.7653 12.8033 56.8741 12.9597C55.9808 13.1162 55.1637 13.3014 54.4443 13.5124C53.621 13.7779 52.9099 14.136 52.3305 14.5765C51.7542 15.0169 51.3117 15.5603 51.0163 16.1912C50.723 16.8159 50.5748 17.5537 50.5748 18.3832C50.5748 19.2724 50.7879 20.1008 51.2077 20.8428C51.6286 21.5899 52.2574 22.1971 53.0766 22.6458C53.8968 23.0935 54.9208 23.3209 56.1208 23.3209C57.6346 23.3209 58.9272 23.0132 59.9604 22.4071C60.6221 22.0211 61.2159 21.4983 61.7305 20.8521V22.8794H64.7592V12.7519H64.751V12.7549ZM61.3775 15.1631C61.3734 15.338 61.3662 15.5274 61.3579 15.7342L61.3518 15.8804C61.3281 16.4505 61.2334 16.9743 61.0657 17.4518C60.9514 17.951 60.7075 18.4388 60.3381 18.9008C59.9707 19.365 59.4747 19.753 58.8644 20.0535C58.2603 20.3519 57.5204 20.5042 56.6662 20.5042C56.0312 20.5042 55.5064 20.4044 55.103 20.2078C54.7088 20.0154 54.4104 19.7519 54.2169 19.4267C54.0214 19.0974 53.9256 18.7475 53.9256 18.3554C53.9256 17.9633 54.0152 17.6268 54.1922 17.3551C54.3712 17.0783 54.6203 16.8395 54.9301 16.644C55.2584 16.4412 55.6299 16.2663 56.0292 16.1274C56.5221 15.973 57.0964 15.8382 57.7354 15.726C58.3128 15.6241 58.9807 15.5181 59.8997 15.3802L60.1899 15.338C60.5676 15.2835 60.9648 15.2248 61.3775 15.1631Z" fill="white"></path><path d="M29.1983 6.62235L24.7885 18.3646L20.2048 6.71188L20.1688 6.61926H16.6276L23.1512 22.6725L22.0695 25.5849C21.7958 26.3393 21.3769 26.8425 20.8223 27.0792C19.9681 27.4445 19.0645 27.0535 19.0563 27.0493L18.904 26.9825L18.1311 29.6139L18.2515 29.6643C18.9472 29.9535 19.8302 29.9998 20.3149 29.9998C20.5238 29.9998 20.6586 29.9916 20.673 29.9906C23.7223 29.9906 24.8924 26.8806 24.9027 26.8518L32.6468 6.62235H29.1983Z" fill="white"></path><defs><linearGradient id="paint0_linear_4122_4428" x1="88.6577" y1="14.8635" x2="97.0936" y2="28.5502" gradientUnits="userSpaceOnUse"><stop stop-color="#E9ECEE"></stop><stop offset="0.26" stop-color="#E6E9EB"></stop><stop offset="0.39" stop-color="#DFE2E4"></stop><stop offset="0.49" stop-color="#D2D5D6"></stop><stop offset="0.58" stop-color="#C0C2C4"></stop><stop offset="0.65" stop-color="#A8AAAB"></stop><stop offset="0.72" stop-color="#8B8C8E"></stop><stop offset="0.79" stop-color="#68696A"></stop><stop offset="0.85" stop-color="#3F4041"></stop><stop offset="0.9" stop-color="#131313"></stop><stop offset="0.92"></stop></linearGradient></defs></svg>