<svg xmlns="http://www.w3.org/2000/svg" width="124" height="24" viewBox="0 0 124 24" fill="none"><path d="M24.8707 9.77813C24.8707 7.60573 23.289 6.3125 20.6437 6.3125H18.5105C18.2503 6.3125 18.0007 6.41588 17.8167 6.59989C17.6327 6.7839 17.5293 7.03348 17.5293 7.29371V17.9418C17.5293 17.9585 17.5359 17.9744 17.5477 17.9862C17.5595 17.998 17.5754 18.0046 17.5921 18.0046H19.0737C19.0904 18.0046 19.1063 17.998 19.1181 17.9862C19.1299 17.9744 19.1365 17.9585 19.1365 17.9418V8.49079C19.1365 8.32372 19.2029 8.16349 19.321 8.04535C19.4392 7.92722 19.5994 7.86085 19.7665 7.86085H20.6437C22.3706 7.86085 23.2458 8.52807 23.2458 9.84486C23.2458 11.1322 22.4962 11.9486 20.8183 12.4843L20.6495 12.5393L24.0249 17.9752C24.0305 17.9841 24.0383 17.9915 24.0476 17.9967C24.0569 18.0018 24.0673 18.0046 24.0779 18.0046H25.8284C25.8396 18.0046 25.8506 18.0015 25.8602 17.9958C25.8698 17.9901 25.8777 17.9819 25.8832 17.9721C25.8886 17.9623 25.8912 17.9512 25.8909 17.94C25.8906 17.9288 25.8873 17.9179 25.8814 17.9084L22.8592 13.1005C23.477 12.7969 23.9948 12.3226 24.3513 11.7337C24.7078 11.1449 24.888 10.4663 24.8707 9.77813Z" fill="white"></path><path d="M32.5144 18.0066H37.6932C37.7099 18.0066 37.7259 17.9999 37.7376 17.9882C37.7494 17.9764 37.756 17.9604 37.756 17.9438V16.519C37.756 16.5024 37.7494 16.4864 37.7376 16.4746C37.7259 16.4629 37.7099 16.4562 37.6932 16.4562H34.1314C33.8712 16.4562 33.6216 16.3529 33.4376 16.1689C33.2536 15.9848 33.1502 15.7353 33.1502 15.475V12.7747H37.0967C37.1051 12.7748 37.1134 12.7731 37.1212 12.7698C37.1289 12.7665 37.1359 12.7617 37.1418 12.7557C37.1476 12.7496 37.1522 12.7425 37.1553 12.7346C37.1583 12.7268 37.1597 12.7184 37.1595 12.71V11.2892C37.1595 11.2725 37.1528 11.2566 37.1411 11.2448C37.1293 11.233 37.1133 11.2264 37.0967 11.2264H33.1443V8.84795C33.1443 8.58771 33.2477 8.33814 33.4317 8.15413C33.6157 7.97011 33.8653 7.86674 34.1256 7.86674H37.6874C37.704 7.86674 37.72 7.86012 37.7318 7.84834C37.7435 7.83657 37.7501 7.82059 37.7501 7.80394V6.3753C37.7501 6.35864 37.7435 6.34267 37.7318 6.33089C37.72 6.31912 37.704 6.3125 37.6874 6.3125H32.5144C32.2542 6.3125 32.0046 6.41588 31.8206 6.59989C31.6366 6.7839 31.5332 7.03348 31.5332 7.29371V17.0253C31.5332 17.2856 31.6366 17.5352 31.8206 17.7192C32.0046 17.9032 32.2542 18.0066 32.5144 18.0066Z" fill="white"></path><path d="M48.2274 6.3125H44.9148C44.6546 6.3125 44.405 6.41588 44.221 6.59989C44.037 6.7839 43.9336 7.03348 43.9336 7.29371V17.0253C43.9336 17.2856 44.037 17.5352 44.221 17.7192C44.405 17.9032 44.6546 18.0066 44.9148 18.0066H48.2274C51.9167 18.0066 54.2991 15.6948 54.2991 12.1193C54.2991 8.58694 51.9167 6.3125 48.2274 6.3125ZM52.631 12.1664C52.631 14.8117 50.9414 16.4562 48.2234 16.4562H46.526C46.2657 16.4562 46.0161 16.3529 45.8321 16.1689C45.6481 15.9848 45.5447 15.7353 45.5447 15.475V8.84795C45.5447 8.58771 45.6481 8.33814 45.8321 8.15413C46.0161 7.97011 46.2657 7.86674 46.526 7.86674H48.2234C50.9041 7.86085 52.631 9.55246 52.631 12.1664Z" fill="white"></path><path d="M60.4515 18.0066H61.941C61.9576 18.0066 61.9736 17.9999 61.9854 17.9882C61.9971 17.9764 62.0038 17.9604 62.0038 17.9438V6.3753C62.0038 6.35864 61.9971 6.34267 61.9854 6.33089C61.9736 6.31912 61.9576 6.3125 61.941 6.3125H61.3758C61.1155 6.3125 60.866 6.41588 60.682 6.59989C60.498 6.7839 60.3946 7.03348 60.3946 7.29371V17.9418C60.394 17.9578 60.3996 17.9734 60.4102 17.9855C60.4207 17.9975 60.4355 18.0051 60.4515 18.0066Z" fill="white"></path><path d="M121.83 9.77813C121.83 7.6077 120.246 6.3125 117.597 6.3125H115.469C115.209 6.3125 114.96 6.41588 114.776 6.59989C114.592 6.7839 114.488 7.03348 114.488 7.29371V18.0066H116.103V8.49079C116.103 8.32372 116.17 8.16349 116.288 8.04535C116.406 7.92722 116.566 7.86085 116.733 7.86085H117.603C119.328 7.86085 120.203 8.52807 120.203 9.84486C120.203 10.7593 119.822 11.4364 119.002 11.9427C118.617 12.1729 118.206 12.3548 117.777 12.4843L117.607 12.5393L118.325 13.6971C119.169 13.597 120.35 12.759 120.35 12.759C120.821 12.4204 121.202 11.9718 121.46 11.4523C121.718 10.9327 121.845 10.358 121.83 9.77813Z" fill="white"></path><path d="M11.5177 15.8812C11.5123 15.859 11.5019 15.8382 11.4873 15.8205C11.4727 15.8028 11.4542 15.7887 11.4334 15.7792C11.4132 15.7695 11.391 15.7644 11.3686 15.7644C11.3462 15.7644 11.324 15.7695 11.3038 15.7792C10.2989 16.264 9.19921 16.5206 8.0835 16.5308C5.49899 16.5308 3.62881 14.6959 3.62881 12.1664C3.62881 9.63683 5.49899 7.78627 8.0835 7.78627C9.20253 7.795 10.3057 8.0517 11.3136 8.53788C11.3338 8.54761 11.356 8.55267 11.3784 8.55267C11.4008 8.55267 11.423 8.54761 11.4432 8.53788C11.4641 8.52839 11.4825 8.51427 11.4971 8.49659C11.5118 8.47891 11.5222 8.45813 11.5275 8.43583L11.7944 7.31136C11.8026 7.27744 11.7992 7.24175 11.7846 7.21005C11.77 7.17836 11.7451 7.15252 11.714 7.13671C10.5851 6.58432 9.33999 6.31108 8.0835 6.33996C4.49816 6.33996 2 8.73608 2 12.1664C2 15.5967 4.49816 17.9771 8.0835 17.9771C9.33999 18.006 10.5851 17.7328 11.714 17.1804C11.7451 17.1646 11.77 17.1387 11.7846 17.107C11.7992 17.0753 11.8026 17.0396 11.7944 17.0057L11.5177 15.8812Z" fill="white"></path><path d="M77.7769 17.0057L77.51 15.8812C77.5046 15.859 77.4942 15.8382 77.4796 15.8205C77.4649 15.8028 77.4465 15.7887 77.4256 15.7792C77.4054 15.7695 77.3832 15.7644 77.3608 15.7644C77.3384 15.7644 77.3163 15.7695 77.2961 15.7792C76.2881 16.2654 75.185 16.5221 74.0659 16.5308C71.4912 16.5308 69.621 14.6959 69.621 12.1664C69.621 9.63683 71.4912 7.78627 74.0659 7.78627C75.185 7.795 76.2881 8.0517 77.2961 8.53788C77.3163 8.54761 77.3384 8.55267 77.3608 8.55267C77.3832 8.55267 77.4054 8.54761 77.4256 8.53788C77.4465 8.52839 77.4649 8.51427 77.4796 8.49659C77.4942 8.47891 77.5046 8.45813 77.51 8.43583L77.7769 7.31136C77.7844 7.27746 77.7806 7.24203 77.766 7.21049C77.7515 7.17895 77.727 7.15303 77.6964 7.13671C76.5675 6.58432 75.3224 6.31108 74.0659 6.33996C70.4904 6.33996 67.9824 8.73608 67.9824 12.1664C67.9824 15.5967 70.4806 17.9771 74.0659 17.9771C75.3224 18.006 76.5675 17.7328 77.6964 17.1804C77.727 17.164 77.7515 17.1381 77.766 17.1066C77.7806 17.0751 77.7844 17.0396 77.7769 17.0057Z" fill="white"></path><path d="M107.851 9.77813C107.851 7.6077 106.267 6.3125 103.618 6.3125H101.495C101.235 6.3125 100.985 6.41588 100.801 6.59989C100.617 6.7839 100.514 7.03348 100.514 7.29371V17.9418C100.514 17.9585 100.52 17.9744 100.532 17.9862C100.544 17.998 100.56 18.0046 100.576 18.0046H102.066C102.083 18.0046 102.099 17.998 102.11 17.9862C102.122 17.9744 102.129 17.9585 102.129 17.9418V8.49079C102.129 8.32372 102.195 8.16349 102.313 8.04535C102.431 7.92722 102.592 7.86085 102.759 7.86085H103.628C105.353 7.86085 106.228 8.52807 106.228 9.84486C106.228 11.1322 105.481 11.9486 103.803 12.4843L103.632 12.5393L106.99 17.9752C106.995 17.984 107.003 17.9913 107.013 17.9965C107.022 18.0016 107.032 18.0044 107.043 18.0046H108.793C108.804 18.0049 108.816 18.0021 108.826 17.9966C108.836 17.991 108.844 17.9829 108.849 17.973C108.855 17.9631 108.858 17.9519 108.858 17.9405C108.857 17.9292 108.854 17.9181 108.848 17.9084L105.838 13.1005C106.456 12.797 106.974 12.3227 107.331 11.7339C107.687 11.1451 107.868 10.4664 107.851 9.77813Z" fill="white"></path><path d="M85.2445 10.9947C85.0964 11.1422 84.8962 11.2254 84.6872 11.2263H82.6561C82.6435 11.2266 82.631 11.2231 82.6204 11.2162C82.6098 11.2093 82.6015 11.1994 82.5967 11.1878C82.5918 11.1761 82.5905 11.1632 82.5931 11.1509C82.5956 11.1385 82.6019 11.1272 82.6109 11.1184L88.4079 5.31943C88.4525 5.27497 88.5128 5.25 88.5757 5.25C88.6386 5.25 88.699 5.27497 88.7435 5.31943L94.5425 11.1184C94.5506 11.1275 94.5561 11.1387 94.5581 11.1508C94.5602 11.1629 94.5587 11.1753 94.554 11.1866C94.5493 11.1979 94.5414 11.2076 94.5314 11.2147C94.5214 11.2217 94.5096 11.2257 94.4973 11.2263H92.4682C92.3646 11.2264 92.262 11.206 92.1664 11.1662C92.0707 11.1265 91.9839 11.0682 91.9109 10.9947L89.4382 8.52406C89.3252 8.41073 89.1909 8.32081 89.0431 8.25946C88.8952 8.19811 88.7368 8.16653 88.5767 8.16653C88.4167 8.16653 88.2582 8.19811 88.1103 8.25946C87.9625 8.32081 87.8282 8.41073 87.7152 8.52406L85.2445 10.9947ZM85.2445 13.0062C85.0964 12.8588 84.8962 12.7756 84.6872 12.7747H82.6561C82.6435 12.7744 82.631 12.7779 82.6204 12.7848C82.6098 12.7916 82.6015 12.8016 82.5967 12.8132C82.5918 12.8249 82.5905 12.8377 82.5931 12.8501C82.5956 12.8625 82.6019 12.8738 82.6109 12.8826L88.4079 18.6796C88.43 18.7019 88.4563 18.7196 88.4853 18.7317C88.5142 18.7438 88.5453 18.75 88.5767 18.75C88.6081 18.75 88.6392 18.7438 88.6681 18.7317C88.6971 18.7196 88.7234 18.7019 88.7455 18.6796L94.5425 12.8826C94.5506 12.8735 94.5561 12.8622 94.5581 12.8502C94.5602 12.8381 94.5587 12.8257 94.554 12.8144C94.5493 12.8031 94.5414 12.7933 94.5314 12.7863C94.5214 12.7793 94.5096 12.7752 94.4973 12.7747H92.4682C92.3646 12.7746 92.262 12.795 92.1664 12.8347C92.0707 12.8745 91.9839 12.9328 91.9109 13.0062L89.4382 15.4769C89.2094 15.7048 88.8997 15.8328 88.5767 15.8328C88.2538 15.8328 87.944 15.7048 87.7152 15.4769L85.2445 13.0062Z" fill="url(#paint0_linear_5641_15827)"></path><defs><linearGradient id="paint0_linear_5641_15827" x1="93.5495" y1="2.313" x2="86.9302" y2="15.2061" gradientUnits="userSpaceOnUse"><stop stop-color="#CD42A5"></stop><stop offset="0.14" stop-color="#C948A6"></stop><stop offset="0.32" stop-color="#BF58AB"></stop><stop offset="0.52" stop-color="#AE74B1"></stop><stop offset="0.75" stop-color="#969ABB"></stop><stop offset="0.98" stop-color="#78CAC7"></stop><stop offset="1" stop-color="#75CEC8"></stop></linearGradient></defs></svg>