<svg xmlns="http://www.w3.org/2000/svg" width="68" height="68" viewBox="0 0 68 68" fill="none"><path d="M0 34C0 15.2223 15.2223 0 34 0C52.7777 0 68 15.2223 68 34C68 52.7777 52.7777 68 34 68C15.2223 68 0 52.7777 0 34Z" fill="white"></path><path d="M33.6855 15.5C38.1599 15.5 41.7871 19.1272 41.7871 23.6016C41.7871 28.076 38.16 31.7031 33.6855 31.7031C29.2112 31.7031 25.584 28.0759 25.584 23.6016C25.584 19.1272 29.2112 15.5 33.6855 15.5Z" fill="#E6EEFF" stroke="#2E71E5"></path><path d="M33.6865 18.4199C36.5474 18.4201 38.8662 20.7397 38.8662 23.6006C38.866 26.4613 36.5473 28.7801 33.6865 28.7803C30.8256 28.7803 28.506 26.4614 28.5059 23.6006C28.5059 20.7396 30.8255 18.4199 33.6865 18.4199Z" fill="#A8C7FF" stroke="#2E71E5"></path><path fill-rule="evenodd" clip-rule="evenodd" d="M43.6617 23.0517C44.3388 22.524 44.8622 22.1162 45.1427 21.9109C46.6013 20.8436 47.8357 21.9109 47.7795 24.0456C47.7638 24.6465 47.7568 25.6126 47.7551 26.7049C49.3266 28.2257 50.458 30.1985 50.9401 32.4137H51.9336C52.8795 32.4137 53.6463 33.1805 53.6463 34.1264V39.5168C53.6463 40.4627 52.8795 41.2296 51.9336 41.2296H50.2568C49.1736 43.707 47.228 45.7211 44.7995 46.8925V50.289C44.7995 51.2349 44.0327 52.0017 43.0868 52.0017H37.1174C36.1715 52.0017 35.4047 51.2349 35.4047 50.289V48.0091H31.6536V50.2863C31.6536 51.2322 30.8867 51.9991 29.9408 51.9991H23.9714C23.0255 51.9991 22.2587 51.2322 22.2587 50.2863V45.7318C19.6357 43.7511 17.9033 40.6535 17.7688 37.1463C16.208 35.4323 14.7131 32.8901 15.0472 31.2196C15.3336 29.7874 16.3864 30.8805 17.6105 32.1513C17.7358 32.2814 17.8629 32.4133 17.9911 32.5446C18.7594 28.7998 21.3796 25.7303 24.8526 24.3351C25.1314 24.8132 25.6496 25.1344 26.2429 25.1344H40.9657C41.9724 24.3681 42.9114 23.6363 43.6617 23.0517Z" fill="#E6EEFF" stroke="#28363E"></path></svg>