<svg width="20" height="20" viewBox="0 0 20 20" fill="none" xmlns="http://www.w3.org/2000/svg">
<path fill-rule="evenodd" clip-rule="evenodd" d="M1 3.5H19C19.5523 3.5 20 3.94772 20 4.5V15.5C20 16.0523 19.5523 16.5 19 16.5H1C0.447716 16.5 0 16.0523 0 15.5V4.5C0 3.94772 0.447715 3.5 1 3.5ZM2 8.5V14.5H15C15 14.106 15.0776 13.7159 15.2284 13.3519C15.3791 12.988 15.6001 12.6573 15.8787 12.3787C16.1573 12.1001 16.488 11.8791 16.8519 11.7284C17.2159 11.5776 17.606 11.5 18 11.5V5.5L5 5.5C5 5.89397 4.9224 6.28407 4.77164 6.64805C4.62087 7.01203 4.3999 7.34274 4.12132 7.62132C3.84274 7.8999 3.51203 8.12087 3.14805 8.27164C2.78407 8.4224 2.39397 8.5 2 8.5ZM2 6.54974C2.13785 6.54974 2.27436 6.52258 2.40172 6.46983C2.52908 6.41708 2.6448 6.33975 2.74228 6.24228C2.83975 6.1448 2.91708 6.02908 2.96983 5.90172C3.02258 5.77436 3.04974 5.63785 3.04974 5.5L2 5.5L2 6.54974ZM18 14.5H16.9503C16.9503 14.3621 16.9774 14.2256 17.0302 14.0983C17.0829 13.9709 17.1602 13.8552 17.2577 13.7577C17.3552 13.6602 17.4709 13.5829 17.5983 13.5302C17.7256 13.4774 17.8621 13.4503 18 13.4503V14.5Z" fill="#28363E"/>
<path d="M12 6.5H8.94483L8 10.5368H9.24828L8.35862 13.5L12 9.16912H10.3931L12 6.5Z" fill="#28363E"/>
</svg>
