<svg width="120" height="120" viewBox="0 0 120 120" fill="none" xmlns="http://www.w3.org/2000/svg">
<path d="M59.7186 56.2775L59.7186 24.082" stroke="#28363E" stroke-width="2.5"/>
<ellipse cx="59.4221" cy="82.2198" rx="27.7804" ry="27.7804" fill="#A8C7FF"/>
<path d="M60.849 94.3964C60.849 94.3964 60.849 94.5728 60.849 94.3964V96.3367C60.849 97.3951 60.1377 98.1007 59.0709 98.1007C58.0041 98.1007 57.2928 97.3951 57.2928 96.3367V94.5728C57.2928 94.5728 57.2928 94.5728 57.2928 94.3964C52.8477 93.8672 50.1806 91.3977 50.1806 87.517C50.1806 86.4586 50.8918 85.753 51.9587 85.753C53.0255 85.753 53.7367 86.4586 53.7367 87.517C53.7367 88.399 53.7367 91.0449 59.0709 91.0449C62.4492 91.0449 64.4051 89.2809 64.4051 87.517C64.4051 86.635 64.4051 84.8711 58.7153 83.9891C54.8036 82.9307 50.1806 81.8724 50.1806 76.9333C50.1806 73.0526 52.8477 70.5831 57.2928 70.0539C57.2928 70.0539 57.2928 70.0539 57.2928 69.8775V68.1136C57.2928 67.0552 58.0041 66.3496 59.0709 66.3496C60.1377 66.3496 60.849 67.0552 60.849 68.1136V69.8775C60.849 69.8775 60.849 69.8775 60.849 70.0539C66.3609 70.7595 67.0722 74.4638 67.0722 76.0513C67.0722 77.1097 66.3609 77.8153 65.2941 77.8153C64.2273 77.8153 63.5161 77.1097 63.5161 76.0513C63.5161 75.3457 63.5161 73.4054 59.0709 73.4054C53.7367 73.4054 53.7367 76.0513 53.7367 76.9333C53.7367 78.8736 55.5148 79.5792 59.4265 80.4612C62.9826 80.9904 67.9612 82.4015 67.9612 87.517C67.9612 90.5157 65.2941 93.6908 60.849 94.3964Z" fill="#28363E"/>
<path d="M75.2291 46.697H63.7967C61.5448 46.697 59.6462 44.8362 60.2331 42.6621C62.0054 36.0975 67.9431 33.1651 71.4201 32.4086C71.6609 32.3563 71.9064 32.3359 72.1528 32.3359H84.0104C86.3957 32.3359 88.3295 34.4088 87.6053 36.6815C85.1986 44.2336 78.6634 46.5397 75.2291 46.697Z" fill="#2E71E5" stroke="#28363E" stroke-width="2.5"/>
<path d="M75.2291 25.9567H63.7967C61.5448 25.9567 59.6595 24.106 60.1343 21.9046C61.7671 14.3345 67.8319 10.9618 71.3821 10.09C71.6474 10.0249 71.92 10 72.1931 10H84.047C86.4189 10 88.3381 12.0392 87.7403 14.3346C85.4527 23.1195 78.7299 25.7786 75.2291 25.9567Z" fill="#2E71E5" stroke="#28363E" stroke-width="2.5"/>
<path d="M44.2122 46.697H55.6446C57.8965 46.697 59.7951 44.8362 59.2081 42.6621C57.4359 36.0975 51.4982 33.1651 48.0212 32.4086C47.7804 32.3563 47.5349 32.3359 47.2885 32.3359H35.4309C33.0456 32.3359 31.1117 34.4088 31.836 36.6815C34.2427 44.2336 40.7778 46.5397 44.2122 46.697Z" fill="#2E71E5" stroke="#28363E" stroke-width="2.5"/>
<path d="M44.2122 25.9567H55.6445C57.8965 25.9567 59.7818 24.106 59.3069 21.9046C57.6741 14.3345 51.6094 10.9618 48.0591 10.09C47.7939 10.0249 47.5212 10 47.2481 10H35.3943C33.0224 10 31.1032 12.0392 31.7009 14.3346C33.9885 23.1195 40.7113 25.7786 44.2122 25.9567Z" fill="#2E71E5" stroke="#28363E" stroke-width="2.5"/>
<path d="M69.2247 107.5C86.6248 83.2456 73.4539 64.1036 64.6934 57.5644C70.433 56.9699 82.6373 60.2395 85.5373 78.0736C88.4374 95.9078 75.8706 105.122 69.2247 107.5Z" fill="#C7DBFF"/>
<path d="M85.9524 82.2198C85.9524 96.8722 74.0744 108.75 59.422 108.75C44.7697 108.75 32.8917 96.8722 32.8917 82.2198C32.8917 67.5675 44.7697 55.6895 59.422 55.6895C74.0744 55.6895 85.9524 67.5675 85.9524 82.2198Z" stroke="#28363E" stroke-width="2.5"/>
</svg>
