<svg xmlns="http://www.w3.org/2000/svg" width="64" height="64" viewBox="0 0 64 64" fill="none"><path d="M5.66667 53.0084V26.5728H57.6667V53.0084C57.6667 54.8958 56.1366 56.4259 54.2492 56.4259H9.08414C7.19672 56.4259 5.66667 54.8958 5.66667 53.0084Z" fill="#E6EEFF" stroke="#253138" stroke-width="1.33333"></path><path d="M14.2565 32.6482C14.2565 32.2883 14.5482 31.9966 14.9081 31.9966H21.3111C21.671 31.9966 21.9627 32.2883 21.9627 32.6482V39.0512C21.9627 39.4111 21.671 39.7028 21.3111 39.7028H14.9081C14.5482 39.7028 14.2565 39.4111 14.2565 39.0512V32.6482Z" fill="#85ADFF" stroke="#2E71E5" stroke-width="1.33333"></path><path d="M14.2565 45.0774C14.2565 44.7175 14.5482 44.4258 14.9081 44.4258H21.3111C21.671 44.4258 21.9627 44.7175 21.9627 45.0774V51.4804C21.9627 51.8403 21.671 52.132 21.3111 52.132H14.9081C14.5482 52.132 14.2565 51.8403 14.2565 51.4804V45.0774Z" fill="white" stroke="#2E71E5" stroke-width="1.33333"></path><path d="M27.8132 32.6482C27.8132 32.2883 28.1049 31.9966 28.4647 31.9966H34.8678C35.2276 31.9966 35.5193 32.2883 35.5193 32.6482V39.0512C35.5193 39.4111 35.2276 39.7028 34.8678 39.7028H28.4647C28.1049 39.7028 27.8132 39.4111 27.8132 39.0512V32.6482Z" fill="white" stroke="#2E71E5" stroke-width="1.33333"></path><path d="M41.3717 32.6482C41.3717 32.2883 41.6635 31.9966 42.0233 31.9966H48.4264C48.7862 31.9966 49.0779 32.2883 49.0779 32.6482V39.0512C49.0779 39.4111 48.7862 39.7028 48.4264 39.7028H42.0233C41.6635 39.7028 41.3717 39.4111 41.3717 39.0512V32.6482Z" fill="#85ADFF" stroke="#2E71E5" stroke-width="1.33333"></path><path d="M27.8132 45.0774C27.8132 44.7175 28.1049 44.4258 28.4647 44.4258H34.8678C35.2276 44.4258 35.5193 44.7175 35.5193 45.0774V51.4804C35.5193 51.8403 35.2276 52.132 34.8678 52.132H28.4647C28.1049 52.132 27.8132 51.8403 27.8132 51.4804V45.0774Z" fill="white" stroke="#2E71E5" stroke-width="1.33333"></path><path d="M41.3717 45.0771C41.3717 44.7173 41.6635 44.4256 42.0233 44.4256H48.4264C48.7862 44.4256 49.0779 44.7173 49.0779 45.0771V51.4802C49.0779 51.84 48.7862 52.1318 48.4264 52.1318H42.0233C41.6635 52.1318 41.3717 51.84 41.3717 51.4802V45.0771Z" fill="#85ADFF" stroke="#2E71E5" stroke-width="1.33333"></path><path d="M5.66667 28.0278H57.6667V18.7673C57.6667 16.8799 56.1366 15.3498 54.2492 15.3498H9.08414C7.19672 15.3498 5.66667 16.8799 5.66667 18.7673V28.0278Z" fill="#A8C7FF" stroke="#253138" stroke-width="1.33333"></path><path d="M18.3336 19.4406C19.588 19.4406 20.6048 18.4238 20.6048 17.1694V9.93781C20.6048 8.68347 19.588 7.66662 18.3336 7.66662C17.0793 7.66662 16.0624 8.68347 16.0624 9.93781V17.1694C16.0624 18.4238 17.0793 19.4406 18.3336 19.4406Z" fill="#E6EEFF" stroke="#253138" stroke-width="1.33333"></path><path d="M45.4547 19.4406C46.7091 19.4406 47.7259 18.4238 47.7259 17.1694V9.93781C47.7259 8.68347 46.7091 7.66662 45.4547 7.66662C44.2004 7.66662 43.1835 8.68347 43.1835 9.93781V17.1694C43.1835 18.4238 44.2004 19.4406 45.4547 19.4406Z" fill="#E6EEFF" stroke="#253138" stroke-width="1.33333"></path></svg>