<svg xmlns="http://www.w3.org/2000/svg" width="24" height="24" viewBox="0 0 24 24" fill="none"><path d="M12.7034 2.12837L19.751 4.76617C20.5363 5.05814 21.0598 5.81324 21.0598 6.64888V12.0453C21.0598 15.4785 19.1167 18.6197 16.046 20.15L12.6732 21.8414C12.2504 22.0529 11.747 22.0529 11.3241 21.8414L7.95134 20.15C4.88062 18.6197 2.9375 15.4885 2.9375 12.0554V6.65895C2.9375 5.82331 3.46103 5.06821 4.24633 4.77624L11.2939 2.12837C11.747 1.95721 12.2504 1.95721 12.7034 2.12837ZM11.9987 4.01107L4.95109 6.64888V12.0453C4.95109 14.7133 6.46129 17.1498 8.84739 18.3478L11.9987 19.9285L15.1499 18.3478C17.536 17.1498 19.0462 14.7133 19.0462 12.0453V6.64888L11.9987 4.01107ZM11.9987 7.96778C13.1061 7.96778 14.0123 8.86383 14.0123 9.98137C14.0123 10.6459 13.6901 11.2701 13.1363 11.6426L13.0055 11.7332V15.0254C13.0055 15.5792 12.5524 16.0322 11.9987 16.0322C11.4852 16.0322 11.0623 15.6496 11.0019 15.1462V15.0254V11.7332C10.0354 11.1795 9.70317 9.95117 10.267 8.98465C10.6294 8.36043 11.2939 7.97785 12.0087 7.97785L11.9987 7.96778Z" fill="white"></path></svg>