<svg xmlns="http://www.w3.org/2000/svg" width="326" height="24" viewBox="0 0 326 24" fill="none"><path d="M112.749 10.8977C111.173 10.8977 109.913 9.79494 109.913 8.37713L110.858 8.37713C110.858 9.79494 111.961 10.11 113.379 10.11C114.482 10.11 115.742 9.47987 115.742 8.37713C115.742 7.43192 114.954 7.11686 114.167 6.80179C112.591 6.32918 110.228 5.85658 110.228 3.80863C110.228 2.23329 111.804 1.28809 113.379 1.28809C114.639 1.28809 116.372 1.76069 116.53 3.49357L115.584 3.49357C115.584 2.39083 114.482 2.07576 113.536 2.07576C112.591 2.07576 111.331 2.54836 111.331 3.6511C111.331 6.17165 116.845 5.06891 116.845 8.21959C116.53 10.2675 114.639 10.8977 112.749 10.8977Z" fill="white"></path><path d="M119.52 1.60352L119.52 7.43229C119.52 9.00763 120.623 10.1104 122.198 10.1104C123.773 10.1104 124.876 9.16516 124.876 7.43229L124.876 1.60352L125.821 1.60352L125.821 7.43229C125.821 9.3227 124.561 10.898 122.198 10.898C119.835 10.898 118.732 9.48023 118.575 7.43229L118.575 1.60352L119.52 1.60352Z" fill="white"></path><path d="M128.343 10.7405L128.343 1.60352L130.863 1.60352C132.754 1.60352 134.802 2.07612 134.802 4.12407C134.802 6.32955 132.754 6.80215 130.863 6.64461L129.288 6.64461L129.288 10.583L128.343 10.583L128.343 10.7405ZM129.288 6.01448L131.493 6.01448C132.754 6.01448 134.014 5.69941 134.014 4.12407C134.014 2.70626 132.911 2.23365 131.493 2.23365L129.288 2.23365L129.288 6.01448Z" fill="white"></path><path d="M136.693 10.7405L136.693 1.60352L142.522 1.60352L142.522 2.39119L137.638 2.39119L137.638 5.69941L142.364 5.69941L142.364 6.48708L137.638 6.48708L137.638 10.1104L142.837 10.1104L142.837 10.898L136.693 10.898L136.693 10.7405Z" fill="white"></path><path d="M145.83 10.7405L144.884 10.7405L144.884 1.60352L148.035 1.60352C148.823 1.60352 149.61 1.60352 150.398 2.07612C151.028 2.39119 151.343 3.17886 151.343 3.96653C151.343 4.91174 150.556 5.69941 149.453 5.85694C150.713 6.01448 151.028 6.80215 151.028 7.90489C151.186 9.3227 151.186 10.1104 151.501 10.583L150.556 10.583C150.398 9.95284 150.241 9.3227 150.241 8.69256C150.083 6.64461 149.926 6.17201 148.193 6.17201L145.83 6.17201L145.83 10.7405ZM147.72 5.69941C148.98 5.69941 150.556 5.69941 150.556 4.12407C150.556 2.39119 148.823 2.54872 147.878 2.54872L145.83 2.54872L145.83 5.69941L147.72 5.69941Z" fill="white"></path><path d="M154.02 10.7405L154.02 1.60352L154.966 1.60352L154.966 10.7405L154.02 10.7405Z" fill="white"></path><path d="M157.645 1.60352L158.59 1.60352L163.946 9.63777L163.946 1.60352L164.891 1.60352L164.891 10.7405L163.789 10.7405L158.59 2.86379L158.59 10.7405L157.645 10.7405L157.645 1.60352Z" fill="white"></path><path d="M169.461 2.39119L166.31 2.39119L166.31 1.60352L173.399 1.60352L173.399 2.39119L170.249 2.39119L170.249 10.7405L169.303 10.7405L169.461 2.39119Z" fill="white"></path><path d="M174.974 10.7405L174.974 1.60352L180.803 1.60352L180.803 2.39119L175.919 2.39119L175.919 5.69941L180.645 5.69941L180.645 6.48708L175.919 6.48708L175.919 10.1104L181.118 10.1104L181.118 10.898L174.974 10.898L174.974 10.7405Z" fill="white"></path><path d="M183.164 1.60352L184.11 1.60352L189.466 9.63777L189.466 1.60352L190.411 1.60352L190.411 10.7405L189.308 10.7405L184.11 2.86379L184.11 10.7405L183.164 10.7405L183.164 1.60352Z" fill="white"></path><path d="M195.452 1.60352C198.603 1.60352 200.493 3.17886 200.493 6.17201C200.493 9.16516 198.603 10.7405 195.452 10.7405L192.774 10.7405L192.774 1.60352L195.452 1.60352ZM195.767 9.95283C198.445 9.95283 199.705 8.37749 199.705 6.17201C199.705 3.49393 197.972 2.23365 195.294 2.39119L193.877 2.39119L193.877 9.95283L195.767 9.95283Z" fill="white"></path><path d="M202.857 10.7405L202.857 1.60352L208.686 1.60352L208.686 2.39119L203.802 2.39119L203.802 5.69941L208.528 5.69941L208.528 6.48708L203.802 6.48708L203.802 10.1104L209.001 10.1104L209.001 10.898L202.857 10.898L202.857 10.7405Z" fill="white"></path><path d="M210.891 1.60352L211.836 1.60352L217.192 9.63777L217.192 1.60352L218.138 1.60352L218.138 10.7405L217.035 10.7405L211.836 2.86379L211.836 10.7405L210.891 10.7405L210.891 1.60352Z" fill="white"></path><path d="M226.802 3.8093C226.644 2.70656 225.541 2.23396 224.439 2.23396C221.918 2.23396 221.131 4.28191 221.131 6.17232C221.131 8.06273 221.918 10.1107 224.439 10.1107C225.541 10.1107 226.644 9.63807 226.802 8.53533L227.747 8.53533C227.432 10.1107 226.014 10.8983 224.439 10.8983C221.446 10.8983 220.185 8.69287 220.185 6.17232C220.185 3.65177 221.446 1.44629 224.439 1.44629C226.014 1.44629 227.589 2.07643 227.747 3.8093L226.802 3.8093Z" fill="white"></path><path d="M229.954 10.7405L229.954 1.60352L230.899 1.60352L230.899 10.7405L229.954 10.7405Z" fill="white"></path><path d="M232.314 10.7405L236.253 1.60352L237.355 1.60352L241.294 10.7405L240.349 10.7405L239.246 8.21996L234.362 8.21996L233.26 10.7405L232.314 10.7405ZM238.773 7.58982L236.725 2.39119L234.52 7.58982L238.773 7.58982Z" fill="white"></path><path d="M246.335 10.7405L246.335 1.60352L251.849 1.60352L251.849 2.39119L247.28 2.39119L247.28 5.54187L251.691 5.54187L251.691 6.32954L247.28 6.32954L247.28 10.7405L246.335 10.7405Z" fill="white"></path><path d="M253.899 10.7405L253.899 1.60352L254.845 1.60352L254.845 10.7405L253.899 10.7405Z" fill="white"></path><path d="M257.52 1.60352L258.465 1.60352L263.821 9.63777L263.821 1.60352L264.766 1.60352L264.766 10.7405L263.664 10.7405L258.465 2.86379L258.465 10.7405L257.52 10.7405L257.52 1.60352Z" fill="white"></path><path d="M266.187 10.7405L270.125 1.60352L271.07 1.60352L275.009 10.7405L274.063 10.7405L272.961 8.21996L268.077 8.21996L267.132 10.7405L266.187 10.7405ZM272.646 7.58982L270.598 2.39119L268.392 7.58982L272.646 7.58982Z" fill="white"></path><path d="M276.266 1.60352L277.211 1.60352L282.567 9.63777L282.567 1.60352L283.513 1.60352L283.513 10.7405L282.41 10.7405L277.211 2.86379L277.211 10.7405L276.266 10.7405L276.266 1.60352Z" fill="white"></path><path d="M292.181 3.8093C292.023 2.70656 290.92 2.23396 289.818 2.23396C287.297 2.23396 286.509 4.28191 286.509 6.17232C286.509 8.06273 287.297 10.1107 289.818 10.1107C290.92 10.1107 292.023 9.63807 292.181 8.53533L293.126 8.53533C292.811 10.1107 291.393 10.8983 289.818 10.8983C286.824 10.8983 285.564 8.69287 285.564 6.17232C285.564 3.65177 286.824 1.44629 289.818 1.44629C291.393 1.44629 292.968 2.07643 293.126 3.8093L292.181 3.8093Z" fill="white"></path><path d="M295.329 10.7405L295.329 1.60352L296.274 1.60352L296.274 10.7405L295.329 10.7405Z" fill="white"></path><path d="M298.955 10.7405L298.955 1.60352L304.783 1.60352L304.783 2.39119L299.9 2.39119L299.9 5.69941L304.626 5.69941L304.626 6.48708L299.9 6.48708L299.9 10.1104L305.099 10.1104L305.099 10.898L298.955 10.898L298.955 10.7405Z" fill="white"></path><path d="M308.091 10.7405L307.146 10.7405L307.146 1.60352L310.297 1.60352C311.084 1.60352 311.872 1.60352 312.66 2.07612C313.29 2.39119 313.605 3.17886 313.605 3.96653C313.605 4.91174 312.817 5.69941 311.715 5.85694C312.975 6.01448 313.29 6.80215 313.29 7.90489C313.447 9.3227 313.448 10.1104 313.763 10.583L312.817 10.583C312.66 9.95284 312.502 9.3227 312.502 8.69256C312.345 6.64461 312.187 6.17201 310.454 6.17201L308.091 6.17201L308.091 10.7405ZM309.982 5.69941C311.242 5.69941 312.817 5.69941 312.817 4.12407C312.817 2.39119 311.084 2.54872 310.139 2.54872L308.091 2.54872L308.091 5.69941L309.982 5.69941Z" fill="white"></path><path d="M315.021 10.7405L318.96 1.60352L320.062 1.60352L324.001 10.7405L323.056 10.7405L321.953 8.21996L317.069 8.21996L315.967 10.7405L315.021 10.7405ZM321.48 7.58982L319.432 2.39119L317.227 7.58982L321.48 7.58982Z" fill="white"></path><path d="M173.397 14.2051C176.548 14.2051 178.438 15.7804 178.438 18.7736C178.438 21.7667 176.548 23.3421 173.397 23.3421L170.719 23.3421L170.719 14.2051L173.397 14.2051ZM173.555 22.5544C176.233 22.5544 177.493 20.9791 177.493 18.7736C177.493 16.0955 175.76 14.8352 173.082 14.9927L171.664 14.9927L171.664 22.5544L173.555 22.5544Z" fill="white"></path><path d="M180.646 23.3421L180.646 14.2051L186.475 14.2051L186.475 14.9927L181.591 14.9927L181.591 18.301L186.317 18.301L186.317 19.0886L181.591 19.0886L181.591 22.7119L186.79 22.7119L186.79 23.4996L180.646 23.4996L180.646 23.3421Z" fill="white"></path><path d="M198.605 16.4109C198.448 15.3081 197.345 14.8355 196.242 14.8355C193.722 14.8355 192.934 16.8835 192.934 18.7739C192.934 20.6643 193.722 22.7122 196.242 22.7122C197.345 22.7122 198.448 22.2396 198.605 21.1369L199.708 21.1369C199.393 22.7122 197.975 23.4999 196.4 23.4999C193.407 23.4999 192.146 21.2944 192.146 18.7739C192.146 16.2533 193.407 14.0479 196.4 14.0479C197.975 14.0479 199.55 14.678 199.708 16.4109L198.605 16.4109Z" fill="white"></path><path d="M205.535 23.4999C202.7 23.4999 201.124 21.6095 201.124 18.7739C201.124 15.9383 202.7 14.0479 205.535 14.0479C208.371 14.0479 209.946 15.9383 209.946 18.7739C209.946 21.6095 208.371 23.4999 205.535 23.4999ZM205.535 22.7122C207.898 22.7122 209.001 20.6643 209.001 18.7739C209.001 16.7259 208.056 14.8355 205.535 14.8355C203.172 14.8355 202.069 16.8835 202.069 18.7739C202.069 20.8218 203.172 22.7122 205.535 22.7122Z" fill="white"></path><path d="M212.153 23.3421L212.153 14.2051L213.098 14.2051L213.098 22.5544L217.981 22.5544L217.981 23.3421L212.153 23.3421Z" fill="white"></path><path d="M223.496 23.4999C220.661 23.4999 219.085 21.6095 219.085 18.7739C219.085 15.9383 220.661 14.0479 223.496 14.0479C226.332 14.0479 227.907 15.9383 227.907 18.7739C227.907 21.6095 226.332 23.4999 223.496 23.4999ZM223.496 22.7122C225.859 22.7122 226.962 20.6643 226.962 18.7739C226.962 16.7259 226.017 14.8355 223.496 14.8355C221.133 14.8355 220.03 16.8835 220.03 18.7739C220.188 20.8218 221.133 22.7122 223.496 22.7122Z" fill="white"></path><path d="M230.113 23.3421L230.113 14.2051L231.53 14.2051L235.154 22.0818L238.935 14.2051L240.352 14.2051L240.352 23.3421L239.407 23.3421L239.407 14.9927L235.626 23.3421L234.681 23.3421L230.9 14.9927L230.9 23.3421L230.113 23.3421Z" fill="white"></path><path d="M242.87 23.3421L242.87 14.2051L246.336 14.2051C247.754 14.2051 249.014 14.9927 249.014 16.4106C249.014 17.3558 248.226 18.301 247.123 18.4585C248.384 18.616 249.329 19.4037 249.329 20.8215C249.329 22.0818 248.541 23.1845 246.493 23.1845L242.87 23.1845L242.87 23.3421ZM245.863 18.301C246.966 18.301 248.069 17.8284 248.069 16.7256C248.069 15.4654 246.966 15.1503 245.706 15.1503L243.815 15.1503L243.815 18.301L245.863 18.301ZM243.815 22.5544L246.021 22.5544C247.754 22.5544 248.699 22.0818 248.699 20.8215C248.699 19.2462 247.439 19.0886 245.548 19.0886L243.973 19.0886L243.973 22.5544L243.815 22.5544Z" fill="white"></path><path d="M252.009 23.3421L252.009 14.2051L252.954 14.2051L252.954 23.3421L252.009 23.3421Z" fill="white"></path><path d="M254.529 23.3421L258.468 14.2051L259.57 14.2051L263.509 23.3421L262.563 23.3421L261.461 20.8215L256.42 20.8215L255.317 23.3421L254.529 23.3421ZM260.988 20.1914L258.94 14.9927L256.735 20.1914L260.988 20.1914Z" fill="white"></path><path d="M101.876 20.5068L101.876 22.3972L1.99911 22.3972L1.99911 20.5068L101.876 20.5068Z" fill="white"></path><path d="M101.876 0.5L101.876 2.39041L1.99911 2.39041L1.99911 0.499996L101.876 0.5Z" fill="white"></path><path d="M7.51606 18.4591L2.63249 4.91113L5.62565 4.91113L9.0914 14.9933L12.3996 4.91113L15.2352 4.91113L10.3517 18.4591L7.51606 18.4591Z" fill="white"></path><path d="M17.7564 18.4591L17.7564 4.91113L20.4344 4.91113L20.4344 18.4591L17.7564 18.4591Z" fill="white"></path><path d="M30.5158 13.4176L30.5158 11.2121L36.3446 11.2121L36.3446 16.5683C35.7145 17.1984 34.9268 17.6711 33.824 17.9861C32.7213 18.3012 31.6186 18.6163 30.5158 18.6163C29.098 18.6163 27.8378 18.3012 26.8925 17.6711C25.9473 17.0409 25.0021 16.2532 24.5295 15.1505C24.0569 14.0478 23.7419 12.7875 23.7419 11.5272C23.7419 10.1094 24.0569 8.84913 24.6871 7.74639C25.3172 6.64365 26.1049 5.85598 27.2076 5.22584C28.1528 4.75324 29.098 4.5957 30.5158 4.5957C32.2487 4.5957 33.509 4.91077 34.4542 5.69844C35.3994 6.48612 36.0295 7.43132 36.3446 8.6916L33.6665 9.1642C33.509 8.53406 33.1939 7.90393 32.5638 7.58886C31.9336 7.27379 31.3035 6.95872 30.5158 6.95872C29.2556 6.95872 28.3104 7.27379 27.6802 8.06146C27.0501 8.84913 26.5775 9.95187 26.5775 11.3697C26.5775 12.945 26.8925 14.2053 27.6802 14.993C28.4679 15.7806 29.2556 16.2532 30.5158 16.2532C31.146 16.2532 31.6186 16.0957 32.2487 15.9382C32.8788 15.7806 33.3515 15.4656 33.6665 15.1505L33.6665 13.4176L30.5158 13.4176Z" fill="white"></path><path d="M39.9673 18.4591L39.9673 4.91113L42.6454 4.91113L42.6454 18.4591L39.9673 18.4591Z" fill="white"></path><path d="M46.4277 18.4588L46.4277 5.06836L49.1058 5.06836L49.1058 16.2533L55.8798 16.2533L55.8798 18.4588L46.4277 18.4588Z" fill="white"></path><path d="M71.3173 18.4591L68.3241 18.4591L67.0638 15.3084L61.7077 15.3084L60.6049 18.4591L57.7693 18.4591L62.9679 4.91113L65.8036 4.91113L71.3173 18.4591ZM66.2762 13.1029L64.3858 8.06182L62.4953 13.1029L66.2762 13.1029Z" fill="white"></path><path d="M73.8381 4.91113L78.8792 4.91113C79.9819 4.91113 80.9271 5.06867 81.3997 5.2262C82.1874 5.38374 82.8175 5.85634 83.4477 6.48648C84.0778 7.11661 84.3929 7.74675 84.7079 8.69196C85.023 9.63716 85.1805 10.5824 85.1805 11.8426C85.1805 12.9454 85.023 13.8906 84.7079 14.6783C84.3929 15.6235 83.9203 16.4111 83.2901 17.0413C82.8175 17.5139 82.1874 17.8289 81.3997 18.144C80.7696 18.3015 79.9819 18.4591 79.0367 18.4591L73.8381 18.4591L73.8381 4.91113ZM76.5162 7.27415L76.5162 16.2536L78.5641 16.2536C79.3518 16.2536 79.8244 16.2536 80.1394 16.0961C80.6121 15.9385 80.9271 15.781 81.2422 15.4659C81.5573 15.1509 81.7148 14.8358 82.0299 14.2057C82.3449 13.5755 82.3449 12.7878 82.3449 11.6851C82.3449 10.5824 82.1874 9.79469 82.0299 9.32209C81.8723 8.84949 81.5573 8.37689 81.2422 8.06182C80.9271 7.74675 80.4545 7.58922 79.9819 7.43168C79.6668 7.27415 78.8792 7.27415 77.7764 7.27415L76.5162 7.27415Z" fill="white"></path><path d="M88.0154 11.6847C88.0154 10.2669 88.1729 9.1642 88.6455 8.21899C88.9606 7.58886 89.4332 6.95872 89.9058 6.32858C90.3784 5.69844 91.0085 5.38338 91.6386 5.06831C92.4263 4.75324 93.5291 4.5957 94.6318 4.5957C96.6798 4.5957 98.2551 5.22584 99.3578 6.48612C100.461 7.74639 101.091 9.47927 101.091 11.6847C101.091 13.8902 100.461 15.6231 99.3578 16.8834C98.2551 18.1437 96.5222 18.7738 94.6318 18.7738C92.5839 18.7738 91.0085 18.1437 89.9058 16.8834C88.803 15.6231 88.0154 13.8902 88.0154 11.6847ZM90.851 11.6847C90.851 13.2601 91.1661 14.3628 91.9537 15.1505C92.7414 15.9382 93.5291 16.4108 94.6318 16.4108C95.7345 16.4108 96.6797 16.0957 97.3099 15.308C97.94 14.5204 98.4126 13.4176 98.4126 11.8423C98.4126 10.2669 98.0976 9.1642 97.4674 8.37653C96.8373 7.58886 95.8921 7.27379 94.7893 7.27379C93.6866 7.27379 92.7414 7.58886 92.1112 8.37653C91.4811 9.1642 90.851 10.1094 90.851 11.6847Z" fill="white"></path></svg>