<?xml version="1.0" encoding="UTF-8" standalone="no"?>
<svg
   xmlns:dc="http://purl.org/dc/elements/1.1/"
   xmlns:cc="http://creativecommons.org/ns#"
   xmlns:rdf="http://www.w3.org/1999/02/22-rdf-syntax-ns#"
   xmlns:svg="http://www.w3.org/2000/svg"
   xmlns="http://www.w3.org/2000/svg"
   xmlns:sodipodi="http://sodipodi.sourceforge.net/DTD/sodipodi-0.dtd"
   xmlns:inkscape="http://www.inkscape.org/namespaces/inkscape"
   width="50pt"
   height="50pt"
   viewBox="0 0 50 50"
   version="1.1"
   id="svg7"
   sodipodi:docname="gitlab.svg"
   inkscape:version="0.92.3 (2405546, 2018-03-11)">
  <metadata
     id="metadata13">
    <rdf:RDF>
      <cc:Work
         rdf:about="">
        <dc:format>image/svg+xml</dc:format>
        <dc:type
           rdf:resource="http://purl.org/dc/dcmitype/StillImage" />
      </cc:Work>
    </rdf:RDF>
  </metadata>
  <defs
     id="defs11" />
  <sodipodi:namedview
     pagecolor="#ffffff"
     bordercolor="#666666"
     borderopacity="1"
     objecttolerance="10"
     gridtolerance="10"
     guidetolerance="10"
     inkscape:pageopacity="0"
     inkscape:pageshadow="2"
     inkscape:window-width="1368"
     inkscape:window-height="849"
     id="namedview9"
     showgrid="false"
     inkscape:zoom="3.54"
     inkscape:cx="33.333333"
     inkscape:cy="33.333333"
     inkscape:window-x="-8"
     inkscape:window-y="-8"
     inkscape:window-maximized="1"
     inkscape:current-layer="svg7" />
  <g
     id="surface200412">
    <path
       style="fill:#000000;fill-opacity:1;fill-rule:nonzero;stroke:none;stroke-width:1.33333325"
       d="M 33.333984 0 C 14.922526 0 0 14.922526 0 33.333984 C 0 51.745442 14.922526 66.666016 33.333984 66.666016 C 51.745442 66.666016 66.666016 51.745442 66.666016 33.333984 C 66.666016 14.922526 51.745442 0 33.333984 0 z M 22.287109 15.453125 C 22.646484 15.463541 22.963541 15.697266 23.078125 16.041016 L 27.3125 29.078125 L 39.353516 29.078125 L 43.587891 16.041016 C 43.707683 15.686849 44.042317 15.447917 44.412109 15.453125 C 44.766276 15.458333 45.072266 15.677734 45.197266 16.005859 L 50.306641 29.630859 C 50.306641 29.636067 50.3125 29.645183 50.3125 29.650391 L 52.865234 36.4375 C 52.995442 36.796875 52.875651 37.203777 52.568359 37.427734 L 33.84375 51.041016 L 33.833984 51.052734 C 33.823568 51.063152 33.807292 51.067708 33.796875 51.078125 L 33.787109 51.078125 C 33.781901 51.083333 33.781902 51.087891 33.771484 51.087891 C 33.755859 51.098308 33.739585 51.108723 33.71875 51.119141 C 33.713542 51.124349 33.707682 51.125651 33.697266 51.130859 C 33.697266 51.136067 33.692708 51.134766 33.6875 51.134766 L 33.681641 51.134766 C 33.666015 51.145183 33.65625 51.151041 33.640625 51.15625 L 33.59375 51.171875 L 33.587891 51.171875 C 33.582683 51.177083 33.577474 51.177734 33.572266 51.177734 C 33.561848 51.182944 33.551432 51.182292 33.541016 51.1875 C 33.5306 51.1875 33.520833 51.188151 33.515625 51.193359 C 33.510416 51.193359 33.505859 51.197266 33.505859 51.197266 L 33.484375 51.197266 L 33.478516 51.197266 C 33.468098 51.202474 33.458985 51.203125 33.443359 51.203125 C 33.41211 51.208333 33.386067 51.207683 33.349609 51.212891 C 33.318359 51.212891 33.280599 51.208984 33.244141 51.208984 C 33.223307 51.208984 33.202474 51.202474 33.181641 51.197266 C 33.160807 51.197266 33.146485 51.192708 33.130859 51.1875 C 33.120443 51.1875 33.114584 51.181641 33.109375 51.181641 C 33.088542 51.176431 33.078125 51.171875 33.0625 51.171875 C 33.0625 51.166667 33.061849 51.166016 33.056641 51.166016 C 33.041015 51.160808 33.020833 51.151692 33 51.146484 C 32.979167 51.136067 32.958985 51.124349 32.943359 51.119141 C 32.943359 51.113933 32.931641 51.114584 32.931641 51.109375 C 32.921223 51.109375 32.921224 51.103516 32.916016 51.103516 L 32.912109 51.099609 L 32.90625 51.099609 C 32.890625 51.089192 32.879557 51.077474 32.869141 51.072266 C 32.858723 51.067056 32.8444 51.063152 32.833984 51.052734 L 32.828125 51.041016 L 14.103516 37.427734 C 13.791016 37.203777 13.672526 36.796875 13.802734 36.4375 L 16.359375 29.630859 C 16.359375 29.625651 16.360025 29.619141 16.365234 29.619141 L 21.46875 16.005859 C 21.59375 15.667318 21.922525 15.447917 22.287109 15.453125 z M 18.916016 30.78125 L 31.056641 46.119141 L 26.072266 30.78125 L 18.916016 30.78125 z M 40.59375 30.78125 L 35.609375 46.119141 L 47.75 30.78125 L 40.59375 30.78125 z M 17.421875 31.634766 L 15.625 36.431641 L 28.8125 46.021484 L 17.421875 31.634766 z M 49.244141 31.634766 L 37.853516 46.021484 L 51.041016 36.431641 L 49.244141 31.634766 z "
       id="path2"
       transform="scale(0.75000003)" />
  </g>
</svg>
